<?xml version="1.0" standalone="no"?>
<!DOCTYPE svg PUBLIC "-//W3C//DTD SVG 1.1//EN" "http://www.w3.org/Graphics/SVG/1.1/DTD/svg11.dtd" >
<svg xmlns="http://www.w3.org/2000/svg">
<metadata>
This is a custom SVG webfont generated by Font Squirrel.
Copyright   : Copyright c 2001 Nick Curtis All Rights Reserved
</metadata>
<defs>
<font id="webfontcOf4cWP6" horiz-adv-x="1163" >
<font-face units-per-em="2048" ascent="1638" descent="-410" />
<missing-glyph horiz-adv-x="563" />
<glyph unicode=" "  horiz-adv-x="563" />
<glyph unicode="&#x09;" horiz-adv-x="563" />
<glyph unicode="&#xa0;" horiz-adv-x="563" />
<glyph unicode="!" horiz-adv-x="442" d="M49 -4v307h133v-307h-133zM49 395v1151h133v-1151h-133zM258 -4v307h131v-307h-131zM258 395v1151h131v-1151h-131z" />
<glyph unicode="&#x22;" horiz-adv-x="442" d="M49 1186v360h133v-360h-133zM258 1186v360h131v-360h-131z" />
<glyph unicode="#" horiz-adv-x="944" d="M43 965l29 133h352l-109 -504h-133l80 371h-219zM88 1174l29 131h219l47 219h133l-76 -350h-352zM391 594l109 504h358l-29 -133h-227l-80 -371h-131zM514 1174l76 350h133l-47 -219h225l-27 -131h-360z" />
<glyph unicode="$" horiz-adv-x="1169" d="M53 643l33 197q47 285 270 471q2 2 33 26v342h131v-411q-250 -154 -303 -449l-8 -45h659q-45 -193 -205.5 -316.5t-359.5 -123.5h-184v131h184q221 0 359 178h-609zM119 127v131h184q117 0 217 37v-356h-131v192q-29 -4 -86 -4h-184zM301 850q41 176 191 303 q164 139 374 139h185v-133h-185q-221 0 -358 -178h608l-35 -197q-51 -289 -268 -471q-35 -31 -86 -63v-311h-131v389q137 66 232.5 194.5t123.5 282.5l9 45h-660zM596 1309v370h131v-192q68 12 139 12h185v-133h-185q-143 0 -270 -57z" />
<glyph unicode="&#x26;" horiz-adv-x="1417" d="M49 0v170q0 201 95.5 387t256.5 301q-152 240 -151 518v170h895v-133h-764v-37q0 -317 215 -553q-188 -94 -301 -266q-113 -178 -113 -387v-39h834v686h352v-131h-221v-686h-1098zM258 207q16 256 203.5 433t443.5 177h35v-610h-682zM418 340h391l-2 336 q-135 -27 -238.5 -116t-150.5 -220zM459 1339h686v-133h-533q4 -14 13 -39q29 -86 88 -163q57 12 94 16v102h133v-229h-35q-117 0 -233 -39q-201 200 -213 485zM1016 893v229h131v-98h221v-131h-352z" />
<glyph unicode="'" horiz-adv-x="229" d="M49 1182v364h133v-364h-133z" />
<glyph unicode="(" horiz-adv-x="753" d="M49 715q0 276 134 521t366 394l67 -104q-203 -135 -320.5 -351.5t-117.5 -459.5q0 -242 118 -458t320 -351l-67 -105q-231 147 -365.5 393.5t-134.5 520.5zM254 715q0 225 107.5 423.5t295.5 323.5l76 -114q-162 -104 -254 -273.5t-92 -359.5t93 -358.5t253 -272.5 l-76 -115q-188 125 -295.5 324t-107.5 422z" />
<glyph unicode=")" horiz-adv-x="753" d="M49 84l76 -115q188 125 295.5 324t107.5 422q0 225 -107.5 423.5t-295.5 323.5l-76 -114q162 -104 254 -273.5t92 -359.5t-93 -358.5t-253 -272.5zM166 -94l67 -105q231 147 365.5 393t134.5 521q0 276 -134 521t-366 394l-67 -104q203 -135 320.5 -351.5t117.5 -459.5 q0 -242 -117.5 -458t-320.5 -351z" />
<glyph unicode="*" horiz-adv-x="1028" d="M47 983q-6 111 70 192.5t186 86.5l45 2l-14 39q-6 14 -23 24q-8 4 -14 4q-8 0 -16 -4l-35 92q53 18 103 -5t71 -77l61 -163l-176 -7q-72 -2 -121 -57t-47 -123zM176 987q-2 57 35 98t96 43l174 9l-47 -170q-20 -70 14.5 -133.5t104.5 -81.5l-25 -88q-86 25 -140 97.5 t-54 160.5q0 35 10 71l12 43l-45 -2q-18 0 -28.5 -12t-10.5 -31zM201 1538q47 18 96 18q82 0 150.5 -48t97.5 -126l16 -43l33 27q12 8 16 27q0 20 -8 30l76 62q33 -43 27 -101q-6 -53 -52 -90l-135 -108l-61 166q-25 66 -91.5 96.5t-132.5 5.5zM469 956l47 168l148 -98 q59 -39 131 -25q72 16 110 72l76 -49q-80 -121 -225 -121q-80 0 -146 45l-39 27l-10 -41q-4 -18 3 -32.5t26 -18.5l-27 -95q-53 16 -80.5 65.5t-13.5 102.5zM539 1155l139 109q57 45 65 116q8 70 -36 127l71 58q68 -88 56 -197q-14 -113 -99 -178l-37 -29l37 -24 q14 -10 31 -7q20 8 27 19l81 -53q-33 -45 -88 -58q-53 -12 -102 21z" />
<glyph unicode="," horiz-adv-x="438" d="M49 0v113h219v-281h-88v168h-131zM49 188v113h340v-469h-84v356h-256z" />
<glyph unicode="-" horiz-adv-x="487" d="M49 598v133h389v-133h-389zM49 807v131h389v-131h-389z" />
<glyph unicode="." horiz-adv-x="438" d="M49 0v307h133v-307h-133zM258 0v307h131v-307h-131z" />
<glyph unicode="0" d="M45 -8v651q0 371 262 633t633 262h170v-1546h-1065zM176 125h803v1282h-39q-313 0 -538.5 -225.5t-225.5 -538.5v-518zM252 199v444q0 272 190.5 473t460.5 213v-1130h-651zM385 332h387v842q-172 -57 -279.5 -203t-107.5 -328v-311z" />
<glyph unicode="1" horiz-adv-x="548" d="M49 1208v133h240v-1339h-131v1206h-109zM49 1415v133h449v-1546h-133v1413h-316z" />
<glyph unicode="2" horiz-adv-x="1091" d="M49 0v170q0 205 111 410q106 193 276 323q162 125 236 303h-527v133h689q-18 -311 -318 -540q-150 -115 -240 -277q-94 -174 -94 -352v-39h764v-131h-897zM145 1413v133h895v-170q0 -215 -112 -415q-104 -186 -285 -326q-166 -127 -221 -295h524v-133h-688q10 150 96 297 q84 139 209 235q346 266 346 637v37h-764z" />
<glyph unicode="3" horiz-adv-x="978" d="M49 0v131h750v39q0 176 -80 336t-219 266q139 106 219 267t80 337v37h-750v133h881v-170q0 -346 -236 -604q236 -254 236 -602v-170h-881zM49 207v133h516q-45 133 -145 229q-174 -82 -371 -86v131q207 2 385 113q127 -90 204 -228.5t83 -291.5h-672zM49 690v133 q176 4 318.5 109.5t195.5 273.5h-514v133h672q-12 -268 -208 -455.5t-464 -193.5z" />
<glyph unicode="4" horiz-adv-x="1179" d="M53 389v262q0 369 263.5 632t629.5 263h154v-133h-154q-313 0 -536.5 -224t-223.5 -538v-129h600v-522h-133v389h-600zM262 596v55q0 236 147.5 425.5t376.5 242.5v-723h-524zM399 729h254v393q-219 -141 -254 -393zM860 0v522h266v-133h-133v-389h-133zM860 596v737 q43 6 86 6h154v-133h-107v-477h133v-131z" />
<glyph unicode="5" horiz-adv-x="1021" d="M47 723v823h774v-133h-643l2 -557h588q-16 -268 -216 -458.5t-470 -190.5v133q180 0 324.5 105.5t203.5 277.5h-563zM82 0v131q311 0 536.5 225.5t225.5 536.5v39h-590v407h567v-133h-434v-143h588v-170q0 -369 -262 -631t-631 -262z" />
<glyph unicode="6" horiz-adv-x="1241" d="M49 0v651q0 371 262 633t633 262h76v-133h-76q-315 0 -539.5 -224t-224.5 -538v-520h879v39q0 307 -217 530.5t-525 233.5q84 182 255 293.5t372 111.5h76v-133h-78q-227 0 -391 -164l-10 -10q287 -84 468 -323.5t181 -538.5v-170h-1141zM256 207v444q0 102 33 207h6 q272 0 473 -190.5t213 -460.5h-725zM389 340h436q-51 147 -165.5 248.5t-266.5 130.5q-4 -23 -4 -68v-311z" />
<glyph unicode="7" horiz-adv-x="843" d="M49 1206v133h539q39 -244 -99 -458l-180 -285q-80 -127 -106 -264q-12 -61 -8 -144q8 -137 8 -141l10 -47h-135q-12 57 -15 178q-2 119 11 178q35 174 123 312l182 282q70 109 84 256h-414zM49 1413v133h711l26 -137q33 -164 0 -334q-31 -168 -120 -307l-183 -285 q-55 -86 -75 -190q-23 -117 -2 -207l20 -86h-137l-13 61q-25 121 1 254.5t96 239.5l182 285q76 119 102 260q29 152 0 284l-6 29h-602zM276 61v2v-2z" />
<glyph unicode="8" horiz-adv-x="1220" d="M33 1546h1155l-60 -215q-35 -127 -99 -235.5t-157 -200.5l-22 -23l16 -14q127 -113 215 -313q78 -178 84 -369l6 -176h-1122l6 176q6 188 86 369q92 207 213 313l17 14l-23 23q-186 186 -256 436zM186 131h848v39q0 154 -73 322q-70 158 -187 272l-110 108l116 117 q154 154 221 377l15 47h-809l12 -47q55 -211 221 -377l117 -117l-108 -108q-123 -123 -189 -272q-61 -141 -72 -322zM266 207q20 291 234 504l110 110l111 -110q209 -209 235 -504h-690zM307 1339h606q-55 -166 -186 -297l-117 -116l-116 116q-132 131 -187 297zM424 340 h373q-8 23 -27 70q-49 115 -141 206l-19 19l-16 -19q-102 -115 -143 -206q-7 -15 -27 -70zM524 1206q41 -49 64 -69l22 -25l25 25q37 37 61 69h-172z" />
<glyph unicode="9" horiz-adv-x="1245" d="M49 1378v170h1141v-651q0 -371 -262 -633t-633 -262h-76v131h76q313 0 538.5 225.5t225.5 538.5v518h-879v-37q0 -309 216 -531t526 -233q-84 -184 -254 -294.5t-373 -110.5h-76v133h78q229 0 391 162q2 2 5 6t5 6q-287 84 -468 323.5t-181 538.5zM258 1341h725v-444 q0 -104 -33 -209h-6q-272 0 -473 190.5t-213 462.5zM416 1208q45 -145 162.5 -248.5t269.5 -130.5q4 45 4 68v311h-436z" />
<glyph unicode=":" horiz-adv-x="438" d="M49 -2v307h133v-307h-133zM49 565v307h133v-307h-133zM258 -2v307h131v-307h-131zM258 565v307h131v-307h-131z" />
<glyph unicode=";" horiz-adv-x="438" d="M49 0v113h219v-281h-88v168h-131zM49 188v113h340v-469h-84v356h-256zM49 565v307h133v-307h-133zM258 565v307h131v-307h-131z" />
<glyph unicode="?" horiz-adv-x="1085" d="M49 1075v471h987l-6 -174q-10 -272 -199 -461l-169 -170q-43 -43 -72 -106.5t-29 -124.5v-115h-131l-2 119q-2 76 41 174q37 84 100 148l170 170q76 76 115 168q45 106 45 202v37h-717v-338h-133zM221 395v121q0 125 58 254q51 117 145 211l170 170q20 20 45 55h-250 v-131h-133v264h565q-20 -166 -135 -280l-170 -170q-162 -162 -162 -373v-121h-133zM223 -4v307h133v-307h-133zM432 -4v307h131v-307h-131z" />
<glyph unicode="@" horiz-adv-x="1654" d="M49 772q0 322 228.5 550t549.5 228q322 0 550.5 -228t228.5 -550q0 -137 -47 -268l-27 -74h-1073v172q0 227 160.5 388t388.5 161h112v-496h248q2 4 3 10.5t1 8.5q8 66 8 98q0 227 -162.5 389t-390.5 162q-227 0 -389 -162t-162 -389q0 -229 162 -391t389 -162 q188 0 336 115l58 -76q-172 -133 -394 -133q-266 0 -456.5 190.5t-190.5 456.5t189.5 455.5t457.5 189.5q266 0 457 -189.5t191 -455.5q0 -100 -35 -211h-414v496h-18q-188 0 -321.5 -133t-133.5 -322v-78h913l4 13q41 123 41 235q0 283 -200.5 483.5t-483.5 200.5 t-483.5 -200.5t-200.5 -483.5t201 -483.5t483 -200.5q231 0 416 139l57 -73q-211 -160 -473 -160q-322 0 -550 228t-228 550zM590 561v41q0 168 116.5 289t282.5 127v-457h-399zM690 655h205v250q-61 -23 -115 -76q-76 -76 -90 -174z" />
<glyph unicode="A" horiz-adv-x="1292" d="M49 604v131h264q-4 -53 -4 -84v-651h-133v604h-127zM49 811v131h176q94 270 327.5 437t520.5 167h170v-1546h-133v1413h-37q-270 0 -481 -170t-266 -432h-277zM385 0v651q0 31 4 84h645v-735h-131v604h-387v-604h-131zM403 811q55 221 228.5 366.5t402.5 159.5v-526h-631 zM600 942h303v238q-194 -60 -303 -238z" />
<glyph unicode="B" horiz-adv-x="1157" d="M47 0v1546h1065v-170q0 -225 -104 -418q-55 -100 -131 -186q236 -258 235 -602v-170h-1065zM178 131h803v39q0 174 -80 335t-219 267q141 111 220 269.5t79 334.5v37h-803v-1282zM254 207v647q260 -12 448.5 -200.5t200.5 -446.5h-649zM254 930v409h649 q-12 -319 -287 -522q-167 105 -362 113zM387 340h358q-86 270 -358 356v-356zM387 1047q106 -20 215 -70q61 59 107 141q25 47 39 88h-361v-159z" />
<glyph unicode="C" horiz-adv-x="1069" d="M49 895v651h971v-133h-840v-518q0 -313 225.5 -538.5t538.5 -225.5h76v-131h-76q-371 0 -633 262t-262 633zM256 895v444h764v-133h-631v-311q0 -231 162 -393t393 -162h76v-133h-76q-285 0 -486.5 203.5t-201.5 484.5z" />
<glyph unicode="D" d="M49 0v1546h1065v-651q0 -371 -262 -633t-633 -262h-170zM180 131h39q313 0 538.5 225.5t225.5 538.5v518h-803v-1282zM256 209v1130h651v-444q0 -272 -190.5 -473t-460.5 -213zM389 367q172 55 279.5 201.5t107.5 326.5v311h-387v-839z" />
<glyph unicode="E" horiz-adv-x="1062" d="M49 895v651h971v-133h-840v-518q0 -313 225.5 -538.5t538.5 -225.5h76v-131h-76q-371 0 -633 262t-262 633zM256 895v444h764v-133h-631v-227h387v-131h-518q-2 14 -2 47zM266 772h510v-133h-325q43 -78 100 -137q160 -162 393 -162h76v-133h-76q-283 0 -485 203 q-154 153 -193 362z" />
<glyph unicode="F" horiz-adv-x="1073" d="M49 0v651q0 369 264.5 632t632.5 263h78v-133h-78q-319 0 -541.5 -224t-222.5 -538v-651h-133zM256 0v651q0 8 2 25v22h520v-131h-389v-567h-133zM268 774q43 244 236.5 404.5t441.5 160.5h78v-133h-78q-154 0 -289 -82t-206 -219h327v-131h-510z" />
<glyph unicode="G" horiz-adv-x="1241" d="M49 893v651h1143v-131h-1010v-520q0 -313 224.5 -538.5t537.5 -225.5h115v680h-420v131h553v-942h-248q-369 0 -632 263t-263 632zM258 893v444h934v-133h-803v-311q0 -203 132 -358.5t331 -190.5v258h-213v131h344v-528h-39q-285 0 -485.5 201.5t-200.5 486.5z" />
<glyph unicode="H" horiz-adv-x="1298" d="M49 604v131h357v-735h-134v604h-223zM49 811v131h223v604h134v-735h-357zM481 0v735h563v-735h-131v604h-301v-604h-131zM481 811v735h131v-604h301v604h131v-735h-563zM1120 0v1546h133v-1546h-133z" />
<glyph unicode="I" horiz-adv-x="432" d="M49 0v1546h133v-1546h-133zM258 0v1546h131v-1546h-131z" />
<glyph unicode="J" horiz-adv-x="1069" d="M49 0v131h76q313 0 538.5 225.5t225.5 538.5v518h-840v133h971v-651q0 -371 -262 -633t-633 -262h-76zM49 207v133h76q231 0 393 162t162 393v311h-631v133h764v-444q0 -281 -201.5 -484.5t-486.5 -203.5h-76z" />
<glyph unicode="K" d="M49 0v1546h131v-1546h-131zM256 0v854q270 -12 459.5 -212t189.5 -472v-170h-131v170q0 178 -107.5 325.5t-277.5 200.5v-696h-133zM256 930v616h133v-499q106 -20 215 -70q68 68 107 139q63 117 63 260v170h131v-170q0 -348 -287 -559q-167 105 -362 113zM684 772 q297 233 297 604v170h133v-170q0 -330 -235 -604q236 -256 235 -602v-170h-133v170q0 313 -223 539q-13 12 -74 63z" />
<glyph unicode="L" horiz-adv-x="933" d="M49 0v1546h133v-1415h703v-131h-836zM258 207v1339h131v-1206h496v-133h-627z" />
<glyph unicode="M" horiz-adv-x="1542" d="M49 0v1546h170q305 0 553 -192q248 193 553 192h170v-1546h-131v1413h-39q-330 0 -553 -237q-223 238 -553 237h-37v-1413h-133zM258 0v1337q131 -6 250 -61q141 -66 235 -180l29 -35l29 35q188 227 487 241v-1337h-133v1180q-31 -8 -63 -25q-111 -51 -191 -145 l-129 -152l-129 152q-80 94 -190 145q-37 18 -64 25v-1180h-131z" />
<glyph unicode="N" d="M49 0v1546h170q309 0 557 -194v194h131v-565q-92 197 -280.5 314.5t-407.5 117.5h-39v-1413h-131zM256 0v1337q272 -16 461.5 -213.5t189.5 -470.5v-653h-131v653q0 178 -108.5 325.5t-278.5 201.5v-1180h-133zM983 0v1546h131v-1546h-131z" />
<glyph unicode="O" d="M49 893v651h1065v-1546h-170q-371 0 -633 262t-262 633zM180 893q0 -313 225.5 -538.5t538.5 -225.5h39v1282h-803v-518zM256 893v444h651v-1130q-270 12 -460.5 213t-190.5 473zM389 893q0 -182 107.5 -327.5t279.5 -203.5v842h-387v-311z" />
<glyph unicode="P" d="M49 0v1546h1065v-170q0 -319 -206 -569t-519 -307v-500h-133v616q303 12 515 234.5t212 525.5v37h-803v-1413h-131zM256 690v649h649q-12 -260 -199.5 -446.5t-449.5 -202.5zM389 848q274 94 359 358h-359v-358z" />
<glyph unicode="Q" d="M49 0v1546h1065v-651q0 -201 -86 -383q86 -168 86 -358v-154h-131v154q0 193 -106 356q106 178 106 385v518h-803v-1282h39q315 0 539 225q47 47 73 84q76 -139 76 -286v-154h-131v154v20q-2 12 -2 19q-244 -193 -555 -193h-170zM256 209v1130h651v-444q0 -170 -80 -320 q-178 207 -438 232v-76q238 -25 397 -225q-92 -131 -232 -210t-298 -87zM389 367q125 39 221 133q-96 80 -221 98v-231zM389 940q201 -14 379 -133q8 57 8 88v311h-387v-266z" />
<glyph unicode="R" d="M49 2v1546h1065v-170q0 -225 -104 -417q-55 -100 -131 -187q236 -256 235 -602v-170h-133v170q0 313 -223 539q-39 39 -74 63q141 111 220 269.5t79 334.5v37h-803v-1413h-131zM256 2v854q270 -12 459.5 -212t189.5 -472v-170h-131v170q0 178 -107.5 325.5t-277.5 200.5 v-696h-133zM256 932v409h649q-12 -319 -287 -522q-167 105 -362 113zM389 1049q106 -20 215 -70q61 59 107 141q25 47 39 88h-361v-159z" />
<glyph unicode="S" horiz-adv-x="1271" d="M49 602l33 199q53 319 305 532t578 213h176v-133h-176q-279 0 -489 -175t-263 -460l-8 -43h772q-55 -231 -243.5 -379.5t-426.5 -148.5h-176v133h176q143 0 270.5 70.5t202.5 191.5h-731zM131 0v131h176q279 0 490 179t262 456l8 45h-772q55 229 244.5 378.5t425.5 149.5 h176v-133h-176q-143 0 -271.5 -71.5t-201.5 -192.5h731l-33 -199q-53 -319 -306 -531t-577 -212h-176z" />
<glyph unicode="T" horiz-adv-x="929" d="M49 1206v133h379v-1339h-133v1206h-246zM49 1415v131h832v-131h-832zM502 0v1339h379v-133h-246v-1206h-133z" />
<glyph unicode="U" d="M49 895v651h131v-651q0 -313 225.5 -538.5t538.5 -225.5h39v1415h131v-1546h-170q-369 0 -632 263t-263 632zM256 895v651h133v-651q0 -184 106.5 -329.5t280.5 -198.5v1179h131v-1337q-270 12 -460.5 213t-190.5 473z" />
<glyph unicode="V" horiz-adv-x="1167" d="M49 862v684h133v-684q0 -348 240 -588l162 -157l161 157q242 242 242 588v684h131v-684q0 -406 -280 -680v-2l-254 -248l-254 248v2q-281 274 -281 680zM256 862v684h133v-684q0 -262 178 -440l17 -16l16 16q178 178 178 440v684h133v-684q0 -313 -219 -532v-2l-108 -107 l-109 107v2q-219 219 -219 532z" />
<glyph unicode="W" horiz-adv-x="1634" d="M49 862v684h133v-684q0 -342 240 -588h2l160 -157l161 157q59 59 72 82q33 -45 72 -82l162 -157l161 157q240 240 240 588v684h133v-684q0 -406 -280 -680v-2l-254 -248l-234 228l-233 -228l-254 248v2q-133 129 -207 310.5t-74 369.5zM258 862v684h131v-684 q0 -262 178 -440l17 -16q66 66 94 108l139 209l141 -209q35 -51 93 -108l16 16q178 178 178 440v684h133v-684q0 -313 -219 -532v-2l-108 -107q-51 47 -158 162q-35 43 -76 104q-23 -35 -74 -104q-23 -29 -159 -162l-109 107v2q-217 217 -217 532z" />
<glyph unicode="X" horiz-adv-x="1099" d="M49 0v143q0 369 260 629h-2q-258 258 -258 627v147h133v-147q0 -313 219 -533l95 -94l-90 -90q-223 -223 -224 -539v-143h-133zM258 0v143q0 285 201 486l90 90l90 -90q203 -203 203 -486v-143h-133v143q0 229 -160 389q-160 -166 -160 -389v-143h-131zM258 1399v147h131 v-147q0 -233 158 -385l2 -4l4 4q156 156 156 385v147h133v-147q0 -283 -197 -479l-96 -97l-94 97q-197 200 -197 479zM602 772l96 94q219 215 220 533v147h131v-147q0 -375 -258 -627h-3q260 -260 261 -629v-143h-131v143q0 313 -226 539z" />
<glyph unicode="Y" horiz-adv-x="1097" d="M49 1399v147h133v-147q0 -158 56 -289q61 -147 102 -197q29 -37 172 -155v-758h-133v702q-113 113 -150 160q-68 84 -112 197q-68 168 -68 340zM258 1399v147h131v-147q0 -113 41 -211q45 -111 119 -180q80 80 121 180q39 94 39 211v147h133v-147q0 -133 -52.5 -262 t-87.5 -174q-31 -37 -153 -138l-17 17q-96 94 -126 133q-61 74 -99 164q-49 117 -49 260zM588 0v758q137 115 170 155q43 53 101.5 194.5t58.5 291.5v147h131v-147q0 -182 -66 -340q-57 -139 -102 -201q-51 -72 -162 -156v-702h-131z" />
<glyph unicode="Z" horiz-adv-x="1107" d="M49 0l6 176q12 348 262 598l240 240q70 70 113 166l10 26h-479v133h643q-20 -246 -195 -419l-239 -238q-100 -98 -160 -236q-63 -143 -64 -276v-39h775v-131h-912zM201 1413v133h858l-6 -174q-12 -354 -258 -600l-238 -237q-76 -76 -117 -170q-4 -8 -10 -25h531v-133 h-697q29 252 199 422l239 237q102 100 158 232q61 143 62 276v39h-721z" />
<glyph unicode="_" horiz-adv-x="681" d="M0 -41h682v-133h-682v133z" />
<glyph unicode="`" horiz-adv-x="618" d="M78 1772l450 -201l52 119l-449 198z" />
<glyph unicode="a" horiz-adv-x="1292" d="M49 604v131h264q-4 -53 -4 -84v-651h-133v604h-127zM49 811v131h176q94 270 327.5 437t520.5 167h170v-1546h-133v1413h-37q-270 0 -481 -170t-266 -432h-277zM385 0v651q0 31 4 84h645v-735h-131v604h-387v-604h-131zM403 811q55 221 228.5 366.5t402.5 159.5v-526h-631 zM600 942h303v238q-194 -60 -303 -238z" />
<glyph unicode="b" d="M49 0v1546h1065v-170q0 -225 -104 -418q-55 -100 -131 -186q236 -258 235 -602v-170h-1065zM180 131h803v39q0 174 -80 335t-219 267q141 111 220 269.5t79 334.5v37h-803v-1282zM256 207v647q260 -12 448.5 -200.5t200.5 -446.5h-649zM256 930v409h649 q-12 -319 -287 -522q-167 105 -362 113zM389 340h358q-86 270 -358 356v-356zM389 1047q106 -20 215 -70q61 59 107 141q25 47 39 88h-361v-159z" />
<glyph unicode="c" horiz-adv-x="1069" d="M49 895v651h971v-133h-840v-518q0 -313 225.5 -538.5t538.5 -225.5h76v-131h-76q-371 0 -633 262t-262 633zM256 895v444h764v-133h-631v-311q0 -231 162 -393t393 -162h76v-133h-76q-285 0 -486.5 203.5t-201.5 484.5z" />
<glyph unicode="d" d="M49 0v1546h1065v-651q0 -371 -262 -633t-633 -262h-170zM180 131h39q313 0 538.5 225.5t225.5 538.5v518h-803v-1282zM256 209v1130h651v-444q0 -272 -190.5 -473t-460.5 -213zM389 367q172 55 279.5 201.5t107.5 326.5v311h-387v-839z" />
<glyph unicode="e" horiz-adv-x="1069" d="M49 895v651h971v-133h-840v-518q0 -313 225.5 -538.5t538.5 -225.5h76v-131h-76q-371 0 -633 262t-262 633zM256 895v444h764v-133h-631v-227h387v-131h-518q-2 14 -2 47zM266 772h510v-133h-325q43 -78 100 -137q160 -162 393 -162h76v-133h-76q-283 0 -485 203 q-154 153 -193 362z" />
<glyph unicode="f" horiz-adv-x="1073" d="M49 0v651q0 369 264.5 632t632.5 263h78v-133h-78q-319 0 -541.5 -224t-222.5 -538v-651h-133zM256 0v651q0 8 2 25v22h520v-131h-389v-567h-133zM268 774q43 244 236.5 404.5t441.5 160.5h78v-133h-78q-154 0 -289 -82t-206 -219h327v-131h-510z" />
<glyph unicode="g" horiz-adv-x="1241" d="M49 893v651h1143v-131h-1010v-520q0 -313 224.5 -538.5t537.5 -225.5h115v680h-420v131h553v-942h-248q-369 0 -632 263t-263 632zM258 893v444h934v-133h-803v-311q0 -203 132 -358.5t331 -190.5v258h-213v131h344v-528h-39q-285 0 -485.5 201.5t-200.5 486.5z" />
<glyph unicode="h" horiz-adv-x="1302" d="M49 604v131h357v-735h-134v604h-223zM49 811v131h223v604h134v-735h-357zM481 0v735h563v-735h-131v604h-301v-604h-131zM481 811v735h131v-604h301v604h131v-735h-563zM1120 0v1546h133v-1546h-133z" />
<glyph unicode="i" horiz-adv-x="438" d="M49 0v1546h133v-1546h-133zM258 0v1546h131v-1546h-131z" />
<glyph unicode="j" horiz-adv-x="1069" d="M49 0v131h76q313 0 538.5 225.5t225.5 538.5v518h-840v133h971v-651q0 -371 -262 -633t-633 -262h-76zM49 207v133h76q231 0 393 162t162 393v311h-631v133h764v-444q0 -281 -201.5 -484.5t-486.5 -203.5h-76z" />
<glyph unicode="k" d="M49 0v1546h131v-1546h-131zM256 0v854q270 -12 459.5 -212t189.5 -472v-170h-131v170q0 178 -107.5 325.5t-277.5 200.5v-696h-133zM256 930v616h133v-499q106 -20 215 -70q68 68 107 139q63 117 63 260v170h131v-170q0 -348 -287 -559q-167 105 -362 113zM684 772 q297 233 297 604v170h133v-170q0 -330 -235 -604q236 -256 235 -602v-170h-133v170q0 313 -223 539q-13 12 -74 63z" />
<glyph unicode="l" horiz-adv-x="933" d="M49 0v1546h133v-1415h703v-131h-836zM258 207v1339h131v-1206h496v-133h-627z" />
<glyph unicode="m" horiz-adv-x="1544" d="M49 0v1546h170q305 0 553 -192q248 193 553 192h170v-1546h-131v1413h-39q-330 0 -553 -237q-223 238 -553 237h-37v-1413h-133zM258 0v1337q131 -6 250 -61q141 -66 235 -180l29 -35l29 35q188 227 487 241v-1337h-133v1180q-31 -8 -63 -25q-111 -51 -191 -145 l-129 -152l-129 152q-80 94 -190 145q-37 18 -64 25v-1180h-131z" />
<glyph unicode="n" d="M49 0v1546h170q309 0 557 -194v194h131v-565q-92 197 -280.5 314.5t-407.5 117.5h-39v-1413h-131zM256 0v1337q272 -16 461.5 -213.5t189.5 -470.5v-653h-131v653q0 178 -108.5 325.5t-278.5 201.5v-1180h-133zM983 0v1546h131v-1546h-131z" />
<glyph unicode="o" d="M49 893v651h1065v-1546h-170q-371 0 -633 262t-262 633zM180 893q0 -313 225.5 -538.5t538.5 -225.5h39v1282h-803v-518zM256 893v444h651v-1130q-270 12 -460.5 213t-190.5 473zM389 893q0 -182 107.5 -327.5t279.5 -203.5v842h-387v-311z" />
<glyph unicode="p" d="M49 0v1546h1065v-170q0 -319 -206 -569t-519 -307v-500h-133v616q303 12 515 234.5t212 525.5v37h-803v-1413h-131zM256 690v649h649q-12 -260 -199.5 -446.5t-449.5 -202.5zM389 848q274 94 359 358h-359v-358z" />
<glyph unicode="q" horiz-adv-x="1161" d="M49 0v1546h1065v-651q0 -201 -86 -383q86 -168 86 -358v-154h-131v154q0 193 -106 356q106 178 106 385v518h-803v-1282h39q315 0 539 225q47 47 73 84q76 -139 76 -286v-154h-131v154v20q-2 12 -2 19q-244 -193 -555 -193h-170zM256 209v1130h651v-444q0 -170 -80 -320 q-178 207 -438 232v-76q238 -25 397 -225q-92 -131 -232 -210t-298 -87zM389 367q125 39 221 133q-96 80 -221 98v-231zM389 940q201 -14 379 -133q8 57 8 88v311h-387v-266z" />
<glyph unicode="r" d="M49 2v1546h1065v-170q0 -225 -104 -417q-55 -100 -131 -187q236 -256 235 -602v-170h-133v170q0 313 -223 539q-39 39 -74 63q141 111 220 269.5t79 334.5v37h-803v-1413h-131zM256 2v854q270 -12 459.5 -212t189.5 -472v-170h-131v170q0 178 -107.5 325.5t-277.5 200.5 v-696h-133zM256 932v409h649q-12 -319 -287 -522q-167 105 -362 113zM389 1049q106 -20 215 -70q61 59 107 141q25 47 39 88h-361v-159z" />
<glyph unicode="s" horiz-adv-x="1271" d="M49 602l33 199q53 319 305 532t578 213h176v-133h-176q-279 0 -489 -175t-263 -460l-8 -43h772q-55 -231 -243.5 -379.5t-426.5 -148.5h-176v133h176q143 0 270.5 70.5t202.5 191.5h-731zM131 0v131h176q279 0 490 179t262 456l8 45h-772q55 229 244.5 378.5t425.5 149.5 h176v-133h-176q-143 0 -271.5 -71.5t-201.5 -192.5h731l-33 -199q-53 -319 -306 -531t-577 -212h-176z" />
<glyph unicode="t" horiz-adv-x="931" d="M49 1206v133h379v-1339h-133v1206h-246zM49 1415v131h832v-131h-832zM502 0v1339h379v-133h-246v-1206h-133z" />
<glyph unicode="u" d="M49 895v651h131v-651q0 -313 225.5 -538.5t538.5 -225.5h39v1415h131v-1546h-170q-369 0 -632 263t-263 632zM256 895v651h133v-651q0 -184 106.5 -329.5t280.5 -198.5v1179h131v-1337q-270 12 -460.5 213t-190.5 473z" />
<glyph unicode="v" horiz-adv-x="1167" d="M49 862v684h133v-684q0 -348 240 -588l162 -157l161 157q242 242 242 588v684h131v-684q0 -406 -280 -680v-2l-254 -248l-254 248v2q-281 274 -281 680zM256 862v684h133v-684q0 -262 178 -440l17 -16l16 16q178 178 178 440v684h133v-684q0 -313 -219 -532v-2l-108 -107 l-109 107v2q-219 219 -219 532z" />
<glyph unicode="w" horiz-adv-x="1634" d="M49 862v684h133v-684q0 -342 240 -588h2l160 -157l161 157q59 59 72 82q33 -45 72 -82l162 -157l161 157q240 240 240 588v684h133v-684q0 -406 -280 -680v-2l-254 -248l-234 228l-233 -228l-254 248v2q-133 129 -207 310.5t-74 369.5zM258 862v684h131v-684 q0 -262 178 -440l17 -16q66 66 94 108l139 209l141 -209q35 -51 93 -108l16 16q178 178 178 440v684h133v-684q0 -313 -219 -532v-2l-108 -107q-51 47 -158 162q-35 43 -76 104q-23 -35 -74 -104q-23 -29 -159 -162l-109 107v2q-217 217 -217 532z" />
<glyph unicode="x" horiz-adv-x="1097" d="M49 0v143q0 369 260 629h-2q-258 258 -258 627v147h133v-147q0 -313 219 -533l95 -94l-90 -90q-223 -223 -224 -539v-143h-133zM258 0v143q0 285 201 486l90 90l90 -90q203 -203 203 -486v-143h-133v143q0 229 -160 389q-160 -166 -160 -389v-143h-131zM258 1399v147h131 v-147q0 -233 158 -385l2 -4l4 4q156 156 156 385v147h133v-147q0 -283 -197 -479l-96 -97l-94 97q-197 200 -197 479zM602 772l96 94q219 215 220 533v147h131v-147q0 -375 -258 -627h-3q260 -260 261 -629v-143h-131v143q0 313 -226 539z" />
<glyph unicode="y" horiz-adv-x="1097" d="M49 1399v147h133v-147q0 -158 56 -289q61 -147 102 -197q29 -37 172 -155v-758h-133v702q-113 113 -150 160q-68 84 -112 197q-68 168 -68 340zM258 1399v147h131v-147q0 -113 41 -211q45 -111 119 -180q80 80 121 180q39 94 39 211v147h133v-147q0 -133 -52.5 -262 t-87.5 -174q-31 -37 -153 -138l-17 17q-96 94 -126 133q-61 74 -99 164q-49 117 -49 260zM588 0v758q137 115 170 155q43 53 101.5 194.5t58.5 291.5v147h131v-147q0 -182 -66 -340q-57 -139 -102 -201q-51 -72 -162 -156v-702h-131z" />
<glyph unicode="z" horiz-adv-x="1107" d="M49 0l6 176q12 348 262 598l240 240q70 70 113 166l10 26h-479v133h643q-20 -246 -195 -419l-239 -238q-100 -98 -160 -236q-63 -143 -64 -276v-39h775v-131h-912zM201 1413v133h858l-6 -174q-12 -354 -258 -600l-238 -237q-76 -76 -117 -170q-4 -8 -10 -25h531v-133 h-697q29 252 199 422l239 237q102 100 158 232q61 143 62 276v39h-721z" />
<glyph unicode="&#xa2;" horiz-adv-x="835" d="M49 846v465h207v235h131v-368h-205v-332q0 -242 205 -391v-461h-131v395l-27 27q-180 180 -180 430zM258 846v256h526v-131h-395v-125q0 -111 80 -191t193 -80h122v-133h-122q-166 0 -285 119t-119 285zM463 -6v418q92 -43 199 -43h122v-133h-122q-25 0 -66 4v-246h-133z M463 1178v368h133v-235h188v-133h-321z" />
<glyph unicode="&#xa3;" horiz-adv-x="1193" d="M53 469v94h246v-432h840v-131h-971v469h-115zM53 602v94h115q18 356 277.5 603t615.5 247h78v-133h-78q-315 0 -538.5 -223t-223.5 -539v-49h-246zM375 207v356h325v-94h-194v-129h633v-133h-764zM375 602v49q0 283 201.5 485.5t484.5 202.5h78v-133h-78 q-215 0 -374 -147.5t-179 -362.5h192v-94h-325z" />
<glyph unicode="&#xa4;" horiz-adv-x="1292" d="M49 516v96h264q53 -213 227.5 -347t393.5 -134h291v-131h-291q-246 0 -447.5 143.5t-283.5 372.5h-154zM49 649v94h111v60h-111v94h254q-10 -68 -10 -125q0 -55 10 -123h-254zM49 934v94h154q82 231 283.5 374.5t447.5 143.5h291v-133h-291q-221 0 -394 -133t-227 -346 h-264zM367 772q0 53 14 125h758v-94h-639v-60h524v-94h-643q-14 68 -14 123zM391 612h633v-96h-440q18 -25 43 -49q127 -127 307 -127h291v-133h-291q-186 0 -339 113.5t-204 291.5zM391 934q39 133 144 237q168 168 399 168h291v-133h-291q-102 0 -198.5 -48t-151.5 -130 h555v-94h-748z" />
<glyph unicode="&#xa5;" horiz-adv-x="1200" d="M49 516v96h506v-612h-131v516h-375zM49 649v94h334l-59 60h-275v94h367l139 -139v-109h-506zM49 934v94h125q-4 10 -14 31q-66 162 -66 340v147h131v-147q0 -266 160 -465h-336zM301 1399v147h133v-147q0 -113 39 -211q25 -61 121 -178q45 57 119 178q41 98 41 211v147 h131v-147q0 -139 -49 -260q-51 -127 -242 -314q-111 109 -139 144q-63 76 -103 170q-51 127 -51 260zM631 0v612h508v-96h-375v-516h-133zM631 649v109l141 139h367v-94h-275l-59 -60h334v-94h-508zM803 934q158 195 158 465v147h133v-147q0 -172 -68 -340l-12 -31h125v-94 h-336z" />
<glyph unicode="&#xa8;" horiz-adv-x="454" d="M49 1589v131h129v-131h-129zM268 1589v131h131v-131h-131z" />
<glyph unicode="&#xaa;" horiz-adv-x="647" d="M53 1128v58h119q-2 -23 -2 -37v-293h-59v272h-58zM53 1221v59h78q43 121 148.5 196.5t234.5 75.5h76v-696h-60v635h-16q-123 0 -217 -76t-121 -194h-123zM205 856v293v37h291v-330h-60v272h-174v-272h-57zM213 1221q25 100 102.5 165.5t180.5 71.5v-237h-283zM301 1280 h135v106q-86 -26 -135 -106z" />
<glyph unicode="&#xab;" horiz-adv-x="684" d="M27 774l241 313h166l-241 -313l243 -317h-166zM252 774l242 313h165l-241 -313l244 -317h-166z" />
<glyph unicode="&#xad;" horiz-adv-x="487" d="M49 598v133h389v-133h-389zM49 807v131h389v-131h-389z" />
<glyph unicode="&#xb2;" horiz-adv-x="1091" d="M49 0v170q0 205 111 410q106 193 276 323q162 125 236 303h-527v133h689q-18 -311 -318 -540q-150 -115 -240 -277q-94 -174 -94 -352v-39h764v-131h-897zM145 1413v133h895v-170q0 -215 -112 -415q-104 -186 -285 -326q-166 -127 -221 -295h524v-133h-688q10 150 96 297 q84 139 209 235q346 266 346 637v37h-764z" />
<glyph unicode="&#xb3;" horiz-adv-x="978" d="M49 0v131h750v39q0 176 -80 336t-219 266q139 106 219 267t80 337v37h-750v133h881v-170q0 -346 -236 -604q236 -254 236 -602v-170h-881zM49 207v133h516q-45 133 -145 229q-174 -82 -371 -86v131q207 2 385 113q127 -90 204 -228.5t83 -291.5h-672zM49 690v133 q176 4 318.5 109.5t195.5 273.5h-514v133h672q-12 -268 -208 -455.5t-464 -193.5z" />
<glyph unicode="&#xb4;" horiz-adv-x="618" d="M78 1690l450 198l52 -116l-449 -201z" />
<glyph unicode="&#xb7;" horiz-adv-x="438" d="M49 565v307h133v-307h-133zM258 565v307h131v-307h-131z" />
<glyph unicode="&#x2219;" horiz-adv-x="438" d="M49 565v307h133v-307h-133zM258 565v307h131v-307h-131z" />
<glyph unicode="&#xb8;" horiz-adv-x="487" d="M68 -203l157 287h135l-98 -168q66 -6 112 -54t46 -114q0 -70 -50.5 -120t-119.5 -50h-115v119h115q49 0 49 51q0 49 -49 49h-182z" />
<glyph unicode="&#xb9;" horiz-adv-x="548" d="M49 1208v133h240v-1339h-131v1206h-109zM49 1415v133h449v-1546h-133v1413h-316z" />
<glyph unicode="&#xba;" horiz-adv-x="600" d="M57 1251v293h480v-696h-76q-166 0 -285 118.5t-119 284.5zM117 1251q0 -141 101 -242.5t243 -101.5h16v578h-360v-234zM152 1251v201h292v-510q-123 6 -207.5 96t-84.5 213zM211 1251q0 -82 48 -147.5t126 -91.5v379h-174v-140z" />
<glyph unicode="&#xbb;" horiz-adv-x="684" d="M27 457h166l243 317l-241 313h-166l241 -313zM252 457h166l244 317l-242 313h-166l242 -313z" />
<glyph unicode="&#xc0;" horiz-adv-x="1290" d="M49 604v131h264q-4 -53 -4 -84v-651h-133v604h-127zM49 811v131h176q94 270 327.5 437t520.5 167h170v-1546h-133v1413h-37q-270 0 -481 -170t-266 -432h-277zM385 0v651q0 31 4 84h645v-735h-131v604h-387v-604h-131zM403 811q55 221 228.5 366.5t402.5 159.5v-526h-631 zM600 942h303v238q-194 -60 -303 -238zM436 1772l450 -201l52 119l-449 198z" />
<glyph unicode="&#xc1;" horiz-adv-x="1290" d="M49 604v131h264q-4 -53 -4 -84v-651h-133v604h-127zM49 811v131h176q94 270 327.5 437t520.5 167h170v-1546h-133v1413h-37q-270 0 -481 -170t-266 -432h-277zM385 0v651q0 31 4 84h645v-735h-131v604h-387v-604h-131zM403 811q55 221 228.5 366.5t402.5 159.5v-526h-631 zM600 942h303v238q-194 -60 -303 -238zM850 1684l450 198l52 -116l-449 -201z" />
<glyph unicode="&#xc2;" horiz-adv-x="1290" d="M49 604v131h264q-4 -53 -4 -84v-651h-133v604h-127zM49 811v131h176q94 270 327.5 437t520.5 167h170v-1546h-133v1413h-37q-270 0 -481 -170t-266 -432h-277zM385 0v651q0 31 4 84h645v-735h-131v604h-387v-604h-131zM403 811q55 221 228.5 366.5t402.5 159.5v-526h-631 zM600 942h303v238q-194 -60 -303 -238zM667 1583l285 287l285 -287h-185l-100 101l-98 -101h-187z" />
<glyph unicode="&#xc3;" horiz-adv-x="1290" d="M49 604v131h264q-4 -53 -4 -84v-651h-133v604h-127zM49 811v131h176q94 270 327.5 437t520.5 167h170v-1546h-133v1413h-37q-270 0 -481 -170t-266 -432h-277zM385 0v651q0 31 4 84h645v-735h-131v604h-387v-604h-131zM403 811q55 221 228.5 366.5t402.5 159.5v-526h-631 zM600 942h303v238q-194 -60 -303 -238zM641 1595q10 119 89 168q47 31 102 31q33 0 61 -12l148 -60q25 -10 47 6.5t22 53.5h134q-10 -115 -88 -164q-47 -31 -103 -31q-33 0 -61 12l-148 60q-25 6 -47 -7.5t-22 -56.5h-134z" />
<glyph unicode="&#xc4;" horiz-adv-x="1290" d="M49 604v131h264q-4 -53 -4 -84v-651h-133v604h-127zM49 811v131h176q94 270 327.5 437t520.5 167h170v-1546h-133v1413h-37q-270 0 -481 -170t-266 -432h-277zM385 0v651q0 31 4 84h645v-735h-131v604h-387v-604h-131zM403 811q55 221 228.5 366.5t402.5 159.5v-526h-631 zM600 942h303v238q-194 -60 -303 -238zM823 1607v131h129v-131h-129zM1042 1607v131h131v-131h-131z" />
<glyph unicode="&#xc5;" horiz-adv-x="1290" d="M49 604v131h264q-4 -53 -4 -84v-651h-133v604h-127zM49 811v131h176q94 270 327.5 437t520.5 167h170v-1546h-133v1413h-37q-270 0 -481 -170t-266 -432h-277zM385 0v651q0 31 4 84h645v-735h-131v604h-387v-604h-131zM403 811q55 221 228.5 366.5t402.5 159.5v-526h-631 zM600 942h303v238q-194 -60 -303 -238zM1295 1805q0 -106 -76 -182.5t-182 -76.5t-182.5 76t-76.5 183q0 106 76 182t183 76q106 0 182 -76t76 -182zM1161 1805q0 51 -36.5 87.5t-87.5 36.5t-88 -35.5t-37 -88.5q0 -51 36.5 -88t88.5 -37q51 0 87.5 37t36.5 88z" />
<glyph unicode="&#xc6;" horiz-adv-x="1896" d="M49 567v131h242q-2 -16 -2 -698h-131v567h-109zM49 774v131h146q84 285 322.5 463t535.5 178h170v-194q248 195 555 194h77v-133h-77q-315 0 -539 -223q-92 -92 -147 -209v432h-39q-279 0 -494 -182t-260 -457h-250zM365 0v698h651v-567h839v-131h-972v567h-387v-567 h-131zM375 774q45 233 224 391t417 172v-563h-641zM559 905h324v275q-218 -70 -324 -275zM1092 207v491h518v-131h-387v-227h632v-133h-763zM1102 774q43 242 235.5 403.5t440.5 161.5h77v-133h-77q-154 0 -288 -83t-206 -218h326v-131h-508z" />
<glyph unicode="&#xc7;" horiz-adv-x="1058" d="M49 895v651h971v-133h-840v-518q0 -313 225.5 -538.5t538.5 -225.5h76v-131h-76q-371 0 -633 262t-262 633zM256 895v444h764v-133h-631v-311q0 -231 162 -393t393 -162h76v-133h-76q-285 0 -486.5 203.5t-201.5 484.5zM463 -193l157 287h135l-98 -168q66 -6 112 -54 t46 -114q0 -70 -50.5 -120t-119.5 -50h-115v119h115q49 0 49 51q0 49 -49 49h-182z" />
<glyph unicode="&#xc8;" horiz-adv-x="1062" d="M49 895v651h971v-133h-840v-518q0 -313 225.5 -538.5t538.5 -225.5h76v-131h-76q-371 0 -633 262t-262 633zM256 895v444h764v-133h-631v-227h387v-131h-518q-2 14 -2 47zM266 772h510v-133h-325q43 -78 100 -137q160 -162 393 -162h76v-133h-76q-283 0 -485 203 q-154 153 -193 362zM160 1772l450 -201l52 119l-449 198z" />
<glyph unicode="&#xc9;" horiz-adv-x="1062" d="M49 895v651h971v-133h-840v-518q0 -313 225.5 -538.5t538.5 -225.5h76v-131h-76q-371 0 -633 262t-262 633zM256 895v444h764v-133h-631v-227h387v-131h-518q-2 14 -2 47zM266 772h510v-133h-325q43 -78 100 -137q160 -162 393 -162h76v-133h-76q-283 0 -485 203 q-154 153 -193 362zM471 1696l450 198l52 -116l-449 -201z" />
<glyph unicode="&#xca;" horiz-adv-x="1062" d="M49 895v651h971v-133h-840v-518q0 -313 225.5 -538.5t538.5 -225.5h76v-131h-76q-371 0 -633 262t-262 633zM256 895v444h764v-133h-631v-227h387v-131h-518q-2 14 -2 47zM266 772h510v-133h-325q43 -78 100 -137q160 -162 393 -162h76v-133h-76q-283 0 -485 203 q-154 153 -193 362zM280 1583l285 287l285 -287h-185l-100 101l-98 -101h-187z" />
<glyph unicode="&#xcb;" horiz-adv-x="1062" d="M49 895v651h971v-133h-840v-518q0 -313 225.5 -538.5t538.5 -225.5h76v-131h-76q-371 0 -633 262t-262 633zM256 895v444h764v-133h-631v-227h387v-131h-518q-2 14 -2 47zM266 772h510v-133h-325q43 -78 100 -137q160 -162 393 -162h76v-133h-76q-283 0 -485 203 q-154 153 -193 362zM387 1595v131h129v-131h-129zM606 1595v131h131v-131h-131z" />
<glyph unicode="&#xcc;" horiz-adv-x="432" d="M49 0v1546h133v-1546h-133zM258 0v1546h131v-1546h-131zM-137 1782l450 -201l52 119l-449 198z" />
<glyph unicode="&#xcd;" horiz-adv-x="432" d="M49 0v1546h133v-1546h-133zM258 0v1546h131v-1546h-131zM78 1690l450 198l52 -116l-449 -201z" />
<glyph unicode="&#xce;" horiz-adv-x="432" d="M49 0v1546h133v-1546h-133zM258 0v1546h131v-1546h-131zM-62 1589l285 287l285 -287h-185l-100 101l-98 -101h-187z" />
<glyph unicode="&#xcf;" horiz-adv-x="432" d="M49 0v1546h133v-1546h-133zM258 0v1546h131v-1546h-131zM49 1616v131h129v-131h-129zM268 1616v131h131v-131h-131z" />
<glyph unicode="&#xd0;" horiz-adv-x="1306" d="M47 625v94h268v-588h39q313 0 538.5 225.5t225.5 538.5v518h-803v-657h-268v94h137v696h1065v-651q0 -369 -263 -632t-632 -263h-170v625h-137zM391 209v510h291v-94h-158v-258q174 55 279.5 200.5t105.5 327.5v311h-385v-356h158v-94h-291v583h651v-444 q0 -272 -190.5 -473t-460.5 -213z" />
<glyph unicode="&#xd1;" d="M49 0v1546h170q309 0 557 -194v194h131v-565q-92 197 -280.5 314.5t-407.5 117.5h-39v-1413h-131zM256 0v1337q272 -16 461.5 -213.5t189.5 -470.5v-653h-131v653q0 178 -108.5 325.5t-278.5 201.5v-1180h-133zM983 0v1546h131v-1546h-131zM313 1597q10 119 89 168 q47 31 102 31q33 0 61 -12l148 -60q25 -10 47 6.5t22 53.5h134q-10 -115 -88 -164q-47 -31 -103 -31q-33 0 -61 12l-148 60q-25 6 -47 -7.5t-22 -56.5h-134z" />
<glyph unicode="&#xd2;" d="M49 893v651h1065v-1546h-170q-371 0 -633 262t-262 633zM180 893q0 -313 225.5 -538.5t538.5 -225.5h39v1282h-803v-518zM256 893v444h651v-1130q-270 12 -460.5 213t-190.5 473zM389 893q0 -182 107.5 -327.5t279.5 -203.5v842h-387v-311zM191 1776l450 -201l52 119 l-449 198z" />
<glyph unicode="&#xd3;" d="M49 893v651h1065v-1546h-170q-371 0 -633 262t-262 633zM180 893q0 -313 225.5 -538.5t538.5 -225.5h39v1282h-803v-518zM256 893v444h651v-1130q-270 12 -460.5 213t-190.5 473zM389 893q0 -182 107.5 -327.5t279.5 -203.5v842h-387v-311zM524 1692l450 198l52 -116 l-449 -201z" />
<glyph unicode="&#xd4;" d="M49 893v651h1065v-1546h-170q-371 0 -633 262t-262 633zM180 893q0 -313 225.5 -538.5t538.5 -225.5h39v1282h-803v-518zM256 893v444h651v-1130q-270 12 -460.5 213t-190.5 473zM389 893q0 -182 107.5 -327.5t279.5 -203.5v842h-387v-311zM287 1597l285 287l285 -287 h-185l-100 101l-98 -101h-187z" />
<glyph unicode="&#xd5;" d="M49 893v651h1065v-1546h-170q-371 0 -633 262t-262 633zM180 893q0 -313 225.5 -538.5t538.5 -225.5h39v1282h-803v-518zM256 893v444h651v-1130q-270 12 -460.5 213t-190.5 473zM389 893q0 -182 107.5 -327.5t279.5 -203.5v842h-387v-311zM299 1595q10 119 89 168 q47 31 102 31q33 0 61 -12l148 -60q25 -10 47 6.5t22 53.5h134q-10 -115 -88 -164q-47 -31 -103 -31q-33 0 -61 12l-148 60q-25 6 -47 -7.5t-22 -56.5h-134z" />
<glyph unicode="&#xd6;" d="M49 893v651h1065v-1546h-170q-371 0 -633 262t-262 633zM180 893q0 -313 225.5 -538.5t538.5 -225.5h39v1282h-803v-518zM256 893v444h651v-1130q-270 12 -460.5 213t-190.5 473zM389 893q0 -182 107.5 -327.5t279.5 -203.5v842h-387v-311zM411 1607v131h129v-131h-129z M630 1607v131h131v-131h-131z" />
<glyph unicode="&#xd8;" horiz-adv-x="1171" d="M53 895v651h1065v-1546h-170q-287 0 -522 170l-92 -170h-107l189 350q223 -219 532 -219h39v1282h-803v-518q0 -297 203 -516l-203 -379h-108l180 330q-203 248 -203 565zM260 895v444h647l-481 -890q-166 196 -166 446zM393 895q0 -119 47 -223l289 534h-336v-311z M453 420l458 848v-1059q-260 12 -448 201zM588 473q86 -74 192 -106v458z" />
<glyph unicode="&#xd9;" horiz-adv-x="1167" d="M49 895v651h131v-651q0 -313 225.5 -538.5t538.5 -225.5h39v1415h131v-1546h-170q-369 0 -632 263t-263 632zM256 895v651h133v-651q0 -184 106.5 -329.5t280.5 -198.5v1179h131v-1337q-270 12 -460.5 213t-190.5 473zM129 1772l450 -201l52 119l-449 198z" />
<glyph unicode="&#xda;" horiz-adv-x="1167" d="M49 895v651h131v-651q0 -313 225.5 -538.5t538.5 -225.5h39v1415h131v-1546h-170q-369 0 -632 263t-263 632zM256 895v651h133v-651q0 -184 106.5 -329.5t280.5 -198.5v1179h131v-1337q-270 12 -460.5 213t-190.5 473zM522 1694l450 198l52 -116l-449 -201z" />
<glyph unicode="&#xdb;" horiz-adv-x="1167" d="M49 895v651h131v-651q0 -313 225.5 -538.5t538.5 -225.5h39v1415h131v-1546h-170q-369 0 -632 263t-263 632zM256 895v651h133v-651q0 -184 106.5 -329.5t280.5 -198.5v1179h131v-1337q-270 12 -460.5 213t-190.5 473zM299 1583l285 287l285 -287h-185l-100 101l-98 -101 h-187z" />
<glyph unicode="&#xdc;" horiz-adv-x="1167" d="M49 895v651h131v-651q0 -313 225.5 -538.5t538.5 -225.5h39v1415h131v-1546h-170q-369 0 -632 263t-263 632zM256 895v651h133v-651q0 -184 106.5 -329.5t280.5 -198.5v1179h131v-1337q-270 12 -460.5 213t-190.5 473zM409 1607v131h129v-131h-129zM628 1607v131h131 v-131h-131z" />
<glyph unicode="&#xdd;" horiz-adv-x="1099" d="M49 1399v147h133v-147q0 -158 56 -289q61 -147 102 -197q29 -37 172 -155v-758h-133v702q-113 113 -150 160q-68 84 -112 197q-68 168 -68 340zM258 1399v147h131v-147q0 -113 41 -211q45 -111 119 -180q80 80 121 180q39 94 39 211v147h133v-147q0 -133 -52.5 -262 t-87.5 -174q-31 -37 -153 -138l-17 17q-96 94 -126 133q-61 74 -99 164q-49 117 -49 260zM588 0v758q137 115 170 155q43 53 101.5 194.5t58.5 291.5v147h131v-147q0 -182 -66 -340q-57 -139 -102 -201q-51 -72 -162 -156v-702h-131zM498 1686l450 198l52 -116l-449 -201z " />
<glyph unicode="&#xde;" d="M49 0v1546h131v-1546h-131zM256 0v375q303 12 515 234t212 526v36h-727v375h133v-241h725v-170q0 -319 -206 -569.5t-519 -307.5v-258h-133zM256 449v649h649q-12 -260 -199.5 -446.5t-449.5 -202.5zM389 606q274 94 359 359h-359v-359z" />
<glyph unicode="&#xdf;" horiz-adv-x="2039" d="M49 602l33 199q53 322 304 533.5t579 211.5h114v-133h-114q-279 0 -489 -175t-263 -460l-8 -43h770q-55 -231 -241.5 -379.5t-426.5 -148.5h-114v133h114q203 0 357 129q63 53 116 133h-731zM193 0v131h114q268 0 479 171t267 433h696q-55 -231 -243.5 -379.5 t-426.5 -148.5h-114v82q-37 -39 -82 -78q-250 -211 -576 -211h-114zM295 811q55 229 244.5 378.5t425.5 149.5h114v-84q33 39 82 80q250 211 576 211h114v-133h-114q-281 0 -492 -178q-197 -166 -254 -424h-696zM492 942h399q53 147 145 264h-71q-143 0 -271 -71.5 t-202 -192.5zM965 0v131h114q279 0 492 180q225 193 262 455l6 45h-770q55 229 243.5 378.5t424.5 149.5h114v-133h-114q-143 0 -269.5 -70.5t-203.5 -193.5h731l-33 -199q-53 -322 -305 -532.5t-578 -210.5h-114zM1008 340h71q309 0 473 262h-399q-51 -143 -145 -262z" />
<glyph unicode="&#xe0;" horiz-adv-x="1290" d="M49 604v131h264q-4 -53 -4 -84v-651h-133v604h-127zM49 811v131h176q94 270 327.5 437t520.5 167h170v-1546h-133v1413h-37q-270 0 -481 -170t-266 -432h-277zM385 0v651q0 31 4 84h645v-735h-131v604h-387v-604h-131zM403 811q55 221 228.5 366.5t402.5 159.5v-526h-631 zM600 942h303v238q-194 -60 -303 -238zM334 1772l450 -201l52 119l-449 198z" />
<glyph unicode="&#xe1;" horiz-adv-x="1290" d="M49 604v131h264q-4 -53 -4 -84v-651h-133v604h-127zM49 811v131h176q94 270 327.5 437t520.5 167h170v-1546h-133v1413h-37q-270 0 -481 -170t-266 -432h-277zM385 0v651q0 31 4 84h645v-735h-131v604h-387v-604h-131zM403 811q55 221 228.5 366.5t402.5 159.5v-526h-631 zM600 942h303v238q-194 -60 -303 -238zM795 1690l450 198l52 -116l-449 -201z" />
<glyph unicode="&#xe2;" horiz-adv-x="1290" d="M49 604v131h264q-4 -53 -4 -84v-651h-133v604h-127zM49 811v131h176q94 270 327.5 437t520.5 167h170v-1546h-133v1413h-37q-270 0 -481 -170t-266 -432h-277zM385 0v651q0 31 4 84h645v-735h-131v604h-387v-604h-131zM403 811q55 221 228.5 366.5t402.5 159.5v-526h-631 zM600 942h303v238q-194 -60 -303 -238zM672 1585l285 287l285 -287h-185l-100 101l-98 -101h-187z" />
<glyph unicode="&#xe3;" horiz-adv-x="1290" d="M49 604v131h264q-4 -53 -4 -84v-651h-133v604h-127zM49 811v131h176q94 270 327.5 437t520.5 167h170v-1546h-133v1413h-37q-270 0 -481 -170t-266 -432h-277zM385 0v651q0 31 4 84h645v-735h-131v604h-387v-604h-131zM403 811q55 221 228.5 366.5t402.5 159.5v-526h-631 zM600 942h303v238q-194 -60 -303 -238zM638 1597q10 119 89 168q47 31 102 31q33 0 61 -12l148 -60q25 -10 47 6.5t22 53.5h134q-10 -115 -88 -164q-47 -31 -103 -31q-33 0 -61 12l-148 60q-25 6 -47 -7.5t-22 -56.5h-134z" />
<glyph unicode="&#xe4;" horiz-adv-x="1290" d="M49 604v131h264q-4 -53 -4 -84v-651h-133v604h-127zM49 811v131h176q94 270 327.5 437t520.5 167h170v-1546h-133v1413h-37q-270 0 -481 -170t-266 -432h-277zM385 0v651q0 31 4 84h645v-735h-131v604h-387v-604h-131zM403 811q55 221 228.5 366.5t402.5 159.5v-526h-631 zM600 942h303v238q-194 -60 -303 -238zM827 1603v131h129v-131h-129zM1046 1603v131h131v-131h-131z" />
<glyph unicode="&#xe5;" horiz-adv-x="1290" d="M49 604v131h264q-4 -53 -4 -84v-651h-133v604h-127zM49 811v131h176q94 270 327.5 437t520.5 167h170v-1546h-133v1413h-37q-270 0 -481 -170t-266 -432h-277zM385 0v651q0 31 4 84h645v-735h-131v604h-387v-604h-131zM403 811q55 221 228.5 366.5t402.5 159.5v-526h-631 zM600 942h303v238q-194 -60 -303 -238zM1282 1809q0 -106 -76 -182.5t-182 -76.5t-182.5 76t-76.5 183q0 106 76 182t183 76q106 0 182 -76t76 -182zM1148 1809q0 51 -36.5 87.5t-87.5 36.5t-88 -35.5t-37 -88.5q0 -51 36.5 -88t88.5 -37q51 0 87.5 37t36.5 88z" />
<glyph unicode="&#xe6;" horiz-adv-x="1896" d="M49 567v131h242q-2 -16 -2 -698h-131v567h-109zM49 774v131h146q84 285 322.5 463t535.5 178h170v-194q248 195 555 194h77v-133h-77q-315 0 -539 -223q-92 -92 -147 -209v432h-39q-279 0 -494 -182t-260 -457h-250zM365 0v698h651v-567h839v-131h-972v567h-387v-567 h-131zM375 774q45 233 224 391t417 172v-563h-641zM559 905h324v275q-218 -70 -324 -275zM1092 207v491h518v-131h-387v-227h632v-133h-763zM1102 774q43 242 235.5 403.5t440.5 161.5h77v-133h-77q-154 0 -288 -83t-206 -218h326v-131h-508z" />
<glyph unicode="&#xe7;" horiz-adv-x="1058" d="M49 895v651h971v-133h-840v-518q0 -313 225.5 -538.5t538.5 -225.5h76v-131h-76q-371 0 -633 262t-262 633zM256 895v444h764v-133h-631v-311q0 -231 162 -393t393 -162h76v-133h-76q-285 0 -486.5 203.5t-201.5 484.5zM519 -199l157 287h135l-98 -168q66 -6 112 -54 t46 -114q0 -70 -50.5 -120t-119.5 -50h-115v119h115q49 0 49 51q0 49 -49 49h-182z" />
<glyph unicode="&#xe8;" horiz-adv-x="1062" d="M49 895v651h971v-133h-840v-518q0 -313 225.5 -538.5t538.5 -225.5h76v-131h-76q-371 0 -633 262t-262 633zM256 895v444h764v-133h-631v-227h387v-131h-518q-2 14 -2 47zM266 772h510v-133h-325q43 -78 100 -137q160 -162 393 -162h76v-133h-76q-283 0 -485 203 q-154 153 -193 362zM160 1772l450 -201l52 119l-449 198z" />
<glyph unicode="&#xe9;" horiz-adv-x="1062" d="M49 895v651h971v-133h-840v-518q0 -313 225.5 -538.5t538.5 -225.5h76v-131h-76q-371 0 -633 262t-262 633zM256 895v444h764v-133h-631v-227h387v-131h-518q-2 14 -2 47zM266 772h510v-133h-325q43 -78 100 -137q160 -162 393 -162h76v-133h-76q-283 0 -485 203 q-154 153 -193 362zM508 1686l450 198l52 -116l-449 -201z" />
<glyph unicode="&#xea;" horiz-adv-x="1062" d="M49 895v651h971v-133h-840v-518q0 -313 225.5 -538.5t538.5 -225.5h76v-131h-76q-371 0 -633 262t-262 633zM256 895v444h764v-133h-631v-227h387v-131h-518q-2 14 -2 47zM266 772h510v-133h-325q43 -78 100 -137q160 -162 393 -162h76v-133h-76q-283 0 -485 203 q-154 153 -193 362zM256 1587l285 287l285 -287h-185l-100 101l-98 -101h-187z" />
<glyph unicode="&#xeb;" horiz-adv-x="1062" d="M49 895v651h971v-133h-840v-518q0 -313 225.5 -538.5t538.5 -225.5h76v-131h-76q-371 0 -633 262t-262 633zM256 895v444h764v-133h-631v-227h387v-131h-518q-2 14 -2 47zM266 772h510v-133h-325q43 -78 100 -137q160 -162 393 -162h76v-133h-76q-283 0 -485 203 q-154 153 -193 362zM383 1595v131h129v-131h-129zM602 1595v131h131v-131h-131z" />
<glyph unicode="&#xec;" horiz-adv-x="432" d="M49 0v1546h133v-1546h-133zM258 0v1546h131v-1546h-131zM-86 1772l450 -201l52 119l-449 198z" />
<glyph unicode="&#xed;" horiz-adv-x="432" d="M49 0v1546h133v-1546h-133zM258 0v1546h131v-1546h-131zM78 1690l450 198l52 -116l-449 -201z" />
<glyph unicode="&#xee;" horiz-adv-x="432" d="M49 0v1546h133v-1546h-133zM258 0v1546h131v-1546h-131zM-62 1589l285 287l285 -287h-185l-100 101l-98 -101h-187z" />
<glyph unicode="&#xef;" horiz-adv-x="432" d="M49 0v1546h133v-1546h-133zM258 0v1546h131v-1546h-131zM49 1620v131h129v-131h-129zM268 1620v131h131v-131h-131z" />
<glyph unicode="&#xf0;" horiz-adv-x="1306" d="M47 625v94h268v-588h39q313 0 538.5 225.5t225.5 538.5v518h-803v-657h-268v94h137v696h1065v-651q0 -369 -263 -632t-632 -263h-170v625h-137zM391 209v510h291v-94h-158v-258q174 55 279.5 200.5t105.5 327.5v311h-385v-356h158v-94h-291v583h651v-444 q0 -272 -190.5 -473t-460.5 -213z" />
<glyph unicode="&#xf1;" d="M49 0v1546h170q309 0 557 -194v194h131v-565q-92 197 -280.5 314.5t-407.5 117.5h-39v-1413h-131zM256 0v1337q272 -16 461.5 -213.5t189.5 -470.5v-653h-131v653q0 178 -108.5 325.5t-278.5 201.5v-1180h-133zM983 0v1546h131v-1546h-131zM311 1595q10 119 89 168 q47 31 102 31q33 0 61 -12l148 -60q25 -10 47 6.5t22 53.5h134q-10 -115 -88 -164q-47 -31 -103 -31q-33 0 -61 12l-148 60q-25 6 -47 -7.5t-22 -56.5h-134z" />
<glyph unicode="&#xf2;" d="M49 893v651h1065v-1546h-170q-371 0 -633 262t-262 633zM180 893q0 -313 225.5 -538.5t538.5 -225.5h39v1282h-803v-518zM256 893v444h651v-1130q-270 12 -460.5 213t-190.5 473zM389 893q0 -182 107.5 -327.5t279.5 -203.5v842h-387v-311zM180 1772l450 -201l52 119 l-449 198z" />
<glyph unicode="&#xf3;" d="M49 893v651h1065v-1546h-170q-371 0 -633 262t-262 633zM180 893q0 -313 225.5 -538.5t538.5 -225.5h39v1282h-803v-518zM256 893v444h651v-1130q-270 12 -460.5 213t-190.5 473zM389 893q0 -182 107.5 -327.5t279.5 -203.5v842h-387v-311zM551 1688l450 198l52 -116 l-449 -201z" />
<glyph unicode="&#xf4;" d="M49 893v651h1065v-1546h-170q-371 0 -633 262t-262 633zM180 893q0 -313 225.5 -538.5t538.5 -225.5h39v1282h-803v-518zM256 893v444h651v-1130q-270 12 -460.5 213t-190.5 473zM389 893q0 -182 107.5 -327.5t279.5 -203.5v842h-387v-311zM295 1597l285 287l285 -287 h-185l-100 101l-98 -101h-187z" />
<glyph unicode="&#xf5;" d="M49 893v651h1065v-1546h-170q-371 0 -633 262t-262 633zM180 893q0 -313 225.5 -538.5t538.5 -225.5h39v1282h-803v-518zM256 893v444h651v-1130q-270 12 -460.5 213t-190.5 473zM389 893q0 -182 107.5 -327.5t279.5 -203.5v842h-387v-311zM319 1597q10 119 89 168 q47 31 102 31q33 0 61 -12l148 -60q25 -10 47 6.5t22 53.5h134q-10 -115 -88 -164q-47 -31 -103 -31q-33 0 -61 12l-148 60q-25 6 -47 -7.5t-22 -56.5h-134z" />
<glyph unicode="&#xf6;" d="M49 893v651h1065v-1546h-170q-371 0 -633 262t-262 633zM180 893q0 -313 225.5 -538.5t538.5 -225.5h39v1282h-803v-518zM256 893v444h651v-1130q-270 12 -460.5 213t-190.5 473zM389 893q0 -182 107.5 -327.5t279.5 -203.5v842h-387v-311zM407 1603v131h129v-131h-129z M626 1603v131h131v-131h-131z" />
<glyph unicode="&#xf8;" horiz-adv-x="1171" d="M53 895v651h1065v-1546h-170q-287 0 -522 170l-92 -170h-107l189 350q223 -219 532 -219h39v1282h-803v-518q0 -297 203 -516l-203 -379h-108l180 330q-203 248 -203 565zM260 895v444h647l-481 -890q-166 196 -166 446zM393 895q0 -119 47 -223l289 534h-336v-311z M453 420l458 848v-1059q-260 12 -448 201zM588 473q86 -74 192 -106v458z" />
<glyph unicode="&#xf9;" horiz-adv-x="1167" d="M49 895v651h131v-651q0 -313 225.5 -538.5t538.5 -225.5h39v1415h131v-1546h-170q-369 0 -632 263t-263 632zM256 895v651h133v-651q0 -184 106.5 -329.5t280.5 -198.5v1179h131v-1337q-270 12 -460.5 213t-190.5 473zM160 1772l450 -201l52 119l-449 198z" />
<glyph unicode="&#xfa;" horiz-adv-x="1167" d="M49 895v651h131v-651q0 -313 225.5 -538.5t538.5 -225.5h39v1415h131v-1546h-170q-369 0 -632 263t-263 632zM256 895v651h133v-651q0 -184 106.5 -329.5t280.5 -198.5v1179h131v-1337q-270 12 -460.5 213t-190.5 473zM537 1686l450 198l52 -116l-449 -201z" />
<glyph unicode="&#xfb;" horiz-adv-x="1167" d="M49 895v651h131v-651q0 -313 225.5 -538.5t538.5 -225.5h39v1415h131v-1546h-170q-369 0 -632 263t-263 632zM256 895v651h133v-651q0 -184 106.5 -329.5t280.5 -198.5v1179h131v-1337q-270 12 -460.5 213t-190.5 473zM299 1587l285 287l285 -287h-185l-100 101l-98 -101 h-187z" />
<glyph unicode="&#xfc;" horiz-adv-x="1167" d="M49 895v651h131v-651q0 -313 225.5 -538.5t538.5 -225.5h39v1415h131v-1546h-170q-369 0 -632 263t-263 632zM256 895v651h133v-651q0 -184 106.5 -329.5t280.5 -198.5v1179h131v-1337q-270 12 -460.5 213t-190.5 473zM409 1614v131h129v-131h-129zM628 1614v131h131 v-131h-131z" />
<glyph unicode="&#xfd;" horiz-adv-x="1099" d="M49 1399v147h133v-147q0 -158 56 -289q61 -147 102 -197q29 -37 172 -155v-758h-133v702q-113 113 -150 160q-68 84 -112 197q-68 168 -68 340zM258 1399v147h131v-147q0 -113 41 -211q45 -111 119 -180q80 80 121 180q39 94 39 211v147h133v-147q0 -133 -52.5 -262 t-87.5 -174q-31 -37 -153 -138l-17 17q-96 94 -126 133q-61 74 -99 164q-49 117 -49 260zM588 0v758q137 115 170 155q43 53 101.5 194.5t58.5 291.5v147h131v-147q0 -182 -66 -340q-57 -139 -102 -201q-51 -72 -162 -156v-702h-131zM506 1688l450 198l52 -116l-449 -201z " />
<glyph unicode="&#xfe;" d="M49 0v1546h131v-1546h-131zM256 0v375q303 12 515 234t212 526v36h-727v375h133v-241h725v-170q0 -319 -206 -569.5t-519 -307.5v-258h-133zM256 449v649h649q-12 -260 -199.5 -446.5t-449.5 -202.5zM389 606q274 94 359 359h-359v-359z" />
<glyph unicode="&#xff;" horiz-adv-x="1099" d="M49 1399v147h133v-147q0 -158 56 -289q61 -147 102 -197q29 -37 172 -155v-758h-133v702q-113 113 -150 160q-68 84 -112 197q-68 168 -68 340zM258 1399v147h131v-147q0 -113 41 -211q45 -111 119 -180q80 80 121 180q39 94 39 211v147h133v-147q0 -133 -52.5 -262 t-87.5 -174q-31 -37 -153 -138l-17 17q-96 94 -126 133q-61 74 -99 164q-49 117 -49 260zM588 0v758q137 115 170 155q43 53 101.5 194.5t58.5 291.5v147h131v-147q0 -182 -66 -340q-57 -139 -102 -201q-51 -72 -162 -156v-702h-131zM375 1612v131h129v-131h-129zM594 1612 v131h131v-131h-131z" />
<glyph unicode="&#x152;" horiz-adv-x="1777" d="M49 0v1546h1065v-178q242 178 537 178h75v-133h-75q-317 0 -539 -223q-80 -82 -129 -170v393h-803v-1282h39q205 0 387 107.5t281 287.5v-395h839v-131h-970v178q-240 -178 -537 -178h-170zM256 209v1130h651v-444q0 -272 -190.5 -473t-460.5 -213zM389 367 q172 55 278.5 200.5t106.5 327.5v311h-385v-839zM963 207v444q0 31 2 47h518v-131h-389v-227h632v-133h-763zM973 774q47 244 238.5 404.5t439.5 160.5h75v-133h-75q-156 0 -289 -82t-205 -219h326v-131h-510z" />
<glyph unicode="&#x153;" horiz-adv-x="1777" d="M49 0v1546h1065v-178q242 178 537 178h75v-133h-75q-317 0 -539 -223q-80 -82 -129 -170v393h-803v-1282h39q205 0 387 107.5t281 287.5v-395h839v-131h-970v178q-240 -178 -537 -178h-170zM256 209v1130h651v-444q0 -272 -190.5 -473t-460.5 -213zM389 367 q172 55 278.5 200.5t106.5 327.5v311h-385v-839zM963 207v444q0 31 2 47h518v-131h-389v-227h632v-133h-763zM973 774q47 244 238.5 404.5t439.5 160.5h75v-133h-75q-156 0 -289 -82t-205 -219h326v-131h-510z" />
<glyph unicode="&#x178;" horiz-adv-x="1099" d="M49 1399v147h133v-147q0 -158 56 -289q61 -147 102 -197q29 -37 172 -155v-758h-133v702q-113 113 -150 160q-68 84 -112 197q-68 168 -68 340zM258 1399v147h131v-147q0 -113 41 -211q45 -111 119 -180q80 80 121 180q39 94 39 211v147h133v-147q0 -133 -52.5 -262 t-87.5 -174q-31 -37 -153 -138l-17 17q-96 94 -126 133q-61 74 -99 164q-49 117 -49 260zM588 0v758q137 115 170 155q43 53 101.5 194.5t58.5 291.5v147h131v-147q0 -182 -66 -340q-57 -139 -102 -201q-51 -72 -162 -156v-702h-131zM387 1601v131h129v-131h-129zM606 1601 v131h131v-131h-131z" />
<glyph unicode="&#x2c6;" horiz-adv-x="681" d="M51 1589l285 287l285 -287h-185l-100 101l-98 -101h-187z" />
<glyph unicode="&#x2da;" horiz-adv-x="630" d="M580 1815q0 -106 -76 -182.5t-182 -76.5t-182.5 76t-76.5 183q0 106 76 182t183 76q106 0 182 -76t76 -182zM446 1815q0 51 -36.5 87.5t-87.5 36.5t-88 -35.5t-37 -88.5q0 -51 36.5 -88t88.5 -37q51 0 87.5 37t36.5 88z" />
<glyph unicode="&#x2dc;" horiz-adv-x="712" d="M63 1589q10 119 89 168q47 31 102 31q33 0 61 -12l148 -60q25 -10 47 6.5t22 53.5h134q-10 -115 -88 -164q-47 -31 -103 -31q-33 0 -61 12l-148 60q-25 6 -47 -7.5t-22 -56.5h-134z" />
<glyph unicode="&#x2000;" horiz-adv-x="1036" />
<glyph unicode="&#x2001;" horiz-adv-x="2072" />
<glyph unicode="&#x2002;" horiz-adv-x="1036" />
<glyph unicode="&#x2003;" horiz-adv-x="2072" />
<glyph unicode="&#x2004;" horiz-adv-x="690" />
<glyph unicode="&#x2005;" horiz-adv-x="518" />
<glyph unicode="&#x2006;" horiz-adv-x="344" />
<glyph unicode="&#x2007;" horiz-adv-x="344" />
<glyph unicode="&#x2008;" horiz-adv-x="258" />
<glyph unicode="&#x2009;" horiz-adv-x="413" />
<glyph unicode="&#x200a;" horiz-adv-x="114" />
<glyph unicode="&#x2010;" horiz-adv-x="487" d="M49 598v133h389v-133h-389zM49 807v131h389v-131h-389z" />
<glyph unicode="&#x2011;" horiz-adv-x="487" d="M49 598v133h389v-133h-389zM49 807v131h389v-131h-389z" />
<glyph unicode="&#x2012;" horiz-adv-x="487" d="M49 598v133h389v-133h-389zM49 807v131h389v-131h-389z" />
<glyph unicode="&#x2013;" horiz-adv-x="1024" d="M49 598v133h942v-133h-942zM49 807v131h942v-131h-942z" />
<glyph unicode="&#x2014;" horiz-adv-x="2048" d="M49 598v133h1946v-133h-1946zM49 807v131h1946v-131h-1946z" />
<glyph unicode="&#x2018;" horiz-adv-x="325" d="M47 1196l94 412h133v-412h-227z" />
<glyph unicode="&#x2019;" horiz-adv-x="325" d="M49 1178v411h227l-94 -411h-133z" />
<glyph unicode="&#x201a;" horiz-adv-x="325" d="M49 -154v412h227l-94 -412h-133z" />
<glyph unicode="&#x201c;" horiz-adv-x="589" d="M47 1196l94 412h133v-412h-227zM313 1196l95 412h133v-412h-228z" />
<glyph unicode="&#x201d;" horiz-adv-x="591" d="M49 1178v411h227l-94 -411h-133zM315 1178v411h228l-94 -411h-134z" />
<glyph unicode="&#x201e;" horiz-adv-x="589" d="M49 -154v412h227l-94 -412h-133zM315 -154v412h228l-94 -412h-134z" />
<glyph unicode="&#x2022;" horiz-adv-x="688" d="M49 772q0 113 75 196t183 97v-584q-111 14 -184.5 97t-73.5 194zM381 481v584q109 -14 183.5 -97t74.5 -196q0 -111 -73.5 -194t-184.5 -97z" />
<glyph unicode="&#x2026;" horiz-adv-x="1429" d="M49 0v266h133v-266h-133zM258 0v266h131v-266h-131zM541 0v266h133v-266h-133zM750 0v266h131v-266h-131zM1032 0v266h133v-266h-133zM1241 0v266h131v-266h-131z" />
<glyph unicode="&#x202f;" horiz-adv-x="413" />
<glyph unicode="&#x2039;" horiz-adv-x="458" d="M27 774l241 313h166l-241 -313l243 -317h-166z" />
<glyph unicode="&#x203a;" horiz-adv-x="458" d="M27 457h166l243 317l-241 313h-166l241 -313z" />
<glyph unicode="&#x205f;" horiz-adv-x="518" />
<glyph unicode="&#x2122;" horiz-adv-x="2471" d="M979 0v1546h170q305 0 553 -192q248 193 553 192h170v-1546h-131v1413h-39q-330 0 -553 -237q-223 238 -553 237h-37v-1413h-133zM1188 0v1337q131 -6 250 -61q141 -66 235 -180l29 -35l29 35q188 227 487 241v-1337h-133v1180q-31 -8 -63 -25q-111 -51 -191 -145 l-129 -152l-129 152q-80 94 -190 145q-37 18 -64 25v-1180h-131zM49 1206v133h379v-1339h-133v1206h-246zM49 1415v131h832v-131h-832zM502 0v1339h379v-133h-246v-1206h-133z" />
<glyph unicode="&#xe000;" horiz-adv-x="1545" d="M0 1545h1545v-1545h-1545v1545z" />
<glyph unicode="&#xfb01;" horiz-adv-x="1511" d="M1122 0v1546h133v-1546h-133zM1331 0v1546h131v-1546h-131zM49 0v651q0 369 264.5 632t632.5 263h78v-133h-78q-319 0 -541.5 -224t-222.5 -538v-651h-133zM256 0v651q0 8 2 25v22h520v-131h-389v-567h-133zM268 774q43 244 236.5 404.5t441.5 160.5h78v-133h-78 q-154 0 -289 -82t-206 -219h327v-131h-510z" />
<glyph unicode="&#xfb02;" horiz-adv-x="2007" d="M1122 0v1546h133v-1415h703v-131h-836zM1331 207v1339h131v-1206h496v-133h-627zM49 0v651q0 369 264.5 632t632.5 263h78v-133h-78q-319 0 -541.5 -224t-222.5 -538v-651h-133zM256 0v651q0 8 2 25v22h520v-131h-389v-567h-133zM268 774q43 244 236.5 404.5t441.5 160.5 h78v-133h-78q-154 0 -289 -82t-206 -219h327v-131h-510z" />
<glyph unicode="&#xfb03;" horiz-adv-x="2584" d="M2195 0v1546h133v-1546h-133zM2404 0v1546h131v-1546h-131zM1122 0v651q0 369 264.5 632t632.5 263h78v-133h-78q-319 0 -541.5 -224t-222.5 -538v-651h-133zM1329 0v651q0 8 2 25v22h520v-131h-389v-567h-133zM1341 774q43 244 236.5 404.5t441.5 160.5h78v-133h-78 q-154 0 -289 -82t-206 -219h327v-131h-510zM49 0v651q0 369 264.5 632t632.5 263h78v-133h-78q-319 0 -541.5 -224t-222.5 -538v-651h-133zM256 0v651q0 8 2 25v22h520v-131h-389v-567h-133zM268 774q43 244 236.5 404.5t441.5 160.5h78v-133h-78q-154 0 -289 -82t-206 -219 h327v-131h-510z" />
<glyph unicode="&#xfb04;" horiz-adv-x="3080" d="M2195 0v1546h133v-1415h703v-131h-836zM2404 207v1339h131v-1206h496v-133h-627zM1122 0v651q0 369 264.5 632t632.5 263h78v-133h-78q-319 0 -541.5 -224t-222.5 -538v-651h-133zM1329 0v651q0 8 2 25v22h520v-131h-389v-567h-133zM1341 774q43 244 236.5 404.5 t441.5 160.5h78v-133h-78q-154 0 -289 -82t-206 -219h327v-131h-510zM49 0v651q0 369 264.5 632t632.5 263h78v-133h-78q-319 0 -541.5 -224t-222.5 -538v-651h-133zM256 0v651q0 8 2 25v22h520v-131h-389v-567h-133zM268 774q43 244 236.5 404.5t441.5 160.5h78v-133h-78 q-154 0 -289 -82t-206 -219h327v-131h-510z" />
</font>
</defs>
</svg>
