<?xml version="1.0" standalone="no"?>
<!DOCTYPE svg PUBLIC "-//W3C//DTD SVG 1.1//EN" "http://www.w3.org/Graphics/SVG/1.1/DTD/svg11.dtd" >
<svg xmlns="http://www.w3.org/2000/svg">
<metadata>
This is a custom SVG webfont generated by Font Squirrel.
Copyright   : Copyright c 2011 Jovanny Lemonad lemonadjovannyru with Reserved Font Name Nixie
Designer    : Jovanny Lemonad
Foundry     : Jovanny Lemonad
Foundry URL : httpjovannyru
</metadata>
<defs>
<font id="NixieOneRegular" horiz-adv-x="1171" >
<font-face units-per-em="2048" ascent="1638" descent="-410" />
<missing-glyph horiz-adv-x="573" />
<glyph unicode=" "  horiz-adv-x="573" />
<glyph unicode="&#x09;" horiz-adv-x="573" />
<glyph unicode="&#xa0;" horiz-adv-x="573" />
<glyph unicode="!" horiz-adv-x="548" d="M163.5 82q0.5 47 26.5 74q29 29 76 28.5t74 -28.5q29 -27 29 -74t-29 -76q-27 -27 -74 -27t-76 27q-27 29 -26.5 76zM236 379v1024q0 31 30.5 31t30.5 -31v-1024q0 -31 -30.5 -31t-30.5 31z" />
<glyph unicode="&#x22;" horiz-adv-x="643" d="M158 973v430q0 31 30.5 31t30.5 -31v-430q0 -31 -30.5 -31t-30.5 31zM424 973v430q0 31 30.5 31t30.5 -31v-430q0 -31 -30.5 -31t-30.5 31z" />
<glyph unicode="#" horiz-adv-x="1556" d="M73 422q0 31 31 31h299l134 528h-293q-31 0 -31 30.5t31 30.5h307l92 367q8 25 29 25q6 0 8 -2q31 -6 22 -37l-88 -353h490l92 367q8 25 29 25q6 0 8 -2q31 -6 22 -37l-88 -353h285q31 0 31 -30.5t-31 -30.5h-301l-131 -528h293q31 0 30.5 -31t-30.5 -31h-309l-91 -366 q-8 -25 -28 -25q-6 0 -8 2q-31 6 -23 37l88 352h-491l-91 -366q-8 -25 -28 -25q-6 0 -8 2q-31 6 -23 37l88 352h-285q-31 0 -31 31zM467 453h489l134 528h-492z" />
<glyph unicode="$" horiz-adv-x="1277" d="M123 31v389q0 31 30.5 31t30.5 -31v-154q55 -63 131 -112q68 -45 158 -78q57 -20 133 -31v664l-147 43q-76 25 -152 61q-184 90 -184 283q0 156 112.5 257t358.5 101h12v113q0 31 31 30.5t31 -30.5v-117q47 -8 75 -14q166 -43 299 -156q33 -29 33 20v103q0 31 31 31 t31 -31v-389q0 -31 -31 -31t-31 31v143q-55 65 -129 117q-61 43 -153 82q-55 23 -125 33v-625l14 -4q229 -61 322 -109q184 -90 184 -282q0 -174 -131 -281.5t-371 -107.5h-18v-113q0 -31 -31 -31t-31 31v117q-31 2 -84 14q-172 43 -305 156q-33 29 -33 -21v-102 q0 -31 -30.5 -31t-30.5 31zM184 1096q0 -154 178 -234q70 -30 150 -55q72 -18 94 -27v613h-12q-207 0 -308.5 -85t-101.5 -212zM668 41h18q215 0 327.5 91t112.5 237q0 154 -178 233q-72 33 -151 53l-129 37v-651z" />
<glyph unicode="%" horiz-adv-x="1605" d="M76 1105.5q0 145.5 96 248.5q94 100 241.5 100t241.5 -100q96 -102 96.5 -247.5t-96.5 -248.5q-94 -100 -241.5 -100t-241.5 100q-96 102 -96 247.5zM137 1106q0 -123 80 -205t196.5 -82t196.5 82t80 205t-80 205t-196.5 82t-196.5 -82t-80 -205zM324 29q0 10 8 18 l887 1370q8 14 24 15q4 0 17 -5q27 -20 8 -41l-885 -1372q-16 -23 -41 -10q-18 9 -18 25zM854 327.5q0 145.5 96 247.5q94 100 241.5 100.5t242.5 -100.5q96 -102 96 -247.5t-96 -247.5q-94 -100 -242 -100t-242 100q-96 102 -96 247.5zM915 328q0 -123 80 -205t197 -82 t197 82q80 84 79 205q0 123 -79.5 204.5t-196.5 81.5t-197 -81.5t-80 -204.5z" />
<glyph unicode="&#x26;" horiz-adv-x="1431" d="M92 348q0 154 104.5 258.5t297.5 149.5q31 8 2 43q-84 98 -126 179t-42 169q0 141 98 224t270 83q113 0 207 -54t150 -143q16 -23 -15 -38q-22 -15 -43 12q-129 162 -299 162q-139 0 -223 -70t-84 -176q0 -133 156 -307l434 -492q18 -20 33 0l241 365q18 22 43 6 q28 -15 7 -43l-248 -371q-16 -25 4 -45l147 -168q27 -31 51 -31h136q31 0 30.5 -30.5t-30.5 -30.5h-164q-25 0 -53 31l-154 174q-22 22 -37 0q-195 -246 -493 -246q-174 0 -287 106.5t-113 282.5zM154 348q0 -145 94 -237q96 -90 244 -91q267 0 448 228q12 14 12 26 q0 10 -10 21l-356 401q-8 14 -31 15l-20 -4q-381 -101 -381 -359z" />
<glyph unicode="'" horiz-adv-x="376" d="M158 973v430q0 31 30.5 31t30.5 -31v-430q0 -31 -30.5 -31t-30.5 31z" />
<glyph unicode="(" horiz-adv-x="575" d="M156 532v205q0 262 75.5 483.5t190.5 360.5q23 25 45 8q25 -23 6 -41q-117 -141 -186.5 -351t-69.5 -460v-205q0 -250 70.5 -462.5t185.5 -348.5q18 -18 -6 -40q-23 -16 -45 8q-115 139 -190.5 360t-75.5 483z" />
<glyph unicode=")" horiz-adv-x="575" d="M94 -295q0 8 8 16q115 135 185.5 348.5t70.5 462.5v205q0 250 -69.5 460t-186.5 351q-8 8 -8 17q0 12 15 24q9 6 18 6l27 -14q115 -139 190.5 -360.5t75.5 -483.5v-205q0 -262 -76 -483t-190 -360q-14 -14 -27 -15l-18 7q-14 12 -15 24z" />
<glyph unicode="*" horiz-adv-x="917" d="M137 938q0 15 19 25l219 124q10 4 10 13.5t-10 15.5l-219 125q-18 9 -19 25q0 9 6 18q14 27 43 10l209 -123q33 -18 33 17v215q0 31 30.5 31t30.5 -31v-215q0 -35 33 -17l209 123q29 16 43 -10q6 -9 6 -18q0 -15 -18 -25l-219 -125q-10 -6 -10.5 -15t10.5 -14l219 -124 q18 -9 18 -25q0 -9 -6 -18q-14 -27 -43 -11l-209 121q-33 18 -33 -16v-205q0 -31 -30.5 -31t-30.5 31v205q0 35 -33 16l-209 -121q-29 -16 -43 11q-6 9 -6 18z" />
<glyph unicode="+" horiz-adv-x="1026" d="M82 655.5q0 30.5 31 30.5h327q31 0 31 31v338q0 31 30.5 30.5t30.5 -30.5v-338q0 -31 31 -31h348q31 0 31 -30.5t-31 -30.5h-348q-31 0 -31 -31v-338q0 -31 -30.5 -31t-30.5 31v338q0 31 -31 31h-327q-31 0 -31 30.5z" />
<glyph unicode="," horiz-adv-x="495" d="M145 82q0 47 28 74.5t75 27.5q102 0 102 -123v-30q0 -106 -41 -181t-112 -106q-12 -6 -21 -6q-16 0 -24 14q-14 27 12 39q125 55 125 189v16q-29 -16 -51 -16q-39 0 -66 27.5t-27 74.5z" />
<glyph unicode="-" d="M155 655.5q0 30.5 31 30.5h799q31 0 31 -30.5t-31 -30.5h-799q-31 0 -31 30.5z" />
<glyph unicode="." horiz-adv-x="495" d="M145 82q0 47 27 74q29 29 76 28.5t74 -28.5q29 -27 28.5 -74t-28.5 -76q-27 -27 -74 -27t-76 27q-27 29 -27 76z" />
<glyph unicode="/" horiz-adv-x="1060" d="M53 29q0 10 8 18l887 1370q8 14 25 15q4 0 16 -5q16 -12 17 -24q0 -8 -9 -17l-884 -1372q-8 -14 -25 -14q-4 0 -16 4q-18 9 -19 25z" />
<glyph unicode="0" horiz-adv-x="1339" d="M127 717q0 348 154 543q158 195 389 194q233 0 387 -194q156 -193 155.5 -543t-155.5 -543q-154 -195 -387 -194q-231 -1 -389 194q-154 195 -154 543zM188.5 716.5q-0.5 -323.5 137.5 -499.5q139 -176 344 -176q203 0 342 176q139 180 139 500q0 322 -139 497 q-137 178 -342 179q-206 -1 -344 -179q-137 -174 -137.5 -497.5z" />
<glyph unicode="1" horiz-adv-x="708" d="M53 1161q0 14 15 23l262 219q43 31 55 31q41 0 41 -31v-1311q0 -31 31 -31h143q31 0 31 -30.5t-31 -30.5h-410q-31 0 -30.5 30.5t30.5 30.5h144q31 0 31 31v1239q0 20 -29 0l-227 -194q-23 -23 -46 2q-10 14 -10 22z" />
<glyph unicode="2" horiz-adv-x="1218" d="M122.5 1206q-21.5 22 0.5 43q208 205 491 205q218 0 344 -117q127 -117 127 -272q0 -131 -94 -238q-92 -106 -225 -184l-262 -143q-127 -68 -228 -162q-92 -88 -92 -195v-51q0 -31 31 -31h778q31 0 31 31v225q0 31 30.5 31t30.5 -31v-286q0 -31 -30 -31h-901 q-31 0 -31 31v112q0 120 92 222q98 106 227 174l263 145q129 70 225 168q94 94 94 213q0 131 -110.5 229.5t-299.5 98.5q-272 0 -448 -187q-22 -22 -43.5 0z" />
<glyph unicode="3" horiz-adv-x="1230" d="M123 184q-22 22 0 43q20 23 43 0q176 -186 448 -186q203 0 316.5 93t113.5 255q0 152 -95 240t-253 88h-215q-31 0 -30.5 30.5t30.5 30.5h174q162 0 255.5 83t93.5 214q0 139 -110 228.5t-296 89.5q-215 0 -408 -166q-22 -22 -43 -0.5t0 43.5q213 184 451 184 q217 0 344 -108q123 -108 123 -271q0 -246 -256 -323q141 -25 219 -122.5t78 -240.5q0 -186 -133 -297.5t-359 -111.5q-283 0 -491 204z" />
<glyph unicode="4" horiz-adv-x="1183" d="M29 373q0 10 6 22q190 287 225 353q139 262 154 604q2 37 2 112q0 31 30.5 31t30.5 -31q0 -369 -100 -600q-53 -131 -103 -213q-57 -98 -139 -211q-16 -31 23 -30h678q31 0 30 30v586q0 31 31 31t31 -31v-586q0 -31 30 -30h164q31 0 31 -31t-31 -31h-164q-31 0 -30 -31 v-307q0 -31 -31 -30.5t-31 30.5v307q0 31 -30 31h-779q-18 0 -24 14q-4 4 -4 11z" />
<glyph unicode="5" d="M143 768v635q0 31 31 31h799q31 0 31 -31t-31 -31h-737q-31 0 -31 -31v-481q0 -40 31 -24q163 86 344 86q238 0 366.5 -120t128.5 -331q0 -258 -247.5 -395t-643.5 -137q-31 0 -30.5 30.5t30.5 30.5q487 0 709 205q121 109 121 266q0 182 -113 285.5t-321 103.5 q-215 0 -375 -110q-27 -12 -33 -13q-29 0 -29 31z" />
<glyph unicode="6" horiz-adv-x="1222" d="M117 614q0 365 227 623t592 258q31 0 31 -30.5t-31 -30.5q-330 0 -545 -242q-104 -119 -139 -219q-10 -31 27 -31h315q256 0 401.5 -129t145.5 -352q0 -215 -131 -346q-132 -135 -351 -135q-243 0 -393 165q-150 168 -149 469zM178 614q0 -274 131 -423.5t350 -149.5 q195 0 307.5 113.5t112.5 306.5q0 201 -126 310.5t-369 109.5h-334q-29 0 -41 -31q-10 -37 -20.5 -119t-10.5 -117z" />
<glyph unicode="7" horiz-adv-x="954" d="M0 1116v287q0 31 31 31h901q18 0 24 -13q4 -8 5 -12q0 -10 -7 -23l-151 -253q-41 -70 -137 -256q-74 -147 -125 -281q-111 -311 -111 -565q0 -31 -30.5 -31t-30.5 31q0 535 493 1310q14 31 -22 31h-748q-31 0 -31 -31v-225q0 -31 -30.5 -31t-30.5 31z" />
<glyph unicode="8" horiz-adv-x="1318" d="M117 348q6 84 26.5 134t71.5 91l61 48q31 18 80 41q12 6 80 34l90 33q27 10 0 21q-106 41 -196 96q-141 92 -152 260q0 156 128 252t353.5 96t353.5 -96t128 -252q0 -109 -72 -195q-23 -27 -82 -65q-80 -51 -194 -96q-27 -10 0 -21q201 -76 268 -123q141 -95 141 -258 q0 -160 -153 -264q-152 -104 -389.5 -104t-391.5 104q-151 104 -151 264zM178 348q0 -137 133 -223q133 -84 348 -84t349 84q133 86 133 223q0 100 -62 162l-41 39q-43 35 -110 61q-29 14 -66 27l-63 25l-70 22l-70 23l-69 -23l-70 -22l-65 -25q-14 -6 -66 -27 q-68 -29 -108 -61l-41 -39q-62 -62 -62 -162zM240 1106q0 -106 86 -184q34 -31 98 -62q76 -37 108 -47l127 -41l125 41q33 10 109 47q68 35 98 64q88 76 88 182q0 133 -108.5 210t-311 77t-311 -77t-108.5 -210z" />
<glyph unicode="9" horiz-adv-x="1222" d="M82 973q0 215 131 346q132 135 350 135q243 0 393 -166q150 -168 150 -469q0 -365 -227.5 -622.5t-591.5 -257.5q-31 0 -31 30.5t31 30.5q330 0 544 242q105 119 140 219q10 31 -27 31h-315q-256 0 -401.5 129t-145.5 352zM143 973q0 -201 126 -310.5t370 -109.5h334 q29 0 41 31q12 35 21 116.5t9 118.5q0 274 -131 424t-350 150q-195 0 -307.5 -114t-112.5 -306z" />
<glyph unicode=":" horiz-adv-x="516" d="M155.5 82q0.5 47 26.5 74q29 29 76 28.5t74 -28.5q29 -27 28.5 -74t-28.5 -76q-27 -27 -74 -27t-76 27q-27 29 -26.5 76zM155.5 942q0.5 47 26.5 74q29 29 76 28.5t74 -28.5q29 -27 28.5 -74t-28.5 -76q-27 -27 -74 -27t-76 27q-27 29 -26.5 76z" />
<glyph unicode=";" horiz-adv-x="516" d="M155.5 942q0.5 47 26.5 74q29 29 76 28.5t74 -28.5q29 -27 28.5 -74t-28.5 -76q-27 -27 -74 -27t-76 27q-27 29 -26.5 76zM156 82q0 47 27.5 74.5t74.5 27.5q102 0 102 -123v-30q0 -106 -40.5 -181t-112.5 -106q-12 -6 -21 -6q-16 0 -24 14q-14 27 12 39q125 55 125 189 v16q-29 -16 -51 -16q-39 0 -65.5 27.5t-26.5 74.5z" />
<glyph unicode="&#x3c;" horiz-adv-x="1021" d="M67.5 511q0.5 22 20.5 34l770 442q8 8 19 8q15 0 24 -18q6 -10 6 -21q0 -12 -16 -22l-703 -406q-28 -18 0 -36l703 -404q16 -12 16 -25q0 -9 -6 -18q-9 -18 -24 -18q-10 0 -19 8l-768 442q-23 12 -22.5 34z" />
<glyph unicode="=" horiz-adv-x="1187" d="M164 450.5q0 30.5 31 30.5h798q31 0 31 -30.5t-31 -30.5h-798q-31 0 -31 30.5zM164 860q0 31 31 31h798q31 0 31 -31t-31 -31h-798q-31 0 -31 31z" />
<glyph unicode="&#x3e;" horiz-adv-x="1021" d="M115 63q0 12 16 25l703 404q28 18 0 36l-703 406q-16 10 -16 22q0 10 6 21q9 18 24 18q10 0 19 -8l770 -442q20 -12 20 -34t-22 -34l-768 -442q-8 -8 -19 -8q-15 0 -24 18q-6 9 -6 18z" />
<glyph unicode="?" horiz-adv-x="1110" d="M72 1044q0 186 126 298t345 112q218 0 344 -117q127 -117 127 -272q0 -197 -154 -317l-131 -97q-156 -113 -156 -272q0 -31 -30.5 -31t-30.5 31q0 172 115 268l106 86l105 84q115 90 114 248q0 131 -110.5 229.5t-298.5 98.5q-190 0 -300 -93.5t-110 -255.5 q0 -31 -30.5 -31t-30.5 31zM440 82q0 47 27 74q29 29 76 28.5t73 -28.5q29 -27 29 -74t-29 -76q-27 -27 -73.5 -27t-75.5 27q-27 29 -27 76z" />
<glyph unicode="@" horiz-adv-x="1888" d="M104 532.5q0 401.5 246 661.5t604 260q356 0 602 -260q248 -260 248 -662q0 -252 -84 -403q-82 -150 -219 -149q-164 0 -219 163q-12 41 -33 21q-164 -184 -346 -184t-311 139q-129 138 -129 393t129 393q129 139 311 139t346 -184q16 -14 24.5 -8t8.5 29v112 q0 31 30.5 31t30.5 -31v-768q0 -90 42 -137t116 -47q106 0 174 135t68 356q0 379 -227 619q-223 242 -562 242q-336 0 -563 -242q-225 -242 -225 -618.5t225 -618.5q227 -242 563 -242q344 0 510 187q22 22 43.5 0t-0.5 -43q-186 -205 -553 -205q-358 0 -604 260t-246 661.5 zM524 512q0 -231 109 -352q110 -119 270 -119q156 0 281 143q55 61 98 144v368q-43 82 -98 144q-125 143 -281 143q-160 0 -270 -121q-109 -121 -109 -350z" />
<glyph unicode="A" horiz-adv-x="1482" d="M10 61h133q25 0 41 31l512 1331q10 31 46 31t44 -31l512 -1331q16 -31 41 -31h134q31 0 31 -30v-1q0 -30 -31 -30h-390q-31 0 -30.5 30.5t30.5 30.5h123q35 0 21 31l-146 379q-12 29 -49 29h-581q-37 0 -50 -29l-145 -379q-14 -31 20 -31h123q31 0 31 -30.5t-31 -30.5 h-389q-31 0 -31 30q0 31 31 31zM449 592q-4 -9 -4 -15q0 -16 26 -16h541q26 0 26 16q0 6 -4 15l-280 729q-4 12 -12.5 12t-12.5 -12z" />
<glyph unicode="B" horiz-adv-x="1333" d="M94 30.5q0 30.5 31 30.5h143q31 0 31 31v1249q0 31 -31 31h-143q-31 0 -31 31t31 31h625q164 0 266 -102.5t102 -256.5q0 -217 -194 -309q145 -29 221 -127t76 -250q0 -180 -102.5 -284.5t-287.5 -104.5h-706q-31 0 -31 30.5zM360 92q0 -31 31 -31h440q154 0 241 87.5 t87 241t-87 240.5t-241 87h-440q-31 0 -31 -31v-594zM360 809q0 -31 31 -31h369q129 0 213 86q84 90 84 211q0 131 -84 214t-223 83h-359q-31 0 -31 -31v-532z" />
<glyph unicode="C" horiz-adv-x="1423" d="M119 717q0 322 180 526q180 211 465 211q250 0 448 -174q33 -27 33 20v103q0 31 31 31t31 -31v-389q0 -31 -31 -31t-31 31v143q-55 65 -129 117q-168 119 -352 119q-252 0 -418 -192.5t-166 -483.5q0 -295 172 -485.5t453 -190.5q293 0 469 186q22 23 43 1 q10 -11 10.5 -22t-10.5 -22q-208 -204 -509 -204h-3q-309 0 -498 206q-188 214 -188 531z" />
<glyph unicode="D" horiz-adv-x="1503" d="M94 30.5q0 30.5 31 30.5h143q31 0 31 31v1249q0 31 -31 31h-143q-31 0 -31 31t31 31h573q311 0 498 -205q188 -207 188 -512t-188 -512q-186 -205 -498 -205h-573q-31 0 -31 30.5zM360 92q0 -31 31 -31h307q279 0 451 187q174 186 174 468.5t-174 469.5 q-172 186 -451 186h-307q-31 0 -31 -31v-1249z" />
<glyph unicode="E" horiz-adv-x="1257" d="M94 30.5q0 30.5 31 30.5h143q31 0 31 31v1249q0 31 -31 31h-143q-31 0 -31 31t31 31h973q31 0 30 -31v-287q0 -31 -30.5 -31t-30.5 31v225q0 31 -31 31h-645q-31 0 -31 -31v-553q0 -31 31 -30h461q31 0 31 30v103q0 31 30.5 31t30.5 -31v-328q0 -31 -30.5 -31t-30.5 31 v103q0 31 -31 30h-461q-31 0 -31 -30v-574q0 -31 31 -31h666q31 0 30 31v225q0 31 31 31t31 -31v-286q0 -31 -31 -31h-993q-31 0 -31 30.5z" />
<glyph unicode="F" horiz-adv-x="1200" d="M94 30.5q0 30.5 31 30.5h143q31 0 31 31v1249q0 31 -31 31h-143q-31 0 -31 31t31 31h973q31 0 30 -31v-287q0 -31 -30.5 -31t-30.5 31v225q0 31 -31 31h-645q-31 0 -31 -31v-553q0 -31 31 -30h481q31 0 31 30v103q0 31 31 31t31 -31v-328q0 -31 -31 -31t-31 31v103 q0 31 -31 30h-481q-31 0 -31 -30v-574q0 -31 31 -31h164q31 0 31 -30.5t-31 -30.5h-430q-31 0 -31 30.5z" />
<glyph unicode="G" horiz-adv-x="1564" d="M119 716.5q0 319.5 180 526.5q180 211 465 211q248 0 448 -174q33 -27 33 20v103q0 31 31 31t31 -31v-389q0 -31 -31 -31t-31 31v143q-55 65 -129 117q-168 119 -352 119q-252 0 -418 -192.5t-166 -483.5q0 -293 168 -486q169 -190 436 -190q178 0 334 117q63 47 127 118 v390q0 31 -31 30h-122q-31 0 -31 31t31 31h389q31 0 31 -30q0 -32 -31 -32h-144q-31 0 -30 -30v-635q0 -31 -31 -31t-31 31v102q0 47 -33 21q-201 -174 -428 -174q-297 0 -481 208.5t-184 528z" />
<glyph unicode="H" horiz-adv-x="1601" d="M94 30.5q0 30.5 31 30.5h143q31 0 31 31v1249q0 31 -31 31h-143q-31 0 -31 31t31 31h389q31 0 31 -31t-31 -31h-123q-31 0 -31 -31v-553q0 -31 31 -30h819q31 -1 31 30v553q0 31 -31 31h-123q-31 0 -30.5 31t30.5 31h390q31 0 31 -30q0 -32 -31 -32h-144q-31 0 -30 -31 v-1249q0 -31 30 -31h144q31 0 31 -30q0 -31 -31 -31h-390q-31 0 -30.5 30.5t30.5 30.5h123q31 0 31 31v574q0 31 -31 30h-819q-31 0 -31 -30v-574q0 -31 31 -31h123q31 0 31 -30.5t-31 -30.5h-389q-31 0 -31 30.5z" />
<glyph unicode="I" horiz-adv-x="659" d="M94 30.5q0 30.5 31 30.5h143q31 0 31 31v1249q0 31 -31 31h-143q-31 0 -31 31t31 31h410q31 0 31 -30q0 -32 -31 -32h-144q-31 0 -31 -31v-1249q0 -31 31 -31h144q31 0 31 -30q0 -31 -31 -31h-410q-31 0 -31 30.5z" />
<glyph unicode="J" horiz-adv-x="1034" d="M41 176q-6 8 -6 15q0 14 20 24q22 15 43 -12q129 -162 299 -162q137 0 222.5 90t85.5 248v962q0 31 -31 31h-144q-31 0 -30.5 31t30.5 31h410q31 0 31 -31t-31 -31h-143q-31 0 -31 -31v-962q0 -188 -100.5 -293.5t-268.5 -105.5q-113 0 -207 53t-149 143z" />
<glyph unicode="K" horiz-adv-x="1425" d="M94 30.5q0 30.5 31 30.5h143q31 0 31 31v1249q0 31 -31 31h-143q-31 0 -31 31t31 31h389q31 0 31 -31t-31 -31h-123q-31 0 -31 -31v-757l697 757q12 10 9 20.5t-19 10.5h-134q-31 0 -30.5 31t30.5 31h420q31 0 31 -31t-31 -31h-131q-23 0 -53 -31l-473 -514l534 -735 q27 -31 52 -31h133q31 0 31 -30q0 -31 -31 -31h-410q-31 0 -31 30.5t31 30.5h133q37 0 10 31l-497 686l-271 -295v-391q0 -31 31 -31h123q31 0 31 -30.5t-31 -30.5h-389q-31 0 -31 30.5z" />
<glyph unicode="L" horiz-adv-x="1183" d="M94 30.5q0 30.5 31 30.5h143q31 0 31 31v1249q0 31 -31 31h-143q-31 0 -31 31t31 31h450q31 0 31 -31t-31 -31h-184q-31 0 -31 -31v-1249q0 -31 31 -31h656q31 0 30 31v225q0 31 31 31t31 -31v-286q0 -31 -31 -31h-983q-31 0 -31 30.5z" />
<glyph unicode="M" horiz-adv-x="1990" d="M94 30.5q0 30.5 31 30.5h143q31 0 31 31v1249q0 31 -31 31h-143q-31 0 -31 31t31 31h225q35 0 51 -31l574 -1270q20 -39 41 0l573 1270q16 31 51 31h226q31 0 31 -30q0 -32 -31 -32h-144q-31 0 -30 -31v-1249q0 -31 30 -31h144q31 0 31 -30q0 -31 -31 -31h-389 q-31 0 -31 30.5t31 30.5h122q31 0 31 31v1198q0 10 -3 14.5t-6 3.5t-7 -8l-574 -1269q-16 -31 -44.5 -31t-45.5 31l-573 1269q-4 6 -7 7.5t-6.5 -3t-3.5 -14.5v-1198q0 -31 31 -31h123q31 0 31 -30.5t-31 -30.5h-389q-31 0 -31 30.5z" />
<glyph unicode="N" horiz-adv-x="1607" d="M94 30.5q0 30.5 31 30.5h143q31 0 31 31v1249q0 31 -31 31h-143q-31 0 -31 31t31 31h225q33 0 51 -31l840 -1280q4 -8 12.5 -7t8.5 17v1208q0 31 -31 31h-123q-31 0 -31 31t31 31h389q31 0 31 -31t-31 -31h-143q-31 0 -31 -31v-1249q0 -31 31 -31h143q31 0 31 -30.5 t-31 -30.5h-225q-33 0 -51 31l-840 1280q-4 8 -12.5 7t-8.5 -18v-1208q0 -31 31 -31h123q31 0 31 -30.5t-31 -30.5h-389q-31 0 -31 30.5z" />
<glyph unicode="O" horiz-adv-x="1609" d="M119 717q0 322 188 528q187 209 497.5 209t498.5 -209q188 -207 188 -528q0 -319 -188 -531q-188 -207 -498 -207t-498 207q-188 211 -188 531zM180 717q0 -295 172 -485.5t452.5 -190.5t453 190.5t172.5 485.5t-172.5 485.5t-453 190.5t-452.5 -190.5t-172 -485.5z" />
<glyph unicode="P" horiz-adv-x="1296" d="M94 30.5q0 30.5 31 30.5h143q31 0 31 31v1249q0 31 -31 31h-143q-31 0 -31 31t31 31h686q203 0 306.5 -110t103.5 -320.5t-103.5 -320.5t-306.5 -110h-420q-31 0 -31 -30v-451q0 -31 31 -31h164q31 0 31 -30.5t-31 -30.5h-430q-31 0 -31 30.5zM360 666q0 -31 31 -31h420 q348 0 348 368.5t-348 368.5h-420q-31 0 -31 -31v-675z" />
<glyph unicode="Q" horiz-adv-x="1611" d="M119 717q0 322 188 528q187 209 497.5 209t498.5 -209q188 -207 188 -528q0 -262 -129 -457q-125 -190 -352 -252q43 -131 137 -131q66 0 110 33q29 23 46 -4q18 -25 -7 -43q-63 -47 -149 -47q-135 0 -201 176q-65 -12 -141 -12q-309 0 -498 206q-188 213 -188 531z M180 717q0 -295 172 -486q109 -121 258 -163q59 176 195 176q70 0 114 -44t74 -134q154 43 264 165q173 191 173 486t-172.5 485.5t-453 190.5t-452.5 -190.5t-172 -485.5zM674 51q68 -10 131 -10q74 0 125 10q-37 131 -125 131q-94 0 -131 -131z" />
<glyph unicode="R" horiz-adv-x="1409" d="M94 30.5q0 30.5 31 30.5h143q31 0 31 31v1249q0 31 -31 31h-143q-31 0 -31 31t31 31h686q197 0 303.5 -102.5t106.5 -287t-106.5 -287t-303.5 -102.5h-10q-16 0 -23.5 -9t2.5 -21l389 -533q27 -31 52 -31h133q31 0 31 -30q0 -31 -31 -31h-410q-31 0 -31 30.5t31 30.5h133 q37 0 10 31l-409 563h-287q-31 1 -31 -30v-533q0 -31 31 -31h123q31 0 31 -30.5t-31 -30.5h-389q-31 0 -31 30.5zM360 748q0 -31 31 -31h420q166 0 257 86t91 241.5t-91 241.5t-257 86h-420q-31 0 -31 -31v-593z" />
<glyph unicode="S" horiz-adv-x="1320" d="M143 31v389q0 31 31 31t31 -31v-154q55 -63 131 -112q172 -113 371 -113q215 0 327.5 91t112.5 237q0 154 -178 233q-84 39 -314.5 100.5t-326.5 110.5q-184 90 -185 283q0 156 113 257t358.5 101t448.5 -174q33 -29 33 20v103q0 31 30.5 31t30.5 -31v-389 q0 -31 -30.5 -31t-30.5 31v143q-55 65 -129 117q-168 119 -353 119q-207 0 -308 -85t-101 -212q0 -154 178 -234q84 -39 314.5 -100.5t326.5 -110.5q184 -90 184 -282q0 -174 -131 -281.5t-370 -107.5q-264 0 -469 174q-33 29 -33 -21v-102q0 -31 -31 -31t-31 31z" />
<glyph unicode="T" horiz-adv-x="1265" d="M53 1106v297q0 31 31 31h1106q31 0 31 -31v-297q0 -31 -31 -31t-31 31v235q0 31 -31 31h-430q-31 0 -30 -31v-1249q0 -31 30 -31h144q31 0 30.5 -30.5t-30.5 -30.5h-410q-31 0 -31 30.5t31 30.5h143q31 0 31 31v1249q0 31 -31 31h-430q-31 0 -30 -31v-235q0 -31 -31 -31 t-31 31z" />
<glyph unicode="U" horiz-adv-x="1589" d="M57 1403q0 31 31 31h389q31 0 31 -31t-31 -31h-123q-31 0 -30 -31v-829q0 -213 133 -342q132 -129 337.5 -129t338.5 129t133 342v829q0 31 -31 31h-123q-31 0 -31 31t31 31h389q31 0 31 -31t-31 -31h-143q-31 0 -31 -31v-829q0 -233 -151 -385q-151 -147 -381 -147 q-231 0 -383 147q-150 150 -150 385v829q0 31 -31 31h-143q-31 0 -31 31z" />
<glyph unicode="V" horiz-adv-x="1482" d="M-21 1403q0 31 31 31h389q31 0 31 -31t-31 -31h-123q-35 0 -20 -31l473 -1228q4 -12 12.5 -12.5t12.5 12.5l473 1228q14 31 -21 31h-123q-31 0 -30.5 31t30.5 31h390q31 0 31 -30q0 -32 -31 -32h-134q-25 0 -41 -31l-512 -1331q-8 -31 -43 -31l-1 1q-36 0 -46 30 l-512 1331q-16 31 -41 31h-133q-31 0 -31 31z" />
<glyph unicode="W" horiz-adv-x="2074" d="M-21 1403q0 31 31 31h389q31 0 31 -31t-31 -31h-123q-35 0 -20 -31l367 -1183q4 -12 12 -12.5t12 12.5l350 1245q10 31 41 31t41 -31l348 -1245q4 -12 12.5 -12.5t12.5 12.5l367 1183q16 31 -21 31h-123q-31 0 -30.5 31t30.5 31h389q31 0 31 -31t-31 -31h-133 q-31 0 -41 -31l-411 -1331q-8 -31 -38 -31l-1 1q-31 0 -39 30l-350 1250q-4 12 -14.5 12t-14.5 -12l-348 -1250q-10 -31 -38 -31l-1 1q-29 0 -39 30l-412 1331q-8 31 -41 31h-133q-31 0 -31 31z" />
<glyph unicode="X" horiz-adv-x="1353" d="M14 30.5q0 30.5 31 30.5h123q33 0 51 31l410 621q12 18 0 37l-389 591q-18 31 -52 31h-122q-31 0 -31 31t31 31h389q31 0 30.5 -31t-30.5 -31h-123q-16 0 -22.5 -9t1.5 -22l351 -532q14 -20 28 0l352 532q8 12 2 21.5t-22 9.5h-123q-31 0 -31 31t31 31h389q31 0 31 -31 t-31 -31h-123q-33 0 -51 -31l-389 -591q-12 -18 0 -37l410 -621q18 -31 51 -31h123q31 0 31 -30q0 -31 -31 -31h-389q-31 0 -31 30.5t31 30.5h122q16 0 22.5 9.5t-1.5 21.5l-373 563q-14 20 -28 0l-371 -563q-8 -12 -2 -21.5t22 -9.5h123q31 0 31 -30.5t-31 -30.5h-389 q-31 0 -31 30.5z" />
<glyph unicode="Y" horiz-adv-x="1284" d="M-21 1403q0 31 31 31h389q31 0 31 -31t-31 -31h-123q-16 0 -22 -9t2 -22l371 -647q14 -20 28 0l373 647q8 12 2 21.5t-22 9.5h-123q-31 0 -31 31t31 31h389q31 0 31 -31t-31 -31h-123q-33 0 -51 -31l-426 -739v-510q0 -31 31 -31h143q31 0 31 -30.5t-31 -30.5h-410 q-31 0 -30.5 30.5t30.5 30.5h144q31 0 30 31v506l-428 743q-18 31 -51 31h-123q-31 0 -31 31z" />
<glyph unicode="Z" horiz-adv-x="1259" d="M102 35q0 6 25 47l920 1257q12 12 6 22.5t-29 10.5h-819q-31 0 -31 -31v-225q0 -31 -30.5 -31t-30.5 31v287q0 31 30 31h983q31 0 31 -35q0 -6 -24 -47l-920 -1258q-12 -12 -6 -22.5t29 -10.5h819q31 0 30 31v225q0 31 31 31t31 -31v-286q0 -31 -31 -31h-983 q-31 0 -31 35z" />
<glyph unicode="[" horiz-adv-x="593" d="M219 -297v1864q0 31 31 30h266q31 0 31 -30.5t-31 -30.5h-205q-31 0 -30 -31v-1741q0 -31 30 -30h205q31 0 31 -31t-31 -31h-266q-31 0 -31 31z" />
<glyph unicode="\" horiz-adv-x="1062" d="M55 1403q0 12 17 24q12 4 16 5q16 0 25 -15l886 -1370q8 -8 9 -18q0 -15 -19 -25q-12 -4 -16 -4q-17 0 -25 14l-885 1372q-8 8 -8 17z" />
<glyph unicode="]" horiz-adv-x="593" d="M47 -297q0 31 31 31h205q31 0 30 30v1741q0 31 -30 31h-205q-31 0 -31 30.5t31 30.5h266q31 0 31 -30v-1864q0 -31 -31 -31h-266q-31 0 -31 31z" />
<glyph unicode="^" horiz-adv-x="956" d="M43 938q0 6 6 16l395 539q10 18 35 23q20 0 33 -23l395 -539q6 -10 6 -16q0 -16 -14 -25q-8 -8 -20 -8q-14 0 -25 17l-356 485q-8 12 -19.5 12t-19.5 -12l-357 -485q-10 -16 -24 -17q-12 0 -21 8q-14 8 -14 25z" />
<glyph unicode="_" horiz-adv-x="1449" d="M387 -133q0 31 31 31h614q31 0 31 -31t-31 -31h-614q-31 0 -31 31z" />
<glyph unicode="`" horiz-adv-x="495" d="M123 1444q0 10 16 20q10 10 21 11q12 0 22 -19l183 -260q8 -8 8 -20.5t-15 -20.5q-10 -6 -20 -6q-15 0 -23 12l-184 262q-8 8 -8 21z" />
<glyph unicode="a" d="M84 287q0 131 111.5 219t298.5 88h337q31 0 31 31v82q0 119 -90 197.5t-229 78.5q-197 0 -332 -104q-27 -20 -43 4q-18 25 4 41q150 120 371 120q172 0 276 -98q104 -95 105 -239v-615q0 -31 30 -31h144q31 0 31 -30q0 -31 -31 -31h-205q-31 0 -31 31v114q0 23 -8 29 t-25 -8q-53 -68 -149 -127q-102 -59 -227 -59q-174 0 -271.5 86t-97.5 221zM145 286.5q0 -110.5 81 -178t227 -67.5q168 0 305 137q61 61 104 139v185q0 30 -29 30h-2h-337q-172 0 -260.5 -67.5t-88.5 -178z" />
<glyph unicode="b" horiz-adv-x="1226" d="M-8 1403q0 31 31 31h204q31 0 31 -31v-348q0 -31 31 -31h276q260 0 406.5 -134t146.5 -368q0 -256 -122 -399t-328 -143q-127 0 -230 59q-94 59 -147 127q-16 14 -24.5 8t-8.5 -29v-114q0 -31 -30.5 -31t-30.5 31v1310q0 31 -31 31h-143q-31 0 -31 31zM258 317 q43 -78 104 -139q137 -137 306 -137q178 0 283.5 126t105.5 355q0 211 -129 326t-363 115h-276q-31 0 -31 -31v-615z" />
<glyph unicode="c" horiz-adv-x="1124" d="M104 512q0 236 129 383q128 149 319 149h3q203 0 356 -153q33 -31 33 20v82q0 31 31 31t31 -31v-327q0 -31 -31 -31t-31 31v102q-45 59 -102 106q-133 109 -287 109q-166 0 -279 -131q-111 -131 -110 -340q0 -215 117 -344q117 -127 303 -127q98 0 180 28.5t114.5 53 t80.5 65.5q20 16 45 -8q10 -12 10 -22q0 -11 -12 -21q-172 -157 -418 -157q-217 0 -348 147q-133 152 -134 385z" />
<glyph unicode="d" horiz-adv-x="1292" d="M102 522q0 233 146.5 367.5t406.5 134.5h277q31 0 31 31v286q0 31 -31 31h-164q-31 0 -31 31t31 31h225q31 0 31 -31v-1311q0 -31 31 -31h143q31 0 31 -30.5t-31 -30.5h-205q-31 0 -30 31v114q0 23 -8.5 29t-24.5 -8q-55 -70 -150 -127q-102 -59 -227 -59 q-207 0 -329 143t-122 399zM164 522q0 -229 105.5 -355t283.5 -126q168 0 305 137q62 61 105 139v615q0 31 -31 31h-277q-233 0 -362 -115t-129 -326z" />
<glyph unicode="e" horiz-adv-x="1161" d="M106 514q0 232 134 383q131 147 348 147q211 0 346 -135t135 -325v-31q0 -61 -61 -61h-807q-34 0 -31 -31q12 -178 115 -293q117 -127 303 -127q98 0 180 28.5t114.5 53t80.5 65.5q20 16 45 -8q20 -25 -2 -43q-171 -157 -415 -157h-3q-215 0 -348 147q-27 31 -48 64.5 t-37 70.5t-27 77.5t-16.5 84t-5.5 90.5zM172 584q0 -3 -1 -6q0 -25 30 -25h776q31 0 31 31q0 164 -121 280q-119 119 -299 119q-186 0 -303 -131q-99 -110 -113 -268z" />
<glyph unicode="f" horiz-adv-x="847" d="M104 61h144q31 0 31 31v840q0 31 -31 31h-144q-31 0 -31 30l1 1q0 30 30 30h144q31 0 31 31v20q0 184 83.5 281.5t243.5 97.5q147 0 264 -117q15 -15 15 -27q0 -11 -11 -20q-22 -22 -43 0q-113 102 -225 103q-129 0 -197.5 -81t-68.5 -237v-20q0 -31 31 -31h327 q31 0 31 -30.5t-31 -30.5h-327q-31 0 -31 -31v-840q0 -31 31 -31h164q31 0 30.5 -30.5t-30.5 -30.5h-431q-31 0 -31 30q0 31 31 31z" />
<glyph unicode="g" horiz-adv-x="1239" d="M51 -113q0 72 41 139.5t113 102.5q14 6 14 17.5t-14 15.5q-43 14 -73 48t-30 75q0 84 109 133q28 15 0 43q-78 88 -78 225q0 166 117 262t334 96q193 0 307 -75q16 16 43 32q61 33 121 33h133q31 0 31 -30v-236q0 -31 -31 -31t-31 31v184q0 31 -31 31h-71q-31 0 -70 -14 l-27 -13q-25 -23 -2 -45q78 -92 78 -225q0 -166 -116.5 -262t-333.5 -96q-188 0 -289 65q-68 -18 -99.5 -40.5t-31.5 -67.5q0 -80 164 -80h256q532 0 532 -317.5t-532.5 -317.5t-532.5 317zM113 -113q0 -256 471 -256t471 256t-471 256t-471 -256zM195 686q0 -297 389 -297 t389 297t-389 297t-389 -297z" />
<glyph unicode="h" horiz-adv-x="1333" d="M39 30.5q0 30.5 31 30.5h143q31 0 31 31v1249q0 31 -31 31h-143q-31 0 -31 31t31 31h204q31 0 31 -31v-524q0 -23 8.5 -29t24.5 8q166 186 367 186q190 0 294.5 -106.5t104.5 -302.5v-543q0 -31 31 -31h143q31 0 31 -30.5t-31 -30.5h-389q-31 0 -31 30.5t31 30.5h123 q31 0 30 31v543q0 172 -89 260t-248 88q-154 0 -293 -139q-66 -70 -107 -137v-615q0 -31 31 -31h123q31 0 30.5 -30.5t-30.5 -30.5h-389q-31 0 -31 30.5z" />
<glyph unicode="i" horiz-adv-x="585" d="M75 30.5q0 30.5 31 30.5h144q31 0 31 31v840q0 31 -31 31h-144q-31 0 -30.5 30.5t30.5 30.5h205q31 0 31 -31v-901q0 -31 31 -31h143q31 0 31 -30.5t-31 -30.5h-410q-31 0 -31 30.5zM219 1270q0 35 23 57q25 25 59.5 25t56.5 -25q25 -23 25 -57.5t-25 -59.5 q-23 -23 -57 -23t-59 23q-23 25 -23 60z" />
<glyph unicode="j" horiz-adv-x="501" d="M-268 -266q22 22 43 0q112 -103 225 -103q117 0 180.5 76t63.5 221v1004q0 31 -31 31h-143q-31 0 -31 30.5t31 30.5h204q31 0 31 -31v-1065q0 -172 -81 -265t-224 -93q-158 0 -264 117q-15 15 -15 27q0 11 11 20zM182 1270q0 35 23 57q25 25 59.5 25t57.5 -25 q25 -23 25 -56q0 -35 -25 -61q-23 -23 -57.5 -23t-59.5 23q-23 25 -23 60z" />
<glyph unicode="k" horiz-adv-x="1189" d="M39 30.5q0 30.5 31 30.5h143q31 0 31 31v1249q0 31 -31 31h-143q-31 0 -31 31t31 31h204q31 0 31 -31v-1008l492 537q12 10 9 20.5t-20 10.5h-114q-31 0 -31 30.5t31 30.5h401q31 0 31 -30.5t-31 -30.5h-131q-23 0 -53 -31l-307 -334l368 -506q27 -31 51 -31h134 q31 0 31 -30q0 -31 -31 -31h-390q-31 0 -30.5 30.5t30.5 30.5h113q37 0 10 31l-331 457l-232 -254v-203q0 -31 31 -31h123q31 0 30.5 -30.5t-30.5 -30.5h-389q-31 0 -31 30.5z" />
<glyph unicode="l" horiz-adv-x="548" d="M39 30.5q0 30.5 31 30.5h143q31 0 31 31v1249q0 31 -31 31h-143q-31 0 -31 31t31 31h204q31 0 31 -31v-1311q0 -31 31 -31h143q31 0 31 -30.5t-31 -30.5h-409q-31 0 -31 30.5z" />
<glyph unicode="m" horiz-adv-x="1964" d="M73 30.5q0 30.5 31 30.5h144q31 0 31 31v840q0 31 -31 31h-144q-31 0 -30.5 30.5t30.5 30.5h205q31 0 31 -31v-114q0 -53 33 -21q160 186 315 186q121 0 208 -68.5t122 -193.5q43 76 98 131q125 131 268 131q156 0 252.5 -108.5t96.5 -300.5v-543q0 -31 30 -31h144 q31 0 31 -30q0 -31 -31 -31h-389q-31 0 -31 30.5t31 30.5h122q31 0 31 31v543q0 164 -80 256t-207 92q-129 0 -254 -143q-55 -61 -98 -144q0 -12 1 -26.5t2 -22.5t1 -12v-543q0 -31 31 -31h123q31 0 31 -30.5t-31 -30.5h-369q-31 0 -30.5 30.5t30.5 30.5h123q31 0 31 31v543 q0 164 -80 256t-207 92q-125 0 -248 -139q-55 -61 -100 -137v-615q0 -31 31 -31h123q31 0 30.5 -30.5t-30.5 -30.5h-390q-31 0 -31 30.5z" />
<glyph unicode="n" horiz-adv-x="1368" d="M73 30.5q0 30.5 31 30.5h144q31 0 31 31v840q0 31 -31 31h-144q-31 0 -30.5 30.5t30.5 30.5h205q31 0 31 -31v-114q0 -23 8 -29t25 8q166 186 366 186q190 0 295 -106.5t105 -302.5v-543q0 -31 30 -31h144q31 0 31 -30q0 -31 -31 -31h-389q-31 0 -31 30.5t31 30.5h123 q31 0 30 31v543q0 172 -88 260t-250 88q-154 0 -293 -139q-61 -61 -106 -137v-615q0 -31 31 -31h123q31 0 30.5 -30.5t-30.5 -30.5h-390q-31 0 -31 30.5z" />
<glyph unicode="o" horiz-adv-x="1212" d="M104 514q0 234 140 383q138 147 362 147t363 -147q139 -150 139 -385.5t-139 -384.5q-138 -147 -362.5 -147t-362.5 147q-140 150 -140 387zM166 512q0 -217 119 -344q121 -127 321 -127q199 0 320 127q121 131 121 344q0 211 -121 342q-120 129 -319.5 129t-319.5 -129 q-121 -131 -121 -342z" />
<glyph unicode="p" horiz-adv-x="1273" d="M39 -379q0 31 31 31h143q31 0 31 31v1249q0 31 -31 31h-143q-31 0 -31 30.5t31 30.5h204q31 0 31 -31v-114q0 -23 8.5 -29t24.5 8q55 68 147 125q100 61 230 61q205 0 327 -143q123 -144 123 -399q0 -233 -146.5 -367.5t-406.5 -134.5h-276q-31 0 -31 -31v-286 q0 -31 31 -31h164q31 0 30.5 -31t-30.5 -31h-430q-31 0 -31 31zM305 92q0 -31 31 -31h276q236 0 364 115t128 326q0 229 -105.5 355t-283.5 126q-166 0 -305 -139q-61 -61 -105 -137v-615z" />
<glyph unicode="q" horiz-adv-x="1253" d="M109 502q0 255 122 399q123 143 328 143q129 0 227 -61q96 -55 150 -125q16 -14 24.5 -8t8.5 29v114q0 31 30.5 31t30.5 -31v-1310q0 -31 31 -31h143q31 0 31 -31t-31 -31h-430q-31 0 -31 31t31 31h164q31 0 31 31v286q0 31 -31 31h-276q-260 0 -406.5 134t-146.5 368z M170 502q0 -211 129 -326t363 -115h276q31 0 31 31v615q-43 76 -105 137q-139 139 -305 139q-178 0 -283.5 -126t-105.5 -355z" />
<glyph unicode="r" horiz-adv-x="1038" d="M104 61h144q31 0 31 31v840q0 31 -31 31h-144q-31 0 -31 30l1 1q0 30 30 30h205q31 0 31 -31v-162q0 -49 33 -14q195 227 479 227h100q31 0 31 -30v-256q0 -31 -30.5 -31t-30.5 31v194q0 31 -31 31h-39q-178 0 -307 -91t-205 -226v-574q0 -31 31 -31h164q31 0 30.5 -30.5 t-30.5 -30.5h-431q-31 0 -31 30q0 31 31 31z" />
<glyph unicode="s" horiz-adv-x="1134" d="M123 31v327q0 31 30.5 31t30.5 -31v-102q43 -61 103 -109q131 -106 307 -106q174 0 271.5 61.5t97.5 163.5q0 92 -89 142q-70 39 -269 69.5t-245 42.5q-115 33 -176 91.5t-61 166.5q0 106 110.5 186t298.5 80q203 0 357 -153q18 -16 25.5 -8t7.5 28v82q0 31 30.5 31 t30.5 -31v-327q0 -31 -30.5 -31t-30.5 31v102q-53 68 -103 106q-133 109 -287 109q-168 0 -258 -60.5t-90 -144.5q0 -98 82 -151q53 -33 138 -53.5t204 -38t174 -29.5q115 -27 178.5 -82t63.5 -158q0 -127 -110.5 -206.5t-319.5 -79.5q-113 0 -214 46t-163 107 q-33 33 -33 -20v-82q0 -31 -30.5 -31t-30.5 31z" />
<glyph unicode="t" horiz-adv-x="825" d="M61 1024h144q31 0 31 31v348q0 31 30.5 31t30.5 -31v-348q0 -31 31 -31h348q31 0 31 -30.5t-31 -30.5h-348q-31 0 -31 -31v-594q0 -145 64.5 -221t181.5 -76q113 0 225 102q23 20 43 0q9 -9 9 -20q0 -13 -13 -27q-116 -116 -262 -116h-2q-143 0 -225 93t-82 265v594 q0 31 -31 31h-144q-31 0 -31 30q0 31 31 31z" />
<glyph unicode="u" horiz-adv-x="1331" d="M22 993.5q0 30.5 31 30.5h205q31 0 31 -31v-604q0 -172 89 -260t249 -88q154 0 291 137q68 72 108 139v615q0 31 -31 31h-143q-31 0 -31 30.5t31 30.5h205q31 0 30 -31v-901q0 -31 31 -31h144q31 0 31 -30q0 -31 -31 -31h-205q-31 0 -31 31v114q0 23 -8 29t-25 -8 q-166 -186 -366 -186q-190 0 -295 106.5t-105 302.5v543q0 31 -30 31h-144q-31 0 -31 30.5z" />
<glyph unicode="v" horiz-adv-x="1277" d="M-2 993.5q0 30.5 31 30.5h389q31 0 31 -30.5t-31 -30.5h-127q-37 0 -21 -31l357 -834q4 -12 12 -12t12 12l357 834q16 31 -21 31h-127q-31 0 -31 30.5t31 30.5h389q31 0 31 -30.5t-31 -30.5h-133q-27 0 -41 -31l-395 -922q-16 -31 -40 -31l-1 1q-25 0 -41 30l-395 922 q-14 31 -41 31h-133q-31 0 -31 30.5z" />
<glyph unicode="w" horiz-adv-x="1769" d="M-2 993.5q0 30.5 31 30.5h389q31 0 31 -30.5t-31 -30.5h-123q-37 0 -21 -31l277 -785q4 -12 12 -12t12 12l269 846q8 31 41 31t41 -31l268 -846q4 -12 12 -12t13 12l276 785q16 31 -20 31h-123q-31 0 -31 30.5t31 30.5h389q31 0 31 -30.5t-31 -30.5h-133q-31 0 -41 -31 l-326 -922q-8 -31 -34 -31l-1 1q-26 0 -35 30l-266 840q-4 16 -20.5 16t-20.5 -16l-266 -840q-8 -31 -34 -31v1q-26 0 -36 30l-325 922q-10 31 -41 31h-133q-31 0 -31 30.5z" />
<glyph unicode="x" horiz-adv-x="1185" d="M45 30.5q0 30.5 31 30.5h123q25 0 51 31l293 408q12 18 0 37l-283 395q-18 31 -51 31h-123q-31 0 -31 30.5t31 30.5h389q31 0 31 -30.5t-31 -30.5h-123q-16 0 -23 -9.5t3 -21.5l246 -342q14 -20 28 0l248 342q10 12 3 21.5t-23 9.5h-123q-31 0 -31 30.5t31 30.5h389 q31 0 30.5 -30.5t-30.5 -30.5h-123q-33 0 -51 -31l-283 -395q-12 -18 0 -37l293 -408q27 -31 51 -31h123q31 0 31 -30.5t-31 -30.5h-389q-31 0 -31 30.5t31 30.5h123q16 0 23 9.5t-3 21.5l-258 357q-14 20 -28 0l-256 -357q-10 -12 -3 -21.5t23 -9.5h123q31 0 31 -30.5 t-31 -30.5h-389q-31 0 -31 30.5z" />
<glyph unicode="y" horiz-adv-x="1263" d="M-2 993.5q0 30.5 31 30.5h389q31 0 31 -30.5t-31 -30.5h-127q-37 0 -21 -31l387 -809q10 -29 23 0l313 809q14 31 -20 31h-127q-31 0 -31 30.5t31 30.5h389q31 0 31 -30.5t-31 -30.5h-133q-25 0 -41 -31l-389 -1004q-80 -199 -151.5 -278.5t-194.5 -79.5q-162 0 -254 117 q-27 27 -4 47q22 22 43 0q102 -102 215 -103q96 0 157.5 68t122.5 229l21 54q9 28 0 49l-424 901q-14 31 -41 31h-133q-31 0 -31 30.5z" />
<glyph unicode="z" horiz-adv-x="1101" d="M100 35q0 20 25 47l754 848q12 10 6 21.5t-29 11.5h-651q-31 0 -31 -31v-195q0 -31 -30.5 -30.5t-30.5 30.5v256q0 31 30 31h826q30 0 30 -33q0 -20 -24 -49l-754 -848q-12 -10 -6 -21.5t29 -11.5h653q31 0 31 31v195q0 31 30.5 30.5t30.5 -30.5v-256q0 -31 -31 -31h-827 q-31 0 -31 35z" />
<glyph unicode="{" horiz-adv-x="663" d="M43 635q0 31 31 31h20q195 4 195 204v461q0 123 71.5 194.5t194.5 71.5h31q31 0 30.5 -30.5t-30.5 -30.5h-31q-205 0 -205 -205v-461q0 -180 -143 -235q143 -55 143 -236v-460q0 -205 205 -205h31q31 0 30.5 -31t-30.5 -31h-31q-123 0 -194.5 72t-71.5 195v460 q0 199 -195 205h-20q-31 0 -31 31z" />
<glyph unicode="|" horiz-adv-x="503" d="M221 -379v1782q0 31 31 31t31 -31v-1782q0 -31 -31 -31t-31 31z" />
<glyph unicode="}" horiz-adv-x="663" d="M47 -297q0 31 31 31h31q205 0 204 205v460q0 180 144 236q-143 55 -144 235v461q0 205 -204 205h-31q-31 0 -31 30.5t31 30.5h31q123 0 194.5 -71.5t71.5 -194.5v-461q0 -201 194 -204h21q31 0 31 -31t-31 -31h-21q-195 -6 -194 -205v-460q0 -123 -72 -195t-194 -72h-31 q-31 0 -31 31z" />
<glyph unicode="~" horiz-adv-x="1073" d="M160 573q0 205 205 205q102 0 184 -98q88 -96 164 -96q143 0 143 143q0 31 31 31t31 -31q0 -205 -205 -205q-98 0 -187 96q-82 98 -161 99q-143 0 -144 -144q0 -31 -30.5 -31t-30.5 31z" />
<glyph unicode="&#xa0;" d="M84 287q0 131 111.5 219t298.5 88h337q31 0 31 31v82q0 119 -90 197.5t-229 78.5q-197 0 -332 -104q-27 -20 -43 4q-18 25 4 41q150 120 371 120q172 0 276 -98q104 -95 105 -239v-615q0 -31 30 -31h144q31 0 30.5 -30.5t-30.5 -30.5h-205q-31 0 -31 31v114q0 23 -8 29 t-25 -8q-53 -68 -149 -127q-102 -59 -227 -59q-174 0 -271.5 86t-97.5 221zM145 286.5q0 -110.5 81 -178t227 -67.5q168 0 305 137q61 61 104 139v185q0 31 -31 30h-337q-172 0 -260.5 -67.5t-88.5 -178zM383 1310.5q0 69.5 45 116.5q47 47 119 48q70 0 117 -47.5t47 -117 t-47.5 -116.5t-116.5 -47q-72 0 -119 47q-45 47 -45 116.5zM444 1310.5q0 -46.5 27 -75.5q29 -27 76 -27t74 27q29 29 28.5 76t-28.5 73q-27 29 -74 29t-76 -29q-27 -27 -27 -73.5z" />
<glyph unicode="&#xa1;" horiz-adv-x="491" d="M143 942q0 47 27 74q29 29 76 28.5t73 -28.5q29 -27 29 -74t-29 -76q-27 -27 -73.5 -27t-75.5 27q-27 29 -27 76zM215 -379v1024q0 31 30.5 31t30.5 -31v-1024q0 -31 -30.5 -31t-30.5 31z" />
<glyph unicode="&#xa2;" horiz-adv-x="1183" d="M117 512q0 236 129 383q125 145 311 149v113q0 31 30.5 31t30.5 -31v-115q166 -18 306 -151q33 -31 32 20v82q0 31 31 31t31 -31v-327q0 -31 -31 -31t-31 31v102q-45 59 -102 106q-111 90 -236 105v-938q203 6 355 147q20 16 45 -8q20 -25 -2 -43q-166 -152 -398 -157 v-113q0 -31 -30.5 -31t-30.5 31v115q-186 12 -307 145q-133 152 -133 385zM178 512q0 -215 117 -344q109 -115 262 -127v942q-158 -6 -268 -131q-111 -131 -111 -340z" />
<glyph unicode="&#xa3;" horiz-adv-x="1183" d="M73 30.5q0 30.5 31 30.5q100 0 163 78t63 219v308q0 31 -31 30h-143q-31 0 -31 31t31 31h143q31 0 31 30v287q0 180 82 279.5t225 99.5q137 0 222 -88t85 -229q0 -31 -30.5 -31t-30.5 31q0 117 -67.5 186.5t-178.5 69.5q-115 0 -180.5 -82t-65.5 -236v-287q0 -31 31 -30 h246q31 0 30.5 -31t-30.5 -31h-246q-31 0 -31 -30v-308q0 -209 -112 -297h542q94 0 160 67t66 169q0 31 30.5 31t30.5 -31q0 -129 -82 -213t-205 -84h-717q-31 0 -31 30.5z" />
<glyph unicode="&#xa4;" horiz-adv-x="1337" d="M133 30.5q0 30.5 31 30.5h143q31 0 31 31v277q0 31 -31 30h-143q-31 0 -31 31t31 31h143q31 0 31 31v92q0 31 -31 30h-143q-31 0 -31 31t31 31h143q31 0 31 31v634q0 31 -31 31h-143q-31 0 -31 31t31 31h686q197 0 303.5 -106.5t106.5 -303.5t-106.5 -303.5 t-303.5 -106.5h-420q-31 0 -31 -30v-92q0 -31 31 -31h574q31 0 30.5 -31t-30.5 -31h-574q-31 0 -31 -30v-277q0 -31 31 -31h164q31 0 31 -30.5t-31 -30.5h-430q-31 0 -31 30.5zM399 707q0 -31 31 -31h420q170 0 259 89t89 259t-89 259t-259 89h-420q-31 0 -31 -31v-634z" />
<glyph unicode="&#xa5;" horiz-adv-x="1439" d="M57 1403q0 31 31 31h389q31 0 31 -31t-31 -31h-123q-16 0 -22 -9t2 -22l371 -647q14 -20 28 0l373 647q8 12 2 21.5t-23 9.5h-122q-31 0 -31 31t31 31h389q31 0 30.5 -31t-30.5 -31h-123q-33 0 -51 -31l-396 -686q-16 -31 21 -30h235q31 0 31 -31t-31 -31h-256 q-31 0 -30 -31v-122q0 -31 30 -31h256q31 0 31 -31t-31 -31h-256q-31 0 -30 -30v-195q0 -31 30 -31h144q31 0 30.5 -30.5t-30.5 -30.5h-410q-31 0 -31 30.5t31 30.5h143q31 0 31 31v195q0 31 -31 30h-256q-31 0 -30.5 31t30.5 31h256q31 0 31 31v122q0 31 -31 31h-256 q-31 0 -30.5 31t30.5 31h236q34 0 18 30l-395 686q-18 31 -51 31h-123q-31 0 -31 31z" />
<glyph unicode="&#xa6;" horiz-adv-x="524" d="M231 338q0 31 31 31t31 -31v-717q0 -31 -31 -31t-31 31v717zM231 686v717q0 31 31 31t31 -31v-717q0 -31 -31 -31t-31 31z" />
<glyph unicode="&#xa7;" horiz-adv-x="1191" d="M129 553q0 92 57.5 163.5t159.5 100.5q25 10 0 21q-100 41 -152.5 102t-52.5 166q0 145 116 236.5t335 91.5q123 0 235.5 -36t176.5 -85q23 -16 4 -41q-16 -25 -43 -4q-49 37 -154.5 70.5t-218.5 33.5q-193 0 -291 -72.5t-98 -193.5q0 -84 54 -134t159 -91 q59 -23 204.5 -63t215.5 -66q227 -86 227 -281q0 -90 -58.5 -162.5t-158.5 -101.5q-25 -10 0 -21q100 -41 152.5 -102.5t52.5 -165.5q0 -145 -116 -236.5t-335 -91.5q-125 0 -239.5 36t-172.5 85q-23 16 -4 41q16 25 43 4q49 -37 154.5 -70.5t218.5 -33.5q190 0 289.5 72.5 t99.5 193.5q0 84 -54 134t-159 91q-59 23 -204.5 63t-215.5 66q-227 86 -227 281zM190 553q0 -129 115 -191q58 -32 246 -83l123 -33q160 0 243.5 63.5t83.5 161.5q0 129 -114 191q-57 33 -246 83l-123 33q-160 0 -244 -64.5t-84 -160.5z" />
<glyph unicode="&#xa8;" horiz-adv-x="491" d="M0 1229q0 35 23 57q25 25 59.5 25t56.5 -25q25 -23 25 -57.5t-25 -59.5q-23 -23 -57 -23t-59 23q-23 25 -23 60zM327.5 1229q0.5 35 22.5 57q25 25 59.5 25t57.5 -25q25 -23 25 -57.5t-25 -59.5q-23 -23 -57.5 -23t-59.5 23q-23 25 -22.5 60z" />
<glyph unicode="&#xa9;" horiz-adv-x="1798" d="M111 717q0 342 227 569q229 229 561 229.5t559 -229.5q229 -227 229.5 -569t-229.5 -572q-227 -227 -559 -227q-330 0 -561 227q-227 230 -227 572zM172 716.5q0 -325.5 205 -530.5q207 -207 522 -206q313 0 520 206.5t207 530t-207 530.5t-520 207q-315 0 -522 -207 q-205 -205 -205 -530.5zM469 717q0 219 115 356q117 135 295 135h-11q172 0 316 -143q33 -25 33 20v82q0 31 30.5 31t30.5 -31v-307q0 -31 -30.5 -31t-30.5 31v82q-33 43 -101 102q-127 102 -237 103q-152 0 -250.5 -117t-98.5 -313q0 -199 105 -316q104 -115 274 -114 q219 0 346 207q16 23 39 4q14 -8 15 -21q0 -10 -11 -26q-145 -225 -389 -226q-199 0 -319 133q-121 138 -121 359z" />
<glyph unicode="&#xaa;" horiz-adv-x="860" d="M123 983q0 96 63.5 150.5t182.5 54.5h153q31 0 31 31v8q0 156 -164 155q-111 0 -180 -75q-22 -22 -43.5 -0.5t0.5 43.5q33 41 94.5 67.5t128.5 26.5q104 0 164.5 -59.5t60.5 -157.5v-336q0 -31 31 -31h41q31 0 31 -30.5t-31 -30.5h-102q-31 0 -31 30v52q-20 -20 -57 -47 q-76 -45 -148 -46q-100 0 -162.5 52.5t-62.5 142.5zM184 983q0 -57 47.5 -95t126.5 -38q65 0 136 55q34 27 59 58v133q0 31 -31 30h-153q-88 0 -136.5 -38.5t-48.5 -104.5z" />
<glyph unicode="&#xab;" horiz-adv-x="1021" d="M80 510q0 17 16 33l473 471q20 20 43 0q22 -22 0 -43l-442 -443q-18 -18 0 -36l438 -439q22 -22 0 -43q-23 -20 -43 0l-467 465q-18 18 -18 35zM428 510q0 17 16 33l381 379q23 20 43.5 -0.5t-0.5 -42.5l-350 -351q-18 -18 0 -36l346 -347q20 -23 0 -43t-43 0l-375 373 q-18 18 -18 35z" />
<glyph unicode="&#xac;" horiz-adv-x="1212" d="M188 676q0 31 31 31h799q31 0 31 -31v-215q0 -31 -31 -31t-31 31v153q0 31 -31 31h-737q-31 0 -31 31z" />
<glyph unicode="&#xad;" d="M155 655.5q0 30.5 31 30.5h799q31 0 31 -30.5t-31 -30.5h-799q-31 0 -31 30.5z" />
<glyph unicode="&#xae;" horiz-adv-x="1798" d="M111 717q0 342 227 569q229 229 561 229.5t559 -229.5q229 -227 229.5 -569t-229.5 -572q-227 -227 -559 -227q-330 0 -561 227q-227 230 -227 572zM172 716.5q0 -325.5 205 -530.5q207 -207 522 -206q313 0 520 206.5t207 530t-207 530.5t-520 207q-315 0 -522 -207 q-205 -205 -205 -530.5zM469 256q0 31 31 31h102q31 0 31 30v779q0 31 -31 30h-102q-31 0 -31 31t31 31h491q135 0 216 -72t81 -184.5t-81 -184t-216 -71.5q-16 0 -23 -9.5t3 -21.5l213 -328q29 -31 51 -30h92q31 0 31 -31t-31 -31h-297q-31 0 -31 31t31 31h68q37 0 10 30 l-234 359h-149q-31 0 -31 -31v-328q0 -31 31 -30h61q31 0 31 -31t-31 -31h-286q-31 0 -31 31zM694 768q0 -31 31 -31h266q109 0 172.5 55.5t63.5 139.5t-63.5 139t-172.5 55h-266q-31 1 -31 -30v-328z" />
<glyph unicode="&#xb0;" horiz-adv-x="901" d="M113 1105.5q0 145.5 96 248.5q94 100 241.5 100t241.5 -100q96 -102 96 -247.5t-96 -248.5q-94 -100 -241.5 -100t-241.5 100q-96 102 -96 247.5zM174 1106q0 -123 80 -205t196.5 -82t196.5 82t80 205t-80 205t-196.5 82t-196.5 -82t-80 -205z" />
<glyph unicode="&#xb1;" horiz-adv-x="1046" d="M92 205q0 31 31 31h799q31 0 30.5 -31t-30.5 -31h-799q-31 0 -31 31zM92 655.5q0 30.5 31 30.5h328q31 0 30 31v338q0 31 31 30.5t31 -30.5v-338q0 -31 30 -31h349q31 0 30.5 -30.5t-30.5 -30.5h-349q-31 0 -30 -31v-256q0 -31 -31 -31t-31 31v256q0 31 -30 31h-328 q-31 0 -31 30.5z" />
<glyph unicode="&#xb2;" horiz-adv-x="821" d="M154 829v62q0 86 69.5 141t155.5 74q86 23 153 57q72 41 72 97q0 123 -205 122q-125 0 -202 -84q-15 -28 -43 0q-20 20 0 43q102 102 245 103q266 0 267 -184q0 -117 -158 -173l-135 -40q-158 -47 -158 -156q0 -31 31 -31h327q31 0 31 31v51q0 31 31 31t31 -31v-113 q0 -31 -31 -30h-451q-30 -1 -30 30z" />
<glyph unicode="&#xb3;" horiz-adv-x="780" d="M145 891q-22 22 0 43t43 0q33 -37 89.5 -60.5t115.5 -23.5q195 0 195 113q0 61 -43 97t-121 36h-133q-31 0 -31 30q0 29 31 29h133q143 0 143 115q0 113 -184 112q-121 0 -190 -75q-22 -22 -43 0q-25 22 0 43q33 39 100 66.5t133 27.5q119 0 182.5 -46t63.5 -128 q0 -100 -103 -144q123 -45 123 -163q0 -82 -65.5 -128.5t-190.5 -46.5q-72 0 -141.5 30t-106.5 73z" />
<glyph unicode="&#xb4;" horiz-adv-x="249" d="M8 1196l182 260q18 31 43 8q27 -14 9 -41l-185 -262q-18 -22 -43 -6q-24 16 -6 41z" />
<glyph unicode="&#xb5;" horiz-adv-x="1409" d="M75 993.5q0 30.5 31 30.5h205q31 0 31 -31v-622q0 -162 91 -246t257 -84q152 0 287 143q55 57 102 144v604q0 31 -30 31h-144q-31 0 -31 30.5t31 30.5h205q31 0 31 -31v-901q0 -31 30 -31h144q31 0 31 -30.5t-31 -30.5h-205q-31 0 -31 31v114q0 51 -32 21 q-166 -186 -357 -186q-246 0 -348 163v-522q0 -31 -30.5 -31t-30.5 31v1311q0 31 -31 31h-144q-31 0 -31 30.5z" />
<glyph unicode="&#xb6;" horiz-adv-x="1505" d="M76 942.5q0 231.5 135 361.5t367 130h829q31 0 31 -31t-31 -31h-205q-31 0 -31 -31v-1720q0 -31 -30.5 -31t-30.5 31v1720q0 31 -31 31h-286q-31 0 -31 -31v-1720q0 -31 -31 -31t-31 31v799q1 31 -30 31h-92q-231 0 -366.5 130t-135.5 361.5zM137 942q0 -209 115 -319.5 t326 -110.5h92q31 0 30 31v798q0 31 -30 31h-92q-211 0 -326 -110.5t-115 -319.5z" />
<glyph unicode="&#xb7;" horiz-adv-x="516" d="M155.5 717q0.5 47 26.5 74q29 29 76 28.5t74 -28.5q29 -27 28.5 -74t-28.5 -76q-27 -27 -74 -27t-76 27q-27 29 -26.5 76z" />
<glyph unicode="&#xb8;" horiz-adv-x="235" d="M0 -338q0 31 31 31q143 0 143 82q0 37 -26.5 59.5t-75.5 22.5h-31q-31 0 -31 30v113q0 31 31 31t31 -31v-82q74 0 119 -40t45 -103q0 -143 -205 -144q-31 0 -31 31z" />
<glyph unicode="&#xb9;" horiz-adv-x="632" d="M119 1266q0 14 14 22l152 125q43 31 55 31q41 0 41 -31v-522q0 -31 31 -31h82q31 0 30.5 -30.5t-30.5 -30.5h-287q-31 0 -31 30.5t31 30.5h82q31 0 30 31v450q0 23 -28 0l-117 -100q-22 -21 -45 2q-10 14 -10 23z" />
<glyph unicode="&#xba;" horiz-adv-x="811" d="M119 1116q0 150 80 238q84 90 207 90q125 0 204 -90q82 -88 82 -238q0 -152 -82 -239q-80 -88 -204.5 -88t-206.5 88q-80 89 -80 239zM180.5 1116q-0.5 -126 61.5 -196q61 -70 163.5 -70t163.5 70q61 71 61.5 196.5t-61.5 196.5q-61 70 -163.5 70t-163.5 -70 q-61 -71 -61.5 -197z" />
<glyph unicode="&#xbb;" horiz-adv-x="1021" d="M154 879q-25 22 0 43q22 22 43 0l381 -379q16 -16 16 -32.5t-19 -35.5l-374 -373q-22 -22 -43 0q-25 22 0 43l346 347q18 18 0 36zM410 971q-23 23 0 43q21 15 43 0l473 -471q16 -16 16 -32.5t-18 -35.5l-467 -465q-23 -23 -43.5 0t0.5 43l438 439q18 18 0 36z" />
<glyph unicode="&#xbc;" horiz-adv-x="1376" d="M90 1268q0 14 14 22l152 125q43 31 55 31q41 0 41 -31v-522q0 -31 31 -31h82q31 0 31 -30.5t-31 -30.5h-287q-31 0 -31 30.5t31 30.5h82q31 0 31 31v450q0 20 -29 0l-117 -100q-22 -23 -45 2q-10 14 -10 23zM205 29q0 10 8 18l887 1370q8 14 24 15q4 0 17 -5 q27 -20 8 -41l-885 -1372q-16 -23 -41 -10q-18 9 -18 25zM705 180v10q0 8 6 15q109 92 156.5 186t47.5 234q0 31 31 30.5t31 -30.5q0 -129 -42 -234.5t-112 -165.5h267q31 0 30 31v217q0 31 31 31t31 -31v-217q0 -31 30 -31h62q31 0 31 -30.5t-31 -30.5h-62q-31 0 -30 -31 v-113q0 -31 -31 -30.5t-31 30.5v113q0 31 -30 31h-359q-20 0 -26 16z" />
<glyph unicode="&#xbd;" horiz-adv-x="1380" d="M80 1268q0 14 14 22l152 125q43 31 55 31q41 0 41 -31v-522q0 -31 31 -31h82q31 0 30.5 -30.5t-30.5 -30.5h-287q-31 0 -31 30.5t31 30.5h82q31 0 31 31v450q0 20 -29 0l-117 -100q-20 -23 -45 2q-10 14 -10 23zM195 29q0 10 8 18l887 1370q8 14 24 15q4 0 16 -5 q29 -20 9 -41l-885 -1372q-8 -14 -25 -14q-4 0 -16 4q-18 9 -18 25zM768 31v61q0 86 69.5 141.5t155.5 73.5q86 23 154 58q72 41 72 96q0 123 -205 123q-125 0 -203 -84q-15 -28 -43 0q-22 22 0 43q102 102 246 102q266 0 266 -184q0 -123 -158 -170l-133 -43 q-160 -47 -160 -156q0 -31 31 -31h328q31 0 31 31v51q0 31 30.5 31t30.5 -31v-112q0 -31 -31 -31h-450q-31 0 -31 31z" />
<glyph unicode="&#xbe;" horiz-adv-x="1445" d="M111 891q-20 23 0 43q22 22 43 0q33 -37 89 -60.5t115 -23.5q195 0 195 113q0 61 -43 97t-121 36h-133q-31 0 -31 30q0 29 31 29h133q143 0 143 115q0 113 -184 112q-121 0 -190 -75q-22 -22 -43.5 -0.5t0.5 43.5q33 39 100.5 66.5t132.5 27.5q119 0 182.5 -46t63.5 -128 q0 -100 -102 -144q123 -45 122 -163q0 -82 -65.5 -128.5t-190.5 -46.5q-72 0 -141 30t-106 73zM274 29q1 10 9 18l886 1370q8 14 25 15q4 0 16 -5q29 -20 9 -41l-885 -1372q-16 -23 -41 -10q-18 9 -19 25zM774 180v10q0 8 6 15q109 92 157 186t48 234q0 31 31 30.5t31 -30.5 q0 -129 -42 -234.5t-112 -165.5h266q31 0 31 31v217q0 31 30.5 31t30.5 -31v-217q0 -31 31 -31h61q31 0 31 -30.5t-31 -30.5h-61q-31 0 -31 -31v-113q0 -31 -30.5 -30.5t-30.5 30.5v113q0 31 -31 31h-358q-21 0 -27 16z" />
<glyph unicode="&#xbf;" horiz-adv-x="1089" d="M82 -41q0 195 174 330l92 71q82 61 128 126t46 159q0 31 31 31t31 -31q0 -186 -154 -307l-131 -94q-156 -113 -156 -285q0 -131 111 -229.5t299 -98.5q190 0 300 93.5t110 255.5q0 31 30.5 30.5t30.5 -30.5q0 -188 -126 -299t-345 -111q-221 0 -346 117 q-125 112 -125 272zM451 942q0 45 28.5 73.5t73.5 28.5t73.5 -28.5t28.5 -73.5t-28.5 -73.5t-73.5 -28.5t-73.5 28.5t-28.5 73.5z" />
<glyph unicode="&#xc0;" horiz-adv-x="1482" d="M-20.5 30.5q0.5 30.5 30.5 30.5h133q25 0 41 31l512 1331q10 31 46 31t44 -31l512 -1331q16 -31 41 -31h134q31 0 30.5 -30.5t-30.5 -30.5h-390q-31 0 -30.5 30.5t30.5 30.5h123q35 0 21 31l-146 379q-12 29 -49 29h-581q-37 0 -50 -29l-145 -379q-14 -31 20 -31h123 q31 0 31 -30.5t-31 -30.5h-389q-31 0 -30.5 30.5zM449 592q-14 -31 22 -31h541q36 0 22 31l-280 729q-4 12 -12.5 12t-12.5 -12zM518 1843q0 10 17 21q10 10 20 10q14 0 23 -19l182 -260q8 -8 8 -20t-14 -21q-12 -6 -21 -6q-12 1 -22 13l-185 262q-8 8 -8 20z" />
<glyph unicode="&#xc1;" horiz-adv-x="1482" d="M-20.5 30.5q0.5 30.5 30.5 30.5h133q25 0 41 31l512 1331q10 31 46 31t44 -31l512 -1331q16 -31 41 -31h134q31 0 30.5 -30.5t-30.5 -30.5h-390q-31 0 -30.5 30.5t30.5 30.5h123q35 0 21 31l-146 379q-12 29 -49 29h-581q-37 0 -50 -29l-145 -379q-14 -31 20 -31h123 q31 0 31 -30.5t-31 -30.5h-389q-31 0 -30.5 30.5zM449 592q-14 -31 22 -31h541q36 0 22 31l-280 729q-4 12 -12.5 12t-12.5 -12zM711 1574.5q0 12.5 8 20.5l182 260q8 18 23 19q10 0 20 -10q16 -10 17 -21q0 -12 -9 -20l-184 -262q-9 -12 -25 -13q-9 0 -18 6q-14 8 -14 20.5 z" />
<glyph unicode="&#xc2;" horiz-adv-x="1482" d="M-20.5 30.5q0.5 30.5 30.5 30.5h133q25 0 41 31l512 1331q10 31 46 31t44 -31l512 -1331q16 -31 41 -31h134q31 0 30.5 -30.5t-30.5 -30.5h-390q-31 0 -30.5 30.5t30.5 30.5h123q35 0 21 31l-146 379q-12 29 -49 29h-581q-37 0 -50 -29l-145 -379q-14 -31 20 -31h123 q31 0 31 -30.5t-31 -30.5h-389q-31 0 -30.5 30.5zM449 592q-14 -31 22 -31h541q36 0 22 31l-280 729q-4 12 -12.5 12t-12.5 -12zM477 1529q-4 16 8 30l220 223q18 18 34.5 18t32.5 -16l225 -225q16 -14 10 -31t-22 -20t-31 8l-196 194q-18 18 -37 0l-193 -194 q-12 -12 -29.5 -7.5t-21.5 20.5z" />
<glyph unicode="&#xc3;" horiz-adv-x="1482" d="M-20.5 30.5q0.5 30.5 30.5 30.5h133q25 0 41 31l512 1331q10 31 46 31t44 -31l512 -1331q16 -31 41 -31h134q31 0 30.5 -30.5t-30.5 -30.5h-390q-31 0 -30.5 30.5t30.5 30.5h123q35 0 21 31l-146 379q-12 29 -49 29h-581q-37 0 -50 -29l-145 -379q-14 -31 20 -31h123 q31 0 31 -30.5t-31 -30.5h-389q-31 0 -30.5 30.5zM449 592q-14 -31 22 -31h541q36 0 22 31l-280 729q-4 12 -12.5 12t-12.5 -12zM485 1559q0 86 40 135t104 49q45 0 77.5 -23.5t49 -53.5t42 -53.5t56.5 -23.5q82 0 82 123q0 31 30.5 31t30.5 -31q0 -88 -38.5 -136 t-104.5 -48q-57 0 -93 39t-64.5 76.5t-67.5 37.5q-82 0 -82 -122q0 -31 -31 -31t-31 31z" />
<glyph unicode="&#xc4;" horiz-adv-x="1482" d="M-20.5 30.5q0.5 30.5 30.5 30.5h133q25 0 41 31l512 1331q10 31 46 31t44 -31l512 -1331q16 -31 41 -31h134q31 0 30.5 -30.5t-30.5 -30.5h-390q-31 0 -30.5 30.5t30.5 30.5h123q35 0 21 31l-146 379q-12 29 -49 29h-581q-37 0 -50 -29l-145 -379q-14 -31 20 -31h123 q31 0 31 -30.5t-31 -30.5h-389q-31 0 -30.5 30.5zM449 592q-14 -31 22 -31h541q36 0 22 31l-280 729q-4 12 -12.5 12t-12.5 -12zM495.5 1607.5q0.5 34.5 22.5 57.5q25 25 59.5 25t57.5 -25q25 -23 24.5 -57.5t-24.5 -59.5q-23 -23 -57.5 -23t-59.5 23q-23 25 -22.5 59.5z M823 1607.5q0 34.5 23 57.5q25 25 59.5 25t57.5 -25q25 -23 24.5 -57.5t-24.5 -59.5q-23 -23 -57.5 -23t-59.5 23q-23 25 -23 59.5z" />
<glyph unicode="&#xc5;" horiz-adv-x="1484" d="M-20.5 30.5q0.5 30.5 30.5 30.5h133q25 0 41 31l504 1309q-109 37 -108 155q0 70 45 117t116.5 47t118.5 -47t47 -117q0 -55 -29.5 -97t-82.5 -58l503 -1309q16 -31 41 -31h134q31 0 30.5 -30.5t-30.5 -30.5h-390q-31 0 -30.5 30.5t30.5 30.5h123q35 0 21 31l-146 379 q-12 29 -49 29h-581q-37 0 -50 -29l-145 -379q-14 -31 20 -31h123q31 0 31 -30.5t-31 -30.5h-389q-31 0 -30.5 30.5zM449 592q-14 -31 22 -31h541q36 0 22 31l-280 729q-4 12 -12.5 12t-12.5 -12zM641 1556.5q0 -47.5 28.5 -75t71.5 -27.5t72 27.5t29 75t-29 75t-72 27.5 t-71.5 -27.5t-28.5 -75z" />
<glyph unicode="&#xc6;" horiz-adv-x="1974" d="M-49 30.5q0 30.5 31 30.5h133q25 0 41 31l721 1301q18 41 53 41h885q31 0 30 -31v-287q0 -31 -30.5 -31t-30.5 31v225q0 31 -31 31h-645q-31 0 -31 -31v-553q0 -31 31 -30h461q31 0 30 30v103q0 31 31 31t31 -31v-328q0 -31 -31 -31t-31 31v103q0 31 -30 30h-461 q-31 0 -31 -30v-574q0 -31 31 -31h666q31 0 30 31v225q0 31 31 31t31 -31v-286q0 -31 -31 -31h-973q-31 0 -31 30.5t31 30.5h123q31 0 31 31v430q0 31 -31 31h-469q-37 0 -49 -29l-240 -432q-14 -31 21 -31h123q31 0 30.5 -30.5t-30.5 -30.5h-389q-31 0 -31 30.5zM535 645 q-14 -31 22 -31h428q31 0 31 31v696q0 31 -31 31h-22q-25 0 -41 -31z" />
<glyph unicode="&#xc7;" horiz-adv-x="1425" d="M121 717q0 322 180 526q180 211 465 211q250 0 448 -174q33 -27 33 20v103q0 31 31 31t31 -31v-389q0 -31 -31 -31t-31 31v143q-55 65 -129 117q-168 119 -352 119q-252 0 -418 -192.5t-166 -483.5q0 -295 172 -485.5t453 -190.5q293 0 469 186q22 22 43 0.5t0 -43.5 q-209 -205 -512 -204q-309 0 -498 206q-188 214 -188 531zM721 -338q0 31 31 31q143 0 143 82q0 37 -26.5 59.5t-75.5 22.5h-31q-31 0 -31 30v113q0 31 31 31t31 -31v-82q74 0 118.5 -40t44.5 -103q0 -143 -204 -144q-31 0 -31 31z" />
<glyph unicode="&#xc8;" horiz-adv-x="1257" d="M94 30.5q0 30.5 31 30.5h143q31 0 31 31v1249q0 31 -31 31h-143q-31 0 -31 31t31 31h973q31 0 30 -31v-287q0 -31 -30.5 -31t-30.5 31v225q0 31 -31 31h-645q-31 0 -31 -31v-553q0 -31 31 -30h461q31 0 31 30v103q0 31 30.5 31t30.5 -31v-328q0 -31 -30.5 -31t-30.5 31 v103q0 31 -31 30h-461q-31 0 -31 -30v-574q0 -31 31 -31h666q31 0 30 31v225q0 31 31 31t31 -31v-286q0 -31 -31 -31h-993q-31 0 -31 30.5zM475 1853q0 10 17 21q10 10 20 10q12 0 23 -18l182 -260q8 -8 8 -20.5t-14 -20.5q-10 -6 -21 -6q-14 0 -22 12l-185 262q-8 8 -8 20z " />
<glyph unicode="&#xc9;" horiz-adv-x="1257" d="M94 30.5q0 30.5 31 30.5h143q31 0 31 31v1249q0 31 -31 31h-143q-31 0 -31 31t31 31h973q31 0 30 -31v-287q0 -31 -30.5 -31t-30.5 31v225q0 31 -31 31h-645q-31 0 -31 -31v-553q0 -31 31 -30h461q31 0 31 30v103q0 31 30.5 31t30.5 -31v-328q0 -31 -30.5 -31t-30.5 31 v103q0 31 -31 30h-461q-31 0 -31 -30v-574q0 -31 31 -31h666q31 0 30 31v225q0 31 31 31t31 -31v-286q0 -31 -31 -31h-993q-31 0 -31 30.5zM598 1564.5q0 12.5 8 20.5l182 260q10 18 23 19q10 0 20 -11q16 -10 17 -20q0 -12 -8 -21l-185 -262q-8 -12 -22 -12q-10 0 -21 6 q-14 8 -14 20.5z" />
<glyph unicode="&#xca;" horiz-adv-x="1257" d="M94 30.5q0 30.5 31 30.5h143q31 0 31 31v1249q0 31 -31 31h-143q-31 0 -31 31t31 31h973q31 0 30 -31v-287q0 -31 -30.5 -31t-30.5 31v225q0 31 -31 31h-645q-31 0 -31 -31v-553q0 -31 31 -30h461q31 0 31 30v103q0 31 30.5 31t30.5 -31v-328q0 -31 -30.5 -31t-30.5 31 v103q0 31 -31 30h-461q-31 0 -31 -30v-574q0 -31 31 -31h666q31 0 30 31v225q0 31 31 31t31 -31v-286q0 -31 -31 -31h-993q-31 0 -31 30.5zM385 1569q-20 20 0 43l219 223q18 18 34.5 18t33.5 -16l225 -225q20 -23 0 -43.5t-43 0.5l-197 194q-18 18 -36 0l-193 -194 q-23 -20 -43 0z" />
<glyph unicode="&#xcb;" horiz-adv-x="1257" d="M94 30.5q0 30.5 31 30.5h143q31 0 31 31v1249q0 31 -31 31h-143q-31 0 -31 31t31 31h973q31 0 30 -31v-287q0 -31 -30.5 -31t-30.5 31v225q0 31 -31 31h-645q-31 0 -31 -31v-553q0 -31 31 -30h461q31 0 31 30v103q0 31 30.5 31t30.5 -31v-328q0 -31 -30.5 -31t-30.5 31 v103q0 31 -31 30h-461q-31 0 -31 -30v-574q0 -31 31 -31h666q31 0 30 31v225q0 31 31 31t31 -31v-286q0 -31 -31 -31h-993q-31 0 -31 30.5zM415.5 1659q0.5 35 22.5 57q25 25 59.5 25t57.5 -25q25 -23 25 -57.5t-25 -59.5q-23 -23 -57.5 -23t-59.5 23q-23 25 -22.5 60z M743 1659q0 35 23 57q25 25 59.5 25t57.5 -25q25 -23 24.5 -57.5t-24.5 -59.5q-23 -23 -57.5 -23t-59.5 23q-23 25 -23 60z" />
<glyph unicode="&#xcc;" horiz-adv-x="659" d="M94 30.5q0 30.5 31 30.5h143q31 0 31 31v1249q0 31 -31 31h-143q-31 0 -31 31t31 31h410q31 0 30.5 -31t-30.5 -31h-144q-31 0 -31 -31v-1249q0 -31 31 -31h144q31 0 30.5 -30.5t-30.5 -30.5h-410q-31 0 -31 30.5zM102 1833q0 10 17 20q10 10 20 11q12 0 23 -19l182 -260 q8 -8 8 -20.5t-14 -20.5q-10 -6 -21 -6q-14 0 -22 12l-184 262q-8 8 -9 21z" />
<glyph unicode="&#xcd;" horiz-adv-x="659" d="M94 30.5q0 30.5 31 30.5h143q31 0 31 31v1249q0 31 -31 31h-143q-31 0 -31 31t31 31h410q31 0 30.5 -31t-30.5 -31h-144q-31 0 -31 -31v-1249q0 -31 31 -31h144q31 0 30.5 -30.5t-30.5 -30.5h-410q-31 0 -31 30.5zM287 1564.5q0 12.5 8 20.5l182 260q10 18 23 19 q10 0 20 -11q16 -10 17 -20q0 -12 -9 -21l-184 -262q-8 -12 -22 -12q-10 0 -21 6q-14 8 -14 20.5z" />
<glyph unicode="&#xce;" horiz-adv-x="659" d="M73.5 1568.5q-21.5 21.5 0.5 43.5l219 223q18 18 34.5 18t32.5 -16l226 -225q22 -22 0 -43.5t-43 0.5l-197 194q-18 18 -37 0l-192 -194q-22 -22 -43.5 -0.5zM94 30.5q0 30.5 31 30.5h143q31 0 31 31v1249q0 31 -31 31h-143q-31 0 -31 31t31 31h410q31 0 30.5 -31 t-30.5 -31h-144q-31 0 -31 -31v-1249q0 -31 31 -31h144q31 0 30.5 -30.5t-30.5 -30.5h-410q-31 0 -31 30.5z" />
<glyph unicode="&#xcf;" horiz-adv-x="659" d="M83.5 1659q0.5 35 22.5 57q25 25 60 25t57 -25q25 -23 25 -57.5t-25 -59.5q-23 -23 -57.5 -23t-59.5 23q-23 25 -22.5 60zM94 30.5q0 30.5 31 30.5h143q31 0 31 31v1249q0 31 -31 31h-143q-31 0 -31 31t31 31h410q31 0 30.5 -31t-30.5 -31h-144q-31 0 -31 -31v-1249 q0 -31 31 -31h144q31 0 30.5 -30.5t-30.5 -30.5h-410q-31 0 -31 30.5zM411.5 1659q0.5 35 22.5 57q25 25 59.5 25t57.5 -25q25 -23 24.5 -57.5t-24.5 -59.5q-23 -23 -57.5 -23t-59.5 23q-23 25 -22.5 60z" />
<glyph unicode="&#xd0;" horiz-adv-x="1503" d="M94 30.5q0 30.5 31 30.5h143q31 0 31 31v563q0 31 -31 31h-143q-31 0 -31 31t31 31h143q31 0 31 30v563q0 31 -31 31h-143q-31 0 -31 31t31 31h573q311 0 498 -205q188 -207 188 -512t-188 -512q-186 -205 -498 -205h-573q-31 0 -31 30.5zM360 92q0 -31 31 -31h307 q279 0 451 187q174 186 174 468.5t-174 469.5q-172 186 -451 186h-307q-31 0 -31 -31v-563q0 -31 31 -30h144q31 0 30.5 -31t-30.5 -31h-144q-31 0 -31 -31v-563z" />
<glyph unicode="&#xd1;" horiz-adv-x="1607" d="M94 30.5q0 30.5 31 30.5h143q31 0 31 31v1249q0 31 -31 31h-143q-31 0 -31 31t31 31h225q33 0 51 -31l840 -1280q4 -8 12.5 -7t8.5 17v1208q0 31 -31 31h-123q-31 0 -31 31t31 31h389q31 0 31 -31t-31 -31h-143q-31 0 -31 -31v-1249q0 -31 31 -31h143q31 0 31 -30.5 t-31 -30.5h-225q-33 0 -51 31l-840 1280q-4 8 -12.5 7t-8.5 -18v-1208q0 -31 31 -31h123q31 0 31 -30.5t-31 -30.5h-389q-31 0 -31 30.5zM535 1608q0 86 39.5 135t103.5 49q45 0 77.5 -23.5t49 -53t42 -53.5t56.5 -24q82 0 82 123q0 31 31 31t31 -31q0 -88 -39 -136 t-105 -48q-57 0 -93 39t-64.5 77t-67.5 38q-82 0 -82 -123q0 -31 -30.5 -31t-30.5 31z" />
<glyph unicode="&#xd2;" horiz-adv-x="1609" d="M119 717q0 322 188 528q187 209 497.5 209t498.5 -209q188 -207 188 -528q0 -319 -188 -531q-188 -207 -498 -207t-498 207q-188 211 -188 531zM180 717q0 -295 172 -485.5t452.5 -190.5t453 190.5t172.5 485.5t-172.5 485.5t-453 190.5t-452.5 -190.5t-172 -485.5z M598 1853q0 10 16 21q10 10 21 10q12 0 22 -18l183 -260q8 -8 8 -20.5t-14 -20.5q-10 -6 -21 -6q-14 0 -22 12l-185 262q-8 8 -8 20z" />
<glyph unicode="&#xd3;" horiz-adv-x="1609" d="M119 717q0 322 188 528q187 209 497.5 209t498.5 -209q188 -207 188 -528q0 -319 -188 -531q-188 -207 -498 -207t-498 207q-188 211 -188 531zM180 717q0 -295 172 -485.5t452.5 -190.5t453 190.5t172.5 485.5t-172.5 485.5t-453 190.5t-452.5 -190.5t-172 -485.5z M762 1585.5q0 12.5 8 20.5l182 260q10 18 23 18q10 0 20 -10q16 -10 17 -21q0 -12 -8 -20l-185 -262q-10 -12 -22 -12q-10 0 -21 6q-14 8 -14 20.5z" />
<glyph unicode="&#xd4;" horiz-adv-x="1609" d="M119 717q0 322 188 528q187 209 497.5 209t498.5 -209q188 -207 188 -528q0 -319 -188 -531q-188 -207 -498 -207t-498 207q-188 211 -188 531zM180 717q0 -295 172 -485.5t452.5 -190.5t453 190.5t172.5 485.5t-172.5 485.5t-453 190.5t-452.5 -190.5t-172 -485.5z M549 1569q-20 20 0 43l219 223q18 18 34.5 18t33.5 -16l225 -225q20 -23 -0.5 -43.5t-42.5 0.5l-197 194q-18 18 -37 0l-192 -194q-23 -20 -43 0z" />
<glyph unicode="&#xd5;" horiz-adv-x="1609" d="M119 717q0 322 188 528q187 209 497.5 209t498.5 -209q188 -207 188 -528q0 -319 -188 -531q-188 -207 -498 -207t-498 207q-188 211 -188 531zM180 717q0 -295 172 -485.5t452.5 -190.5t453 190.5t172.5 485.5t-172.5 485.5t-453 190.5t-452.5 -190.5t-172 -485.5z M549 1608q0 86 40 135t103 49q45 0 78 -23.5t49.5 -53t42 -53.5t56.5 -24q82 0 81 123q0 31 31 31t31 -31q0 -88 -39 -136t-104 -48q-57 0 -93.5 39t-65 77t-67.5 38q-82 0 -82 -123q0 -31 -30.5 -31t-30.5 31z" />
<glyph unicode="&#xd6;" horiz-adv-x="1609" d="M119 717q0 322 188 528q187 209 497.5 209t498.5 -209q188 -207 188 -528q0 -319 -188 -531q-188 -207 -498 -207t-498 207q-188 211 -188 531zM180 717q0 -295 172 -485.5t452.5 -190.5t453 190.5t172.5 485.5t-172.5 485.5t-453 190.5t-452.5 -190.5t-172 -485.5z M559 1679.5q0 34.5 23 57.5q25 25 59.5 24.5t56.5 -24.5q25 -23 25 -57.5t-25 -59.5q-23 -23 -57 -23t-59 23q-23 25 -23 59.5zM886.5 1679.5q0.5 34.5 22.5 57.5q25 25 60 24.5t57 -24.5q25 -23 25 -57.5t-25 -59.5q-23 -23 -57.5 -23t-59.5 23q-23 25 -22.5 59.5z" />
<glyph unicode="&#xd7;" horiz-adv-x="935" d="M160 977q-20 20 0 45q22 22 43 0l239 -240q22 -22 43 0l246 246q20 20 45 0q22 -22 0 -43l-248 -246q-22 -22 0 -43l240 -239q23 -23 0 -43.5t-43 0.5l-240 237q-22 22 -43 0l-231 -231q-23 -23 -43.5 -0.5t0.5 43.5l231 231q20 25 0 45z" />
<glyph unicode="&#xd8;" horiz-adv-x="1609" d="M119 717q0 322 188 528q187 209 498 209q207 0 373 -104l45 67q16 23 41 10q27 -20 8 -41l-45 -69q264 -207 264 -600q0 -319 -188 -531q-188 -207 -498 -206q-211 0 -375 102l-43 -68q-16 -23 -41 -10q-29 16 -10 43l45 70q-262 213 -262 600zM180 717q0 -354 236 -547 l729 1126q-145 96 -340 97q-281 0 -453 -190.5t-172 -485.5zM465 135q143 -94 340 -94q281 0 453 190.5t172 485.5q0 357 -238 547z" />
<glyph unicode="&#xd9;" horiz-adv-x="1589" d="M57 1403q0 31 31 31h389q31 0 31 -31t-31 -31h-123q-31 0 -30 -31v-829q0 -213 133 -342q132 -129 337.5 -129t338.5 129t133 342v829q0 31 -31 31h-123q-31 0 -31 31t31 31h389q31 0 31 -31t-31 -31h-143q-31 0 -31 -31v-829q0 -233 -151 -385q-151 -147 -381 -147 q-231 0 -383 147q-150 150 -150 385v829q0 31 -31 31h-143q-31 0 -31 31zM629 1833q0 10 16 20q10 10 21 11q14 0 22 -19l182 -260q8 -8 8.5 -20.5t-14.5 -20.5q-12 -6 -22.5 -6t-20.5 12l-184 262q-8 8 -8 21z" />
<glyph unicode="&#xda;" horiz-adv-x="1589" d="M57 1403q0 31 31 31h389q31 0 31 -31t-31 -31h-123q-31 0 -30 -31v-829q0 -213 133 -342q132 -129 337.5 -129t338.5 129t133 342v829q0 31 -31 31h-123q-31 0 -31 31t31 31h389q31 0 31 -31t-31 -31h-143q-31 0 -31 -31v-829q0 -233 -151 -385q-151 -147 -381 -147 q-231 0 -383 147q-150 150 -150 385v829q0 31 -31 31h-143q-31 0 -31 31zM752 1564.5q0 12.5 8 20.5l182 260q8 18 23 19q10 0 20 -11q16 -10 16 -20q0 -12 -8 -21l-184 -262q-10 -12 -22.5 -12t-20.5 6q-14 8 -14 20.5z" />
<glyph unicode="&#xdb;" horiz-adv-x="1589" d="M57 1403q0 31 31 31h389q31 0 31 -31t-31 -31h-123q-31 0 -30 -31v-829q0 -213 133 -342q132 -129 337.5 -129t338.5 129t133 342v829q0 31 -31 31h-123q-31 0 -31 31t31 31h389q31 0 31 -31t-31 -31h-143q-31 0 -31 -31v-829q0 -233 -151 -385q-151 -147 -381 -147 q-231 0 -383 147q-150 150 -150 385v829q0 31 -31 31h-143q-31 0 -31 31zM539 1569q-23 20 0 43l219 223q18 18 34.5 18t32.5 -16l226 -225q23 -23 0 -43.5t-43 0.5l-197 194q-18 18 -37 0l-192 -194q-20 -20 -43 0z" />
<glyph unicode="&#xdc;" horiz-adv-x="1589" d="M57 1403q0 31 31 31h389q31 0 31 -31t-31 -31h-123q-31 0 -30 -31v-829q0 -213 133 -342q132 -129 337.5 -129t338.5 129t133 342v829q0 31 -31 31h-123q-31 0 -31 31t31 31h389q31 0 31 -31t-31 -31h-143q-31 0 -31 -31v-829q0 -233 -151 -385q-151 -147 -381 -147 q-231 0 -383 147q-150 150 -150 385v829q0 31 -31 31h-143q-31 0 -31 31zM548.5 1659q0.5 35 22.5 57q25 25 60 25t57 -25q25 -23 25 -57.5t-25 -59.5q-23 -23 -57.5 -23t-59.5 23q-23 25 -22.5 60zM876.5 1659q0.5 35 22.5 57q25 25 59.5 25t57.5 -25q25 -23 24.5 -57.5 t-24.5 -59.5q-23 -23 -57.5 -23t-59.5 23q-23 25 -22.5 60z" />
<glyph unicode="&#xdd;" horiz-adv-x="1284" d="M-21 1403q0 31 31 31h389q31 0 31 -31t-31 -31h-123q-16 0 -22 -9t2 -22l371 -647q14 -20 28 0l373 647q8 12 2 21.5t-22 9.5h-123q-31 0 -31 31t31 31h389q31 0 31 -31t-31 -31h-123q-33 0 -51 -31l-426 -739v-510q0 -31 31 -31h143q31 0 31 -30.5t-31 -30.5h-410 q-31 0 -30.5 30.5t30.5 30.5h144q31 0 30 31v506l-428 743q-18 31 -51 31h-123q-31 0 -31 31zM619 1564.5q0 12.5 8 20.5l182 260q10 18 22 19q10 0 21 -11q16 -10 16 -20q0 -12 -8 -21l-184 -262q-8 -12 -23 -12q-10 0 -20 6q-14 8 -14 20.5z" />
<glyph unicode="&#xde;" horiz-adv-x="1249" d="M94 30.5q0 30.5 31 30.5h143q31 0 31 31v1249q0 31 -31 31h-143q-31 0 -31 31t31 31h410q31 0 30.5 -31t-30.5 -31h-144q-31 0 -31 -31v-102q0 -31 31 -31h215q262 0 414 -133q150 -131 149.5 -358.5t-149.5 -358.5q-152 -133 -414 -133h-215q-31 1 -31 -30v-103 q0 -31 31 -31h144q31 0 30.5 -30.5t-30.5 -30.5h-410q-31 0 -31 30.5zM360 317q0 -31 31 -30h215q240 0 371 112.5t131 317.5t-131 317.5t-371 112.5h-215q-31 0 -31 -31v-799z" />
<glyph unicode="&#xdf;" horiz-adv-x="1312" d="M73 30.5q0 30.5 31 30.5h144q31 0 31 31v840q0 31 -31 31h-144q-31 0 -30.5 30.5t30.5 30.5h144q31 0 31 31v20q0 178 101 278.5t267 100.5q154 0 250 -82q98 -84 98 -205q0 -61 -36.5 -109t-80.5 -74t-81 -63.5t-37 -80.5q0 -59 50 -109.5t123 -91.5t145.5 -87 t122.5 -119t50 -167q0 -119 -96 -202.5t-252 -83.5q-256 0 -409 204q-25 29 4 47q25 16 39 -4q135 -186 366 -186q133 0 210 63.5t77 161.5q0 139 -129 226l-117 77l-119 72q-127 76 -127 199q0 55 37 101t81 72.5t81 66.5t37 87q0 100 -79 163t-208 63q-145 0 -226 -81 t-81 -237v-1044q0 -31 -31 -31h-205q-31 0 -31 30.5z" />
<glyph unicode="&#xe0;" d="M84 287q0 131 111.5 219t298.5 88h337q31 0 31 31v82q0 119 -90 197.5t-229 78.5q-197 0 -332 -104q-27 -20 -43 4q-18 25 4 41q150 120 371 120q172 0 276 -98q104 -95 105 -239v-615q0 -31 30 -31h144q31 0 30.5 -30.5t-30.5 -30.5h-205q-31 0 -31 31v114q0 23 -8 29 t-25 -8q-53 -68 -149 -127q-102 -59 -227 -59q-174 0 -271.5 86t-97.5 221zM145 286.5q0 -110.5 81 -178t227 -67.5q168 0 305 137q61 61 104 139v185q0 31 -31 30h-337q-172 0 -260.5 -67.5t-88.5 -178zM340 1464q0 10 16 21q10 10 21 10q12 0 22 -18l183 -260 q8 -8 8 -20.5t-15 -20.5q-10 -6 -20 -7q-15 1 -23 13l-184 262q-8 8 -8 20z" />
<glyph unicode="&#xe1;" d="M84 287q0 131 111.5 219t298.5 88h337q31 0 31 31v82q0 119 -90 197.5t-229 78.5q-197 0 -332 -104q-27 -20 -43 4q-18 25 4 41q150 120 371 120q172 0 276 -98q104 -95 105 -239v-615q0 -31 30 -31h144q31 0 30.5 -30.5t-30.5 -30.5h-205q-31 0 -31 31v114q0 23 -8 29 t-25 -8q-53 -68 -149 -127q-102 -59 -227 -59q-174 0 -271.5 86t-97.5 221zM145 286.5q0 -110.5 81 -178t227 -67.5q168 0 305 137q61 61 104 139v185q0 31 -31 30h-337q-172 0 -260.5 -67.5t-88.5 -178zM504 1196.5q0 12.5 8 20.5l182 260q10 18 23 18q10 0 20 -10 q16 -10 17 -21q0 -12 -9 -20l-184 -262q-8 -12 -22 -13q-10 0 -21 7q-14 8 -14 20.5z" />
<glyph unicode="&#xe2;" d="M84 287q0 131 111.5 219t298.5 88h337q31 0 31 31v82q0 119 -90 197.5t-229 78.5q-197 0 -332 -104q-27 -20 -43 4q-18 25 4 41q150 120 371 120q172 0 276 -98q104 -95 105 -239v-615q0 -31 30 -31h144q31 0 30.5 -30.5t-30.5 -30.5h-205q-31 0 -31 31v114q0 23 -8 29 t-25 -8q-53 -68 -149 -127q-102 -59 -227 -59q-174 0 -271.5 86t-97.5 221zM145 286.5q0 -110.5 81 -178t227 -67.5q168 0 305 137q61 61 104 139v185q0 31 -31 30h-337q-172 0 -260.5 -67.5t-88.5 -178zM291 1159q-20 20 0 43l219 223q18 18 34.5 18.5t33.5 -16.5l225 -225 q12 -14 7 -30.5t-20.5 -20.5t-29.5 8l-197 195q-18 18 -37 0l-192 -195q-23 -20 -43 0z" />
<glyph unicode="&#xe3;" d="M84 287q0 131 111.5 219t298.5 88h337q31 0 31 31v82q0 119 -90 197.5t-229 78.5q-197 0 -332 -104q-27 -20 -43 4q-18 25 4 41q150 120 371 120q172 0 276 -98q104 -95 105 -239v-615q0 -31 30 -31h144q31 0 30.5 -30.5t-30.5 -30.5h-205q-31 0 -31 31v114q0 23 -8 29 t-25 -8q-53 -68 -149 -127q-102 -59 -227 -59q-174 0 -271.5 86t-97.5 221zM145 286.5q0 -110.5 81 -178t227 -67.5q168 0 305 137q61 61 104 139v185q0 31 -31 30h-337q-172 0 -260.5 -67.5t-88.5 -178zM291 1198q0 86 40 135t103 49q45 0 78 -23.5t49.5 -53t42 -53 t55.5 -23.5q82 0 82 123q0 31 31 30.5t31 -30.5q0 -88 -39 -136.5t-105 -48.5q-57 0 -93 39t-64.5 77t-67.5 38q-82 0 -82 -123q0 -31 -30.5 -31t-30.5 31z" />
<glyph unicode="&#xe4;" d="M84 287q0 131 111.5 219t298.5 88h337q31 0 31 31v82q0 119 -90 197.5t-229 78.5q-197 0 -332 -104q-27 -20 -43 4q-18 25 4 41q150 120 371 120q172 0 276 -98q104 -95 105 -239v-615q0 -31 30 -31h144q31 0 30.5 -30.5t-30.5 -30.5h-205q-31 0 -31 31v114q0 23 -8 29 t-25 -8q-53 -68 -149 -127q-102 -59 -227 -59q-174 0 -271.5 86t-97.5 221zM145 286.5q0 -110.5 81 -178t227 -67.5q168 0 305 137q61 61 104 139v185q0 31 -31 30h-337q-172 0 -260.5 -67.5t-88.5 -178zM321.5 1249.5q0.5 34.5 22.5 57.5q25 25 59.5 24.5t57.5 -24.5 q25 -23 24.5 -58t-24.5 -59q-23 -23 -57.5 -23t-59.5 23q-23 25 -22.5 59.5zM649 1249.5q0 34.5 23 57.5q25 25 59.5 24.5t56.5 -24.5q25 -23 25 -58t-25 -59q-23 -23 -57 -23t-59 23q-23 25 -23 59.5z" />
<glyph unicode="&#xe5;" d="M84 287q0 131 111.5 219t298.5 88h337q31 0 31 31v82q0 119 -90 197.5t-229 78.5q-197 0 -332 -104q-27 -20 -43 4q-18 25 4 41q150 120 371 120q172 0 276 -98q104 -95 105 -239v-615q0 -31 30 -31h144q31 0 30.5 -30.5t-30.5 -30.5h-205q-31 0 -31 31v114q0 23 -8 29 t-25 -8q-53 -68 -149 -127q-102 -59 -227 -59q-174 0 -271.5 86t-97.5 221zM145 286.5q0 -110.5 81 -178t227 -67.5q168 0 305 137q61 61 104 139v185q0 31 -31 30h-337q-172 0 -260.5 -67.5t-88.5 -178zM383 1310.5q0 69.5 45 116.5q47 47 119 48q70 0 117 -47.5t47 -117 t-47.5 -116.5t-116.5 -47q-72 0 -119 47q-45 47 -45 116.5zM444 1310.5q0 -46.5 27 -75.5q29 -27 76 -27t74 27q29 29 28.5 76t-28.5 73q-27 29 -74 29t-76 -29q-27 -27 -27 -73.5z" />
<glyph unicode="&#xe6;" horiz-adv-x="1918" d="M86 287q0 143 106.5 225t303.5 82h358q31 0 31 31v82q0 121 -92.5 198.5t-247.5 77.5q-197 0 -332 -104q-27 -20 -43 4q-18 25 4 41q150 120 371 120q162 0 265 -72.5t128 -193.5q61 125 172 195.5t246 70.5q199 0 334 -129q137 -129 137 -290v-31q0 -61 -62 -62h-788 q-31 0 -31 -30q0 -199 115 -332q114 -129 295 -129q98 0 180 28.5t114.5 53t80.5 65.5q20 16 45 -8q20 -25 -2 -43q-172 -158 -418 -157q-147 0 -261 77.5t-167 214.5q-71 -126 -197 -209q-127 -84 -256 -83q-389 0 -389 307zM147.5 286.5q-0.5 -245.5 327.5 -245.5 q168 0 305 137q62 61 105 139v185q0 31 -31 30h-358q-348 0 -348.5 -245.5zM954 625q-6 -31 29 -31h752q31 0 30 31q0 135 -120 245q-119 113 -289 113q-178 0 -295 -131q-91 -102 -107 -227z" />
<glyph unicode="&#xe7;" horiz-adv-x="1146" d="M104 512q0 236 129 383q129 150 322 149q203 0 356 -153q33 -31 33 20v82q0 31 31 31t31 -31v-327q0 -31 -31 -31t-31 31v102q-45 59 -102 106q-133 109 -287 109q-166 0 -279 -131q-111 -131 -110 -340q0 -215 117 -344q117 -127 303 -127q98 0 180 28.5t114.5 53 t80.5 65.5q20 16 45 -8q20 -25 -2 -43q-172 -157 -418 -157q-217 0 -348 147q-133 152 -134 385zM530 -338q0 31 31 31q143 0 144 82q0 37 -27 59.5t-76 22.5h-31q-31 0 -30 30v113q0 31 30.5 31t30.5 -31v-82q74 0 119 -40t45 -103q0 -143 -205 -144q-31 0 -31 31z" />
<glyph unicode="&#xe8;" horiz-adv-x="1161" d="M106.5 512q-0.5 233 133.5 385q131 147 348 147q211 0 346 -135t135 -325v-31q0 -61 -61 -61h-807q-34 0 -31 -31q12 -178 115 -293q117 -127 303 -127q98 0 180 28.5t114.5 53t80.5 65.5q20 16 45 -8q20 -25 -2 -43q-172 -158 -418 -157q-215 0 -348 147 q-133 152 -133.5 385zM172 584q-4 -31 29 -31h776q31 0 31 31q0 164 -121 280q-119 119 -299 119q-186 0 -303 -131q-99 -110 -113 -268zM371 1464q0 10 16 21q10 10 21 10q14 0 22 -18l182 -260q8 -8 8.5 -20.5t-14.5 -20.5q-12 -6 -22.5 -6t-20.5 12l-184 262q-8 8 -8 20z " />
<glyph unicode="&#xe9;" horiz-adv-x="1161" d="M106.5 512q-0.5 233 133.5 385q131 147 348 147q211 0 346 -135t135 -325v-31q0 -61 -61 -61h-807q-34 0 -31 -31q12 -178 115 -293q117 -127 303 -127q98 0 180 28.5t114.5 53t80.5 65.5q20 16 45 -8q20 -25 -2 -43q-172 -158 -418 -157q-215 0 -348 147 q-133 152 -133.5 385zM172 584q-4 -31 29 -31h776q31 0 31 31q0 164 -121 280q-119 119 -299 119q-186 0 -303 -131q-99 -110 -113 -268zM555 1196.5q0 12.5 8 20.5l182 260q8 18 23 18q10 0 20 -10q16 -10 17 -21q0 -12 -8 -20l-185 -262q-10 -12 -22 -12.5t-21 6.5 q-14 8 -14 20.5z" />
<glyph unicode="&#xea;" horiz-adv-x="1161" d="M106.5 512q-0.5 233 133.5 385q131 147 348 147q211 0 346 -135t135 -325v-31q0 -61 -61 -61h-807q-34 0 -31 -31q12 -178 115 -293q117 -127 303 -127q98 0 180 28.5t114.5 53t80.5 65.5q20 16 45 -8q20 -25 -2 -43q-172 -158 -418 -157q-215 0 -348 147 q-133 152 -133.5 385zM172 584q-4 -31 29 -31h776q31 0 31 31q0 164 -121 280q-119 119 -299 119q-186 0 -303 -131q-99 -110 -113 -268zM322 1159q-23 20 0 43l219 223q18 18 34.5 18.5t32.5 -16.5l226 -225q23 -23 0 -43t-43 0l-197 195q-18 18 -37 0l-192 -195 q-20 -20 -43 0z" />
<glyph unicode="&#xeb;" horiz-adv-x="1161" d="M106.5 512q-0.5 233 133.5 385q131 147 348 147q211 0 346 -135t135 -325v-31q0 -61 -61 -61h-807q-34 0 -31 -31q12 -178 115 -293q117 -127 303 -127q98 0 180 28.5t114.5 53t80.5 65.5q20 16 45 -8q20 -25 -2 -43q-172 -158 -418 -157q-215 0 -348 147 q-133 152 -133.5 385zM172 584q-4 -31 29 -31h776q31 0 31 31q0 164 -121 280q-119 119 -299 119q-186 0 -303 -131q-99 -110 -113 -268zM331.5 1270q0.5 35 22.5 57q25 25 60 25t57 -25q25 -23 25 -57.5t-25 -59.5q-23 -23 -57.5 -23t-59.5 23q-23 25 -22.5 60zM659 1270 q0 35 23 57q25 25 59.5 25t57.5 -25q25 -23 24.5 -57.5t-24.5 -59.5q-23 -23 -57.5 -23t-59.5 23q-23 25 -23 60z" />
<glyph unicode="&#xec;" horiz-adv-x="585" d="M75 30.5q0 30.5 31 30.5h144q31 0 31 31v840q0 31 -31 31h-144q-31 0 -30.5 30.5t30.5 30.5h205q31 0 31 -31v-901q0 -31 31 -31h143q31 0 31 -30.5t-31 -30.5h-410q-31 0 -31 30.5zM84 1464q0 10 16 21q10 10 21 10q14 0 22 -18l183 -260q8 -8 8 -20.5t-15 -20.5 q-12 -6 -22.5 -6t-20.5 12l-184 262q-8 8 -8 20z" />
<glyph unicode="&#xed;" horiz-adv-x="585" d="M75 30.5q0 30.5 31 30.5h144q31 0 31 31v840q0 31 -31 31h-144q-31 0 -30.5 30.5t30.5 30.5h205q31 0 31 -31v-901q0 -31 31 -31h143q31 0 31 -30.5t-31 -30.5h-410q-31 0 -31 30.5zM248 1196.5q0 12.5 8 20.5l182 260q8 18 23 18q10 0 20 -10q16 -10 17 -21 q0 -12 -9 -20l-184 -262q-10 -12 -22.5 -12.5t-20.5 6.5q-14 8 -14 20.5z" />
<glyph unicode="&#xee;" horiz-adv-x="585" d="M34.5 1159.5q-21.5 21.5 0.5 42.5l219 223q18 18 34.5 18.5t33.5 -16.5l225 -225q22 -22 0 -43t-43 0l-197 195q-18 18 -37 0l-192 -195q-22 -21 -43.5 0.5zM75 30.5q0 30.5 31 30.5h144q31 0 31 31v840q0 31 -31 31h-144q-31 0 -30.5 30.5t30.5 30.5h205q31 0 31 -31 v-901q0 -31 31 -31h143q31 0 31 -30.5t-31 -30.5h-410q-31 0 -31 30.5z" />
<glyph unicode="&#xef;" horiz-adv-x="585" d="M45 1270q0 35 23 57q25 25 59.5 25t56.5 -25q25 -23 25 -57.5t-25 -59.5q-23 -23 -57 -23t-59 23q-23 25 -23 60zM75 30.5q0 30.5 31 30.5h144q31 0 31 31v840q0 31 -31 31h-144q-31 0 -30.5 30.5t30.5 30.5h205q31 0 31 -31v-901q0 -31 31 -31h143q31 0 31 -30.5 t-31 -30.5h-410q-31 0 -31 30.5zM372.5 1270q0.5 35 22.5 57q25 25 59.5 25t57.5 -25q25 -23 25 -57.5t-25 -59.5q-23 -23 -57.5 -23t-59.5 23q-23 25 -22.5 60z" />
<glyph unicode="&#xf0;" horiz-adv-x="1284" d="M111 481q0 207 146 334t400 127h318q36 0 26 31q-72 170 -200 293q-25 18 -43 -2l-115 -136q-18 -25 -43 -4q-25 23 -2 45l113 134q23 23 0 34q-186 137 -416 138q-31 0 -31 30.5t31 30.5q236 0 448 -145q27 -20 45 4l127 151q10 12 21 13q14 0 22 -9q22 -22 7 -43 l-127 -151q-18 -20 4 -43q137 -137 215 -319.5t78 -379.5q0 -287 -144 -460q-141 -174 -379 -174q-231 0 -366 135t-135 366zM172 481q0 -207 118 -323.5t322.5 -116.5t331.5 152q129 152 129 421q0 134 -31 236q-12 31 -41 31h-333q-242 0 -369 -106.5t-127 -293.5z" />
<glyph unicode="&#xf1;" horiz-adv-x="1368" d="M73 30.5q0 30.5 31 30.5h144q31 0 31 31v840q0 31 -31 31h-144q-31 0 -30.5 30.5t30.5 30.5h205q31 0 31 -31v-114q0 -23 8 -29t25 8q166 186 366 186q190 0 295 -106.5t105 -302.5v-543q0 -31 30 -31h144q31 0 30.5 -30.5t-30.5 -30.5h-389q-31 0 -31 30.5t31 30.5h123 q31 0 30 31v543q0 172 -88 260t-250 88q-154 0 -293 -139q-61 -61 -106 -137v-615q0 -31 31 -31h123q31 0 30.5 -30.5t-30.5 -30.5h-390q-31 0 -31 30.5zM453 1198q0 86 39.5 135t103.5 49q45 0 78 -23.5t49 -53t42 -53t56 -23.5q82 0 82 123q0 31 31 30.5t31 -30.5 q0 -88 -39 -136.5t-105 -48.5q-57 0 -93 39t-64.5 77t-67.5 38q-82 0 -82 -123q0 -31 -30.5 -31t-30.5 31z" />
<glyph unicode="&#xf2;" horiz-adv-x="1212" d="M104.5 512.5q-0.5 235.5 139.5 384.5q138 147 362 147t363 -147q139 -150 139 -385.5t-139 -384.5q-138 -147 -362.5 -147t-362.5 147q-139 150 -139.5 385.5zM166 512q0 -217 119 -344q121 -127 321 -127q199 0 320 127q121 131 121 344q0 211 -121 342 q-120 129 -319.5 129t-319.5 -129q-121 -131 -121 -342zM399 1464q0 10 17 21q10 10 20 10q14 0 23 -18l182 -260q8 -8 8 -20.5t-14 -20.5q-12 -6 -22.5 -6t-20.5 12l-184 262q-8 8 -9 20z" />
<glyph unicode="&#xf3;" horiz-adv-x="1212" d="M104.5 512.5q-0.5 235.5 139.5 384.5q138 147 362 147t363 -147q139 -150 139 -385.5t-139 -384.5q-138 -147 -362.5 -147t-362.5 147q-139 150 -139.5 385.5zM166 512q0 -217 119 -344q121 -127 321 -127q199 0 320 127q121 131 121 344q0 211 -121 342 q-120 129 -319.5 129t-319.5 -129q-121 -131 -121 -342zM563.5 1196.5q-0.5 12.5 7.5 20.5l183 260q8 18 22 18q10 0 21 -10q16 -10 16 -21q0 -12 -8 -20l-184 -262q-10 -12 -22.5 -12.5t-20.5 6.5q-14 8 -14.5 20.5z" />
<glyph unicode="&#xf4;" horiz-adv-x="1212" d="M104.5 512.5q-0.5 235.5 139.5 384.5q138 147 362 147t363 -147q139 -150 139 -385.5t-139 -384.5q-138 -147 -362.5 -147t-362.5 147q-139 150 -139.5 385.5zM166 512q0 -217 119 -344q121 -127 321 -127q199 0 320 127q121 131 121 344q0 211 -121 342 q-120 129 -319.5 129t-319.5 -129q-121 -131 -121 -342zM350 1159q-23 20 0 43l219 223q18 18 35 18.5t33 -16.5l225 -225q23 -23 0.5 -43t-43.5 0l-196 195q-18 18 -37 0l-193 -195q-20 -20 -43 0z" />
<glyph unicode="&#xf5;" horiz-adv-x="1212" d="M104.5 512.5q-0.5 235.5 139.5 384.5q138 147 362 147t363 -147q139 -150 139 -385.5t-139 -384.5q-138 -147 -362.5 -147t-362.5 147q-139 150 -139.5 385.5zM166 512q0 -217 119 -344q121 -127 321 -127q199 0 320 127q121 131 121 344q0 211 -121 342 q-120 129 -319.5 129t-319.5 -129q-121 -131 -121 -342zM350 1198q0 86 40 135t104 49q45 0 77.5 -23.5t49 -53t42 -53t56.5 -23.5q82 0 82 123q0 31 30.5 30.5t30.5 -30.5q0 -88 -39 -136.5t-104 -48.5q-57 0 -93 39t-65 77t-67 38q-82 0 -82 -123q0 -31 -31 -31t-31 31z " />
<glyph unicode="&#xf6;" horiz-adv-x="1212" d="M104.5 512.5q-0.5 235.5 139.5 384.5q138 147 362 147t363 -147q139 -150 139 -385.5t-139 -384.5q-138 -147 -362.5 -147t-362.5 147q-139 150 -139.5 385.5zM166 512q0 -217 119 -344q121 -127 321 -127q199 0 320 127q121 131 121 344q0 211 -121 342 q-120 129 -319.5 129t-319.5 -129q-121 -131 -121 -342zM360 1270q0 35 23 57q25 25 59.5 25t57.5 -25q25 -23 24.5 -57.5t-24.5 -59.5q-23 -23 -57.5 -23t-59.5 23q-23 25 -23 60zM688 1270q0 35 23 57q25 25 59.5 25t56.5 -25q25 -23 25 -57.5t-25 -59.5q-23 -23 -57 -23 t-59 23q-23 25 -23 60z" />
<glyph unicode="&#xf7;" horiz-adv-x="1189" d="M164 655.5q0 30.5 31 30.5h798q31 0 31 -30.5t-31 -30.5h-798q-31 0 -31 30.5zM481 328q0 47 27 73q29 29 76 29t73 -29q29 -27 29 -73.5t-29 -75.5q-27 -27 -73.5 -27t-75.5 27q-27 29 -27 76zM481 983q0 47 27 74q29 29 76 28.5t73 -28.5q29 -27 29 -74t-29 -76 q-27 -27 -73.5 -27t-75.5 27q-27 29 -27 76z" />
<glyph unicode="&#xf8;" horiz-adv-x="1212" d="M104 512q0 236 140 385q138 147 362 147q143 0 262 -67l35 53q8 14 25 14q4 0 16 -4q27 -20 8 -41l-37 -55q193 -150 193 -432q0 -236 -139 -385q-138 -147 -363 -147q-147 0 -264 67l-35 -53q-8 -14 -24 -14q-4 0 -17 4q-29 16 -10 43l35 55q-187 147 -187 430zM166 512 q0 -250 158 -379l512 793q-100 57 -230 57q-200 0 -319 -129q-121 -131 -121 -342zM375 98q100 -57 231 -57q199 0 320 127q121 131 121 344q0 258 -162 381z" />
<glyph unicode="&#xf9;" horiz-adv-x="1331" d="M22 993.5q0 30.5 31 30.5h205q31 0 31 -31v-604q0 -172 89 -260t249 -88q154 0 291 137q68 72 108 139v615q0 31 -31 31h-143q-31 0 -31 30.5t31 30.5h205q31 0 30 -31v-901q0 -31 31 -31h144q31 0 30.5 -30.5t-30.5 -30.5h-205q-31 0 -31 31v114q0 23 -8 29t-25 -8 q-166 -186 -366 -186q-190 0 -295 106.5t-105 302.5v543q0 31 -30 31h-144q-31 0 -31 30.5zM451 1423q0 10 16 21q10 10 20 10q12 0 23 -18l182 -260q8 -8 8 -20.5t-14 -20.5q-10 -6 -20 -7q-15 1 -23 13l-184 262q-8 8 -8 20z" />
<glyph unicode="&#xfa;" horiz-adv-x="1331" d="M22 993.5q0 30.5 31 30.5h205q31 0 31 -31v-604q0 -172 89 -260t249 -88q154 0 291 137q68 72 108 139v615q0 31 -31 31h-143q-31 0 -31 30.5t31 30.5h205q31 0 30 -31v-901q0 -31 31 -31h144q31 0 30.5 -30.5t-30.5 -30.5h-205q-31 0 -31 31v114q0 23 -8 29t-25 -8 q-166 -186 -366 -186q-190 0 -295 106.5t-105 302.5v543q0 31 -30 31h-144q-31 0 -31 30.5zM553 1155.5q0 12.5 8 20.5l182 260q10 18 23 18q10 0 20 -10q16 -10 17 -21q0 -12 -8 -20l-185 -262q-8 -12 -22 -13q-10 0 -21 7q-14 8 -14 20.5z" />
<glyph unicode="&#xfb;" horiz-adv-x="1331" d="M22 993.5q0 30.5 31 30.5h205q31 0 31 -31v-604q0 -172 89 -260t249 -88q154 0 291 137q68 72 108 139v615q0 31 -31 31h-143q-31 0 -31 30.5t31 30.5h205q31 0 30 -31v-901q0 -31 31 -31h144q31 0 30.5 -30.5t-30.5 -30.5h-205q-31 0 -31 31v114q0 23 -8 29t-25 -8 q-166 -186 -366 -186q-190 0 -295 106.5t-105 302.5v543q0 31 -30 31h-144q-31 0 -31 30.5zM381 1159q-20 20 0 43l219 223q18 18 34.5 18.5t33.5 -16.5l225 -225q12 -14 7 -30.5t-20.5 -20.5t-29.5 8l-197 195q-18 18 -37 0l-192 -195q-23 -20 -43 0z" />
<glyph unicode="&#xfc;" horiz-adv-x="1331" d="M22 993.5q0 30.5 31 30.5h205q31 0 31 -31v-604q0 -172 89 -260t249 -88q154 0 291 137q68 72 108 139v615q0 31 -31 31h-143q-31 0 -31 30.5t31 30.5h205q31 0 30 -31v-901q0 -31 31 -31h144q31 0 30.5 -30.5t-30.5 -30.5h-205q-31 0 -31 31v114q0 23 -8 29t-25 -8 q-166 -186 -366 -186q-190 0 -295 106.5t-105 302.5v543q0 31 -30 31h-144q-31 0 -31 30.5zM391 1249.5q0 34.5 23 57.5q25 25 59.5 24.5t56.5 -24.5q25 -23 25 -58t-25 -59q-23 -23 -57 -23t-59 23q-23 25 -23 59.5zM718.5 1249.5q0.5 34.5 22.5 57.5q25 25 60 24.5 t57 -24.5q25 -23 25 -58t-25 -59q-23 -23 -57.5 -23t-59.5 23q-23 25 -22.5 59.5z" />
<glyph unicode="&#xfd;" horiz-adv-x="1263" d="M-2 993.5q0 30.5 31 30.5h389q31 0 31 -30.5t-31 -30.5h-127q-37 0 -21 -31l387 -809q10 -29 23 0l313 809q14 31 -20 31h-127q-31 0 -31 30.5t31 30.5h389q31 0 31 -30.5t-31 -30.5h-133q-25 0 -41 -31l-389 -1004q-80 -199 -151.5 -278.5t-194.5 -79.5q-162 0 -254 117 q-27 27 -4 47q22 22 43 0q102 -102 215 -103q96 0 157.5 68t122.5 229l21 54q9 28 0 49l-424 901q-14 31 -41 31h-133q-31 0 -31 30.5zM588 1155.5q0 12.5 8 20.5l182 260q8 18 23 18q10 0 20 -10q16 -10 17 -21q0 -12 -9 -20l-184 -262q-10 -12 -22.5 -12.5t-20.5 6.5 q-14 8 -14 20.5z" />
<glyph unicode="&#xfe;" horiz-adv-x="1228" d="M-6 -379q0 31 31 31h143q31 0 31 31v1658q0 31 -31 31h-143q-31 0 -31 31t31 31h204q31 0 31 -31v-524q0 -23 8 -29t25 8q55 68 147 125q100 61 230 61q205 0 327 -143q123 -144 123 -399q0 -233 -146.5 -367.5t-406.5 -134.5h-276q-31 0 -31 -31v-286q0 -31 31 -31h164 q31 0 30.5 -31t-30.5 -31h-430q-31 0 -31 31zM260 92q0 -31 31 -31h276q236 0 364 115t128 326q0 229 -105.5 355t-283.5 126q-166 0 -305 -139q-61 -61 -105 -137v-615z" />
<glyph unicode="&#xff;" horiz-adv-x="1263" d="M-2 993.5q0 30.5 31 30.5h389q31 0 31 -30.5t-31 -30.5h-127q-37 0 -21 -31l387 -809q10 -29 23 0l313 809q14 31 -20 31h-127q-31 0 -31 30.5t31 30.5h389q31 0 31 -30.5t-31 -30.5h-133q-25 0 -41 -31l-389 -1004q-80 -199 -151.5 -278.5t-194.5 -79.5q-162 0 -254 117 q-27 27 -4 47q22 22 43 0q102 -102 215 -103q96 0 157.5 68t122.5 229l21 54q9 28 0 49l-424 901q-14 31 -41 31h-133q-31 0 -31 30.5zM374.5 1229q0.5 35 22.5 57q25 25 60 25t57 -25q25 -23 25 -57.5t-25 -59.5q-23 -23 -57.5 -23t-59.5 23q-23 25 -22.5 60zM702 1229 q0 35 23 57q25 25 59.5 25t57.5 -25q25 -23 24.5 -57.5t-24.5 -59.5q-23 -23 -57.5 -23t-59.5 23q-23 25 -23 60z" />
<glyph unicode="&#x152;" horiz-adv-x="1890" d="M119 717q0 305 188 512q187 205 498 205h932q31 0 30 -31v-246q0 -31 -30.5 -31t-30.5 31v184q0 31 -31 31h-645q-31 0 -31 -31v-553q0 -31 31 -30h461q31 0 31 30v103q0 31 30.5 31t30.5 -31v-328q0 -31 -30.5 -31t-30.5 31v103q0 31 -31 30h-461q-31 0 -31 -30v-574 q0 -31 31 -31h666q31 0 30 31v184q0 31 31 31t31 -31v-245q0 -31 -31 -31h-952q-311 0 -498 205q-188 207 -188 512zM180 717q0 -283 172 -469q174 -187 453 -187h102q31 0 31 31v1249q0 31 -31 31h-102q-279 0 -453 -186q-172 -188 -172 -469z" />
<glyph unicode="&#x153;" horiz-adv-x="1875" d="M104.5 512.5q-0.5 235.5 139.5 384.5q138 147 362 147q215 0 355 -139q133 139 341.5 139t344.5 -135q137 -135 137 -325v-31q0 -61 -62 -61h-807q-31 0 -30 -31q12 -180 121 -301q111 -119 297 -119q217 0 374 147q23 18 45 -8q20 -25 -2 -43q-172 -158 -417 -157 q-213 0 -342 139q-135 -139 -355 -139q-224 0 -362 147q-139 150 -139.5 385.5zM166 512q0 -217 119 -344q121 -127 321 -127q199 0 316 123q-100 137 -101 348q0 209 101 346q-119 125 -316 125q-200 0 -319 -129q-121 -131 -121 -342zM887 584q-3 -31 28 -31h777 q31 0 30 31q0 164 -120 280q-119 119 -299 119q-186 0 -293 -119q-109 -121 -123 -280z" />
<glyph unicode="&#x178;" horiz-adv-x="1284" d="M-21 1403q0 31 31 31h389q31 0 31 -31t-31 -31h-123q-16 0 -22 -9t2 -22l371 -647q14 -20 28 0l373 647q8 12 2 21.5t-22 9.5h-123q-31 0 -31 31t31 31h389q31 0 31 -31t-31 -31h-123q-33 0 -51 -31l-426 -739v-510q0 -31 31 -31h143q31 0 31 -30.5t-31 -30.5h-410 q-31 0 -30.5 30.5t30.5 30.5h144q31 0 30 31v506l-428 743q-18 31 -51 31h-123q-31 0 -31 31zM395 1659q0 35 23 57q25 25 59.5 25t57.5 -25q25 -23 24.5 -57.5t-24.5 -59.5q-23 -23 -57.5 -23t-59.5 23q-23 25 -23 60zM722.5 1659q0.5 35 22.5 57q25 25 60 25t57 -25 q25 -23 25 -57.5t-25 -59.5q-23 -23 -57.5 -23t-59.5 23q-23 25 -22.5 60z" />
<glyph unicode="&#x2c6;" horiz-adv-x="536" d="M12 1139q-20 20 0 43l219 223q18 18 35 18t33 -16l225 -225q20 -23 0 -43.5t-43 0.5l-196 194q-18 18 -37 0l-193 -194q-23 -20 -43 0z" />
<glyph unicode="&#x2dc;" horiz-adv-x="512" d="M0 1178q0 86 40 135t103 49q45 0 78 -23.5t49.5 -53.5t42 -53.5t56.5 -23.5q82 0 82 123q0 31 30.5 31t30.5 -31q0 -88 -39 -136t-104 -48q-57 0 -93 39t-65 76.5t-68 37.5q-82 0 -82 -122q0 -31 -30.5 -31t-30.5 31z" />
<glyph unicode="&#x2000;" horiz-adv-x="942" />
<glyph unicode="&#x2001;" horiz-adv-x="1884" />
<glyph unicode="&#x2002;" horiz-adv-x="942" />
<glyph unicode="&#x2003;" horiz-adv-x="1884" />
<glyph unicode="&#x2004;" horiz-adv-x="628" />
<glyph unicode="&#x2005;" horiz-adv-x="471" />
<glyph unicode="&#x2006;" horiz-adv-x="314" />
<glyph unicode="&#x2007;" horiz-adv-x="314" />
<glyph unicode="&#x2008;" horiz-adv-x="235" />
<glyph unicode="&#x2009;" horiz-adv-x="376" />
<glyph unicode="&#x200a;" horiz-adv-x="104" />
<glyph unicode="&#x2010;" d="M155 655.5q0 30.5 31 30.5h799q31 0 31 -30.5t-31 -30.5h-799q-31 0 -31 30.5z" />
<glyph unicode="&#x2011;" d="M155 655.5q0 30.5 31 30.5h799q31 0 31 -30.5t-31 -30.5h-799q-31 0 -31 30.5z" />
<glyph unicode="&#x2012;" d="M155 655.5q0 30.5 31 30.5h799q31 0 31 -30.5t-31 -30.5h-799q-31 0 -31 30.5z" />
<glyph unicode="&#x2013;" horiz-adv-x="1335" d="M155 655.5q0 30.5 31 30.5h963q31 0 31 -30.5t-31 -30.5h-963q-31 0 -31 30.5z" />
<glyph unicode="&#x2014;" horiz-adv-x="1703" d="M155 655.5q0 30.5 31 30.5h1332q31 0 30.5 -30.5t-30.5 -30.5h-1332q-31 0 -31 30.5z" />
<glyph unicode="&#x2018;" horiz-adv-x="468" d="M131 1128v31q0 106 41 181t113 106q12 6 20 6q16 0 25 -14q14 -27 -13 -39q-125 -55 -124 -189v-16q29 16 51 16q39 0 65.5 -27.5t26.5 -74.5t-27.5 -74.5t-75.5 -27.5q-102 -1 -102 122z" />
<glyph unicode="&#x2019;" horiz-adv-x="466" d="M145 1352q0 47 28 74.5t75 27.5q102 0 102 -123v-31q0 -106 -41 -181t-112 -105q-12 -6 -21 -6q-16 0 -24 14q-14 27 12 39q125 55 125 188v17q-29 -16 -51 -17q-39 0 -66 28t-27 75z" />
<glyph unicode="&#x201a;" horiz-adv-x="495" d="M145 82q0 47 28 74.5t75 27.5q102 0 102 -123v-30q0 -106 -41 -181t-112 -106q-12 -6 -21 -6q-16 0 -24 14q-14 27 12 39q125 55 125 189v16q-29 -16 -51 -16q-39 0 -66 27.5t-27 74.5z" />
<glyph unicode="&#x201c;" horiz-adv-x="755" d="M131 1128v31q0 106 41 181t113 106q12 6 20 6q16 0 25 -14q14 -27 -13 -39q-125 -55 -124 -189v-16q29 16 51 16q39 0 65.5 -27.5t26.5 -74.5t-27.5 -74.5t-75.5 -27.5q-102 -1 -102 122zM418 1128v31q0 106 41 181t112 106q12 6 21 6q16 0 24 -14q14 -27 -12 -39 q-125 -55 -125 -189v-16q29 16 51 16q39 0 66 -27.5t27 -74.5t-28 -74.5t-75 -27.5q-102 -1 -102 122z" />
<glyph unicode="&#x201d;" horiz-adv-x="753" d="M145 1352q0 47 28 74.5t75 27.5q102 0 102 -123v-31q0 -106 -41 -181t-112 -105q-12 -6 -21 -6q-16 0 -24 14q-14 27 12 39q125 55 125 188v17q-29 -16 -51 -17q-39 0 -66 28t-27 75zM432 1352q0 47 28 74.5t75 27.5q102 0 102 -123v-31q0 -106 -41 -181t-113 -105 q-12 -6 -20 -6q-16 0 -25 14q-14 27 13 39q125 55 124 188v17q-29 -16 -51 -17q-39 0 -65.5 28t-26.5 75z" />
<glyph unicode="&#x201e;" horiz-adv-x="782" d="M145 82q0 47 28 74.5t75 27.5q102 0 102 -123v-30q0 -106 -41 -181t-112 -106q-12 -6 -21 -6q-16 0 -24 14q-14 27 12 39q125 55 125 189v16q-29 -16 -51 -16q-39 0 -66 27.5t-27 74.5zM432 82q0 47 28 74.5t75 27.5q102 0 102 -123v-30q0 -106 -41 -181t-113 -106 q-12 -6 -20 -6q-16 0 -25 14q-14 27 13 39q125 55 124 189v16q-29 -16 -51 -16q-39 0 -65.5 27.5t-26.5 74.5z" />
<glyph unicode="&#x2022;" horiz-adv-x="704" d="M127 717q0 94 65.5 159.5t159.5 65.5t160 -65.5t66 -159.5t-66 -159.5t-160 -65.5t-159.5 65.5t-65.5 159.5z" />
<glyph unicode="&#x2026;" horiz-adv-x="1355" d="M145 82q0 47 27 74q29 29 76 28.5t74 -28.5q29 -27 28.5 -74t-28.5 -76q-27 -27 -74 -27t-76 27q-27 29 -27 76zM575 82q0 47 27 74q29 29 76 28.5t74 -28.5q29 -27 28.5 -74t-28.5 -76q-27 -27 -74 -27t-76 27q-27 29 -27 76zM1005.5 82q0.5 47 26.5 74q29 29 76 28.5 t74 -28.5q29 -27 28.5 -74t-28.5 -76q-27 -27 -74 -27t-76 27q-27 29 -26.5 76z" />
<glyph unicode="&#x202f;" horiz-adv-x="376" />
<glyph unicode="&#x2039;" horiz-adv-x="729" d="M80 510q0 17 16 33l473 471q20 23 43 0t0 -43l-442 -443q-18 -18 0 -36l438 -439q20 -20 -1 -41.5t-42 -1.5l-467 465q-18 18 -18 35z" />
<glyph unicode="&#x203a;" horiz-adv-x="729" d="M107 1001.5q6 16.5 22 19.5t31 -7l473 -471q16 -16 16 -32.5t-18 -35.5l-467 -465q-20 -23 -43 0t0 43l438 439q18 18 0 36l-442 443q-16 14 -10 30.5z" />
<glyph unicode="&#x205f;" horiz-adv-x="471" />
<glyph unicode="&#x20ac;" horiz-adv-x="1583" d="M73.5 563q0.5 31 30.5 31h183q-8 47 -8 123q0 74 8 123h-142q-31 0 -30.5 30.5t30.5 30.5h152q49 244 219 399q170 154 408 154q248 0 448 -174q33 -27 33 20v103q0 31 30.5 31t30.5 -31v-389q0 -31 -30.5 -31t-30.5 31v143q-55 65 -129 117q-168 119 -352 119 q-211 0 -365 -136q-152 -137 -201 -356h586q31 0 31 -30.5t-31 -30.5h-596q-8 -49 -8 -123q0 -76 8 -123h555q31 0 31 -31t-31 -31h-545q49 -223 211 -358q165 -133 396 -133q293 0 469 186q22 22 43 0.5t0 -43.5q-209 -205 -512 -204q-258 0 -441 151q-178 150 -227 401 h-193q-31 0 -30.5 31z" />
<glyph unicode="&#x2122;" horiz-adv-x="1935" d="M160 1270v133q0 31 30 31h533q31 0 31 -31v-133q0 -31 -31 -31t-31 31v71q0 31 -30 31h-144q-31 0 -31 -31v-450q0 -31 31 -31h82q31 0 31 -30.5t-31 -30.5h-287q-31 0 -30.5 30.5t30.5 30.5h82q31 0 31 31v450q0 31 -31 31h-143q-31 0 -31 -31v-71q0 -31 -30.5 -31 t-30.5 31zM815 829.5q0 30.5 31 30.5h82q31 0 30 31v450q0 31 -30 31h-82q-31 0 -31 31t31 31h158q37 0 51 -31l221 -471q20 -39 41 0l221 471q14 31 51 31h158q31 0 31 -31t-31 -31h-82q-31 0 -31 -31v-450q0 -31 31 -31h82q31 0 31 -30.5t-31 -30.5h-246q-31 0 -31 30.5 t31 30.5h41q31 0 31 31v399q0 10 -3 14.5t-6 3.5t-8 -8l-221 -471q-14 -31 -38.5 -30.5t-39.5 30.5l-221 471q-4 6 -7 7.5t-6 -3t-3 -14.5v-399q0 -31 31 -31h41q31 0 30.5 -30.5t-30.5 -30.5h-246q-31 0 -31 30.5z" />
<glyph unicode="&#xe000;" horiz-adv-x="1025" d="M0 1025h1025v-1025h-1025v1025z" />
<glyph unicode="&#xfb01;" horiz-adv-x="1432" d="M922 30.5q0 30.5 31 30.5h144q31 0 31 31v840q0 31 -31 31h-144q-31 0 -30.5 30.5t30.5 30.5h205q31 0 31 -31v-901q0 -31 31 -31h143q31 0 31 -30.5t-31 -30.5h-410q-31 0 -31 30.5zM1066 1270q0 35 23 57q25 25 59.5 25t56.5 -25q25 -23 25 -57.5t-25 -59.5 q-23 -23 -57 -23t-59 23q-23 25 -23 60zM104 61h144q31 0 31 31v840q0 31 -31 31h-144q-31 0 -31 30l1 1q0 30 30 30h144q31 0 31 31v20q0 184 83.5 281.5t243.5 97.5q147 0 264 -117q15 -15 15 -27q0 -11 -11 -20q-22 -22 -43 0q-113 102 -225 103q-129 0 -197.5 -81 t-68.5 -237v-20q0 -31 31 -31h327q31 0 31 -30.5t-31 -30.5h-327q-31 0 -31 -31v-840q0 -31 31 -31h164q31 0 30.5 -30.5t-30.5 -30.5h-431q-31 0 -31 30q0 31 31 31z" />
<glyph unicode="&#xfb02;" horiz-adv-x="1395" d="M886 30.5q0 30.5 31 30.5h143q31 0 31 31v1249q0 31 -31 31h-143q-31 0 -31 31t31 31h204q31 0 31 -31v-1311q0 -31 31 -31h143q31 0 31 -30.5t-31 -30.5h-409q-31 0 -31 30.5zM104 61h144q31 0 31 31v840q0 31 -31 31h-144q-31 0 -31 30l1 1q0 30 30 30h144q31 0 31 31 v20q0 184 83.5 281.5t243.5 97.5q147 0 264 -117q15 -15 15 -27q0 -11 -11 -20q-22 -22 -43 0q-113 102 -225 103q-129 0 -197.5 -81t-68.5 -237v-20q0 -31 31 -31h327q31 0 31 -30.5t-31 -30.5h-327q-31 0 -31 -31v-840q0 -31 31 -31h164q31 0 30.5 -30.5t-30.5 -30.5h-431 q-31 0 -31 30q0 31 31 31z" />
<glyph unicode="&#xfb03;" horiz-adv-x="2279" d="M1769 30.5q0 30.5 31 30.5h144q31 0 31 31v840q0 31 -31 31h-144q-31 0 -30.5 30.5t30.5 30.5h205q31 0 31 -31v-901q0 -31 31 -31h143q31 0 31 -30.5t-31 -30.5h-410q-31 0 -31 30.5zM1913 1270q0 35 23 57q25 25 59.5 25t56.5 -25q25 -23 25 -57.5t-25 -59.5 q-23 -23 -57 -23t-59 23q-23 25 -23 60zM951 61h144q31 0 31 31v840q0 31 -31 31h-144q-31 0 -31 30l1 1q0 30 30 30h144q31 0 31 31v20q0 184 83.5 281.5t243.5 97.5q147 0 264 -117q15 -15 15 -27q0 -11 -11 -20q-22 -22 -43 0q-113 102 -225 103q-129 0 -197.5 -81 t-68.5 -237v-20q0 -31 31 -31h327q31 0 31 -30.5t-31 -30.5h-327q-31 0 -31 -31v-840q0 -31 31 -31h164q31 0 30.5 -30.5t-30.5 -30.5h-431q-31 0 -31 30q0 31 31 31zM104 61h144q31 0 31 31v840q0 31 -31 31h-144q-31 0 -31 30l1 1q0 30 30 30h144q31 0 31 31v20 q0 184 83.5 281.5t243.5 97.5q147 0 264 -117q15 -15 15 -27q0 -11 -11 -20q-22 -22 -43 0q-113 102 -225 103q-129 0 -197.5 -81t-68.5 -237v-20q0 -31 31 -31h327q31 0 31 -30.5t-31 -30.5h-327q-31 0 -31 -31v-840q0 -31 31 -31h164q31 0 30.5 -30.5t-30.5 -30.5h-431 q-31 0 -31 30q0 31 31 31z" />
<glyph unicode="&#xfb04;" horiz-adv-x="2242" d="M1733 30.5q0 30.5 31 30.5h143q31 0 31 31v1249q0 31 -31 31h-143q-31 0 -31 31t31 31h204q31 0 31 -31v-1311q0 -31 31 -31h143q31 0 31 -30.5t-31 -30.5h-409q-31 0 -31 30.5zM951 61h144q31 0 31 31v840q0 31 -31 31h-144q-31 0 -31 30l1 1q0 30 30 30h144q31 0 31 31 v20q0 184 83.5 281.5t243.5 97.5q147 0 264 -117q15 -15 15 -27q0 -11 -11 -20q-22 -22 -43 0q-113 102 -225 103q-129 0 -197.5 -81t-68.5 -237v-20q0 -31 31 -31h327q31 0 31 -30.5t-31 -30.5h-327q-31 0 -31 -31v-840q0 -31 31 -31h164q31 0 30.5 -30.5t-30.5 -30.5h-431 q-31 0 -31 30q0 31 31 31zM104 61h144q31 0 31 31v840q0 31 -31 31h-144q-31 0 -31 30l1 1q0 30 30 30h144q31 0 31 31v20q0 184 83.5 281.5t243.5 97.5q147 0 264 -117q15 -15 15 -27q0 -11 -11 -20q-22 -22 -43 0q-113 102 -225 103q-129 0 -197.5 -81t-68.5 -237v-20 q0 -31 31 -31h327q31 0 31 -30.5t-31 -30.5h-327q-31 0 -31 -31v-840q0 -31 31 -31h164q31 0 30.5 -30.5t-30.5 -30.5h-431q-31 0 -31 30q0 31 31 31z" />
</font>
</defs>
</svg>
