<?xml version="1.0" standalone="no"?>
<!DOCTYPE svg PUBLIC "-//W3C//DTD SVG 1.1//EN" "http://www.w3.org/Graphics/SVG/1.1/DTD/svg11.dtd" >
<svg xmlns="http://www.w3.org/2000/svg">
<metadata>
This is a custom SVG webfont generated by Font Squirrel.
Copyright   :  Jakob Fischer  PizzaDude distribute freely
</metadata>
<defs>
<font id="webfontm2FS6qke" horiz-adv-x="1314" >
<font-face units-per-em="2048" ascent="1638" descent="-410" />
<missing-glyph horiz-adv-x="1024" />
<glyph unicode=" "  horiz-adv-x="1024" />
<glyph unicode="&#x09;" horiz-adv-x="1024" />
<glyph unicode="&#xa0;" horiz-adv-x="1024" />
<glyph unicode="!" horiz-adv-x="706" d="M0 -174q0 63 85 134t183 71q59 0 115.5 -56.5t56.5 -115.5q0 -86 -61 -166q-55 -72 -96 -72q-119 0 -205 70q-78 61 -78 135zM188 332q0 39 29 98q23 41 43 84q211 522 211 789q0 90 -22 163q23 45 90 116t110 87q53 -59 84 -129q23 -51 23 -76q0 -35 -88 -516 q-104 -553 -138 -786q-10 0 -51 -17.5t-86 -17.5q-55 0 -130 72t-75 133z" />
<glyph unicode="&#x22;" horiz-adv-x="796" d="M94 1159q0 166 47 279q53 127 146 127q33 0 65 -15l2 -778q-43 -41 -67 -41q-10 0 -11 10q-86 6 -137 136q-45 118 -45 282zM569 1016q0 281 90 473q43 10 183 10q12 -41 12 -104q0 -131 -45 -308.5t-104 -291.5q-25 -4 -68 22q-49 31 -57 68q-11 55 -11 131z" />
<glyph unicode="#" horiz-adv-x="2015" d="M0 403q35 137 164 138q23 0 77 -5.5t83 -5.5q119 0 188 82q-25 20 -112 46t-134 61q0 78 49 145q39 51 91 78q25 -6 49 -6q141 0 225 180q72 152 72 334q0 47 -7 84q76 43 199 104q53 -35 53 -127t-55 -258l-82 -229q143 0 330 20l352 46q43 190 29 540q59 37 110 37 q80 0 127 -86q43 -78 43 -190q0 -137 -59 -213q47 -29 82 -29q45 0 92 41q193 -119 193 -221q0 -49 -56 -162l-383 98q-16 -49 -44.5 -150.5t-45.5 -150.5q41 -18 189 -41q127 -18 182 -61q80 -61 74 -203q-219 0 -484 92q-88 -283 -112 -631q-27 -41 -74 -82 q-61 -55 -113 -55q-20 0 -37 10q-63 45 -63 121q0 55 70 250q74 205 86 361q-182 37 -416 36q-260 0 -285 -65q-49 -125 -49 -197q0 -82 49 -147q-39 -80 -178 -162q-131 -76 -207 -76q-10 41 -10 84q0 92 57 236q66 170 76 231q-49 39 -102 39q-31 0 -84.5 -17.5 t-77.5 -17.5q-66 0 -121 94zM741 586h660q16 49 33.5 156.5t31.5 154.5q-66 -23 -295 -47q-209 -25 -299 -66q-135 -61 -131 -198z" />
<glyph unicode="$" horiz-adv-x="1165" d="M31 -51v108q2 86 2 131q29 -4 86 5q68 8 92 8q88 0 131 -64q70 78 141 86q39 -53 101 -53q117 0 346 203q-37 92 -303 260q-301 190 -391 307l18 174q49 31 221 92q152 55 213 109q45 39 84 160q43 133 82 178q61 14 238 -54q-16 -16 -58 -96q-37 -70 -78 -98 q23 -16 97.5 -42t105.5 -48q49 -37 49 -98q0 -31 -10 -66q-47 -16 -111 -16q-43 0 -136 11t-140 11q-203 0 -319 -162q55 -104 200 -186l256 -125q139 -76 187 -172q18 -37 18 -74q0 -145 -258 -311q-164 -109 -346 -178q-41 -88 -35 -299q-8 0 -64.5 -15.5t-87.5 -15.5 q-35 51 -51 144l-32 186h-248z" />
<glyph unicode="%" horiz-adv-x="1662" d="M0 840q0 260 221 446q197 166 418 166q29 0 85 -13.5t87 -13.5q33 0 106.5 40t106.5 40t33 -13t33 -13q84 0 216 92t146 92h141q0 -8 14.5 -52t14.5 -79q0 -25 -395 -610q-455 -674 -609 -947q37 -100 37 -135q0 -14 -2 -24l-139 -135q-82 -72 -186 -62q-29 20 -56 43 q-33 33 -32 74q0 39 401 622l664 971q4 4 4 6q0 10 -45 11q-86 0 -381 -125q27 -51 26 -111q0 -193 -243 -397q-227 -190 -387 -191q-115 0 -201 113q-78 101 -78 205zM213 881q0 -82 31.5 -115t113.5 -33q70 0 193 88q141 100 141 205q0 37 -96 88q-125 66 -156 98 q-227 -159 -227 -331zM1036 16q0 94 158 355q170 283 283 282q29 0 123 -27.5t151 -27.5q0 -27 15.5 -85t15.5 -85q0 -39 -17 -43q-25 -4 -30 -12q10 -25 10 -60q0 -158 -148 -354q-158 -209 -321 -209q-125 0 -189 86q-51 71 -51 180zM1276 70q0 -47 13.5 -66.5t56.5 -40.5 q121 121 143 150q53 70 53 143q0 47 -12 65.5t-53 40.5q-68 -35 -138 -143q-63 -100 -63 -149z" />
<glyph unicode="&#x26;" horiz-adv-x="1916" d="M0 283q0 125 240 327l338 264q16 61 14 187.5t14 187.5q29 100 287 269q238 152 289 151q223 0 436 -70q303 -100 303 -292q0 -147 -229 -289q-160 -98 -455 -203q-324 -113 -326 -113q12 -78 141.5 -236.5t254.5 -244.5q68 68 202 238q131 164 203 231h174 q0 -8 17.5 -71.5t17.5 -98.5q0 -55 -129 -190q-111 -113 -250 -226q23 -92 164 -147q188 -74 248 -127q-31 -66 -172 -209q-420 315 -490 316q-39 0 -275.5 -62.5t-275.5 -62.5q-182 0 -456 163q-285 173 -285 308zM346 315q0 -57 124 -170.5t175 -113.5q244 0 393 43 l-420 524q-86 -29 -179 -126.5t-93 -156.5zM854 979l401 106q246 63 381 152q0 16 -17 72.5t-17 72.5q-49 0 -137.5 17.5t-125.5 17.5q-117 0 -290 -82q-197 -94 -195 -188v-168z" />
<glyph unicode="'" horiz-adv-x="329" d="M94 1159q0 166 47 279q53 127 146 127q33 0 65 -15l2 -778q-43 -41 -67 -41q-10 0 -11 10q-86 6 -137 136q-45 118 -45 282z" />
<glyph unicode="(" horiz-adv-x="845" d="M-25 496q0 418 230 741q240 338 639 432l39 -149q23 -92 22 -166q-352 -16 -563 -267q-193 -229 -192 -544q0 -199 83 -367q90 -182 259 -289q2 -2 10 -2q10 0 57 13.5t74 13.5q37 -33 63 -33q8 -74 -88 -153.5t-209 -79.5q-133 0 -215 127q-209 332 -209 723z" />
<glyph unicode=")" horiz-adv-x="845" d="M-25 1354q350 -16 562 -267q193 -229 192 -544q0 -199 -84 -367q-90 -182 -256 -289q-4 -2 -10 -2q-10 0 -57.5 13.5t-73.5 13.5q-39 -33 -66 -33q-8 -74 89.5 -153.5t209.5 -79.5q133 0 213 127q211 332 211 723q0 418 -229 741q-242 338 -639 432l-39 -149 q-23 -92 -23 -166z" />
<glyph unicode="*" horiz-adv-x="1214" d="M72 965q0 82 80 116q53 23 178 33q145 12 190 23l-125 145q-82 106 -82 193q0 57 33 106q35 12 64 12q84 0 161 -127q115 -190 156 -231q16 8 170 141q135 119 207 119q92 0 113 -178q-152 -74 -316 -236q4 -2 164 -71q98 -43 164 -92q-16 -31 -57.5 -51.5t-79.5 -37.5 l53 -92q37 -63 55 -131q-25 -4 -49 -4q-106 0 -225 88q-98 72 -178 184q-186 -111 -187 -256q0 -33 10 -67q-125 -2 -168 33q-31 25 -41 96q-12 90 -32 133q74 0 108 70q-72 16 -145 16q-86 0 -205 -22q-16 49 -16 88z" />
<glyph unicode="+" horiz-adv-x="1400" d="M84 580q-12 57 49 129q53 61 125 100q123 -55 223 -55t250 63q35 45 37 125q4 90 18 125q29 74 129 135q113 -92 113 -170q0 -31 -20 -80q-23 -57 -27 -84q23 -4 43 -4q45 0 77 27l62 53q205 0 338 -164q-23 -90 -205 -121l-319 -38q-57 -115 -72 -279q-6 -70 -6 -283 q-41 -10 -76 -10q-164 0 -164 236q0 150 52 270q-55 35 -133 35q-61 0 -183.5 -30t-175.5 -30q-84 1 -135 50z" />
<glyph unicode="," horiz-adv-x="743" d="M131 -121q0 57 80 144.5t154 87.5q82 0 192 -76q121 -80 121 -156q0 -260 -53 -389q-43 -102 -111 -102q-49 0 -88 47t-39 100q0 55 45 84q-100 0 -200.5 84t-100.5 176z" />
<glyph unicode="-" horiz-adv-x="1163" d="M143 610q0 68 68 150q63 76 102 76q84 0 235.5 -44t221.5 -44q61 0 113 22q23 10 78 52t86 50q16 6 43 7q150 0 155 -101q0 -57 -51 -133q-57 -82 -117 -82q-129 37 -286 37q-190 0 -420 -53l-82 -8q-105 -1 -146 71z" />
<glyph unicode="." horiz-adv-x="741" d="M129 -127q0 57 80 144t153 87q82 0 193 -73q121 -82 121 -158q0 -63 -92 -161.5t-154 -98.5q-100 0 -200.5 85t-100.5 175z" />
<glyph unicode="/" horiz-adv-x="1081" d="M35 -238q0 117 98 308l182 325l410 822q242 444 408 448q0 -12 13 -67.5t13 -86.5q0 -14 -2 -26q-315 -461 -520 -852q-293 -557 -293 -840q0 -55 10 -98q-27 0 -127 -35t-153 -35q-39 59 -39 137z" />
<glyph unicode="0" horiz-adv-x="1298" d="M8 170q0 72 10 131q70 358 261 715q231 436 546 651q78 -6 131 -86q72 -104 93 -119q285 -203 284 -563q0 -375 -280 -760q-276 -377 -611 -487q-45 -16 -98 -17q-109 0 -179.5 55.5t-115.5 198.5q-41 136 -41 281zM227 264q0 -115 23 -207q27 -98 65 -125 q66 -49 140 -49q29 0 49 11q256 135 441 406t185 527q0 336 -333 480l-146 -93q-82 -53 -98 -75q-178 -240 -303 -686q-23 -80 -23 -189z" />
<glyph unicode="1" horiz-adv-x="1189" d="M35 907q0 47 10 74l348 119q217 82 381 192q117 78 148 185q10 57 18 112q61 47 145 47q8 0 86 -4q57 -2 105 2q-37 -246 -160 -647q-158 -512 -190 -649q-90 -362 -76 -635q-45 -27 -152.5 -51.5t-181.5 -24.5q8 223 141 619q170 502 246 915q-287 -223 -391 -289 q-262 -164 -440 -159q-37 83 -37 194z" />
<glyph unicode="2" horiz-adv-x="1236" d="M10 -59q334 186 629 534q358 424 389 819q-59 104 -143 105q-84 0 -251 -136.5t-231 -136.5q-102 0 -141 244l373 205q219 106 377 106q78 0 147 -24q166 -57 166 -301q0 -80 -16 -160q-49 -215 -281 -567q-240 -362 -541 -664q76 -61 269 -69q229 -10 284 -31 q131 -45 125 -205q-84 0 -346 8q-225 6 -362 6q-193 0 -348 -10q-43 37 -74 121t-25 156z" />
<glyph unicode="3" horiz-adv-x="1554" d="M12 -303q-4 76 46.5 147.5t125.5 96.5q106 -63 267 -64q217 0 432 111q231 119 360 315q-23 135 -137 191q-90 45 -258 45q-72 0 -220.5 -10.5t-215.5 -10.5q-41 0 -76 2q-10 84 -10 121q0 129 82 190q246 27 487 177q203 129 360 317q-78 90 -229 90q-238 0 -612 -207 q-47 20 -96.5 97t-43.5 127q96 94 205 131q74 25 197 30q141 8 196 21q289 61 371 61q70 0 131 -16q76 -20 139.5 -105.5t63.5 -162.5q0 -137 -207 -304l-379 -262q31 -51 170 -98q182 -57 238 -90q125 -74 141 -205q-98 -338 -514 -565q-377 -209 -758 -209q-150 0 -256 39 z" />
<glyph unicode="4" horiz-adv-x="1388" d="M33 618q0 29 12 56q31 68 240 485q154 303 233 496q25 6 57 6q139 0 209 -70q-39 -119 -215 -411q-147 -250 -147 -334q0 -43 27 -68q27 -41 120 -65q88 -23 197 -23q233 0 281 86q74 131 131 350l90 357q25 10 63 10q98 0 156 -47q-2 -215 -107 -541l-192 -545 q-102 -299 -103 -452q0 -102 41 -168q-45 -31 -158.5 -56.5t-164.5 -58.5q-84 53 -84 164t100 342q121 274 139 354q-39 2 -84 2q-150 0 -387 -26l-413 -47q0 45 -20.5 110t-20.5 94z" />
<glyph unicode="5" horiz-adv-x="1683" d="M10 -14q113 88 226 88q74 -256 305 -256q227 0 477 218t309 474q-61 219 -233 219q-68 0 -209 -41q-150 -43 -213 -47q-98 66 -144 182q61 111 62 205q0 66 -35 154t-35 123q0 55 49 106q80 88 555 178l170 39q96 20 164 21q184 0 346 -162q-25 -137 -215 -137 q-47 0 -155.5 10t-163.5 10q-150 0 -234 -57q-106 -72 -133 -244q29 -29 29 -59q342 25 512 -76q154 -90 153 -270q0 -207 -190 -465q-182 -252 -446 -424q-285 -184 -533 -185q-262 0 -418 217q-18 52 0 179z" />
<glyph unicode="6" horiz-adv-x="1218" d="M0 279q0 88 184 430q203 375 416 637q268 328 442 327q20 0 93 -84q86 -102 100 -192q-584 -369 -743 -580q258 8 514 -129q301 -160 301 -409q0 -170 -170 -336q-135 -131 -342 -232q-180 -86 -265 -86q-262 0 -413 258q-117 197 -117 396zM317 121q0 -51 111 -133 q104 -80 154 -80q139 0 292 149q150 143 150 256q0 96 -152 187q-131 80 -219 80q-45 0 -112 -41q-47 -27 -68 -50q-49 -47 -102.5 -177t-53.5 -191z" />
<glyph unicode="7" horiz-adv-x="1574" d="M4 1350q0 33 6 61q61 84 115 84q29 4 65 4q53 0 250 -18q184 -16 295 -13q287 8 424 64l264 141q86 -96 86 -223q0 -115 -73 -272q-33 -72 -152 -283q-100 -176 -135 -274q61 -47 170 -29q164 29 184 29q106 -4 185 -103q-410 -31 -619 -149q-100 -55 -147 -301 q-14 -82 -39 -351q-61 -66 -174 -65q16 0 -166 16q6 141 100 373q88 213 80 274q-43 8 -94 9q-68 0 -217.5 -24t-223.5 -24q-29 47 -28 121q0 68 26 111q51 14 295 27q207 10 320 69q135 72 317 645q-762 -76 -1073 -75q-41 70 -41 176z" />
<glyph unicode="8" horiz-adv-x="1673" d="M0 139q0 158 27 223q12 29 83.5 120t133.5 231q4 10 4 20q0 25 -46 114t-46 150q0 332 446 525q356 154 770 153q135 0 287 -190q133 -168 133 -248q0 -117 -78 -207q-53 -59 -192 -153q-170 -115 -242 -175q55 -111 100 -257t45 -216q0 -190 -213 -344 q-168 -119 -430 -196q-211 -61 -325 -62q-254 0 -375 197q-82 137 -82 315zM256 121q0 -70 55 -156q74 -119 201 -119q47 0 203 60q180 70 301 149q154 102 153 193q0 166 -118 221q-78 35 -265 35q-180 0 -340 -92q-190 -111 -190 -291zM475 1071q0 -86 84 -235 q66 16 225 86q135 59 185 59q39 0 90 -37t92 -37q47 0 192 99q156 109 156 176q0 59 -40 116.5t-93 81.5q-53 -106 -213 -180q-74 45 -121 131q-29 51 -137 51q-80 0 -256 -147q-164 -137 -164 -164z" />
<glyph unicode="9" horiz-adv-x="1110" d="M-10 1034q0 102 30 234q25 98 179 190q137 84 301 123q23 6 129 47q84 35 135 35q76 0 223 -88q111 -68 203 -143q-59 -195 -203 -512q-166 -367 -211 -488q-98 -264 -98 -459q0 -72 12 -139q-6 -31 -59 -135q-86 -6 -225 -76q-47 39 -76 39q31 190 139 488q8 23 217 552 q-160 -29 -280 -28q-416 0 -416 360zM256 1059q0 -72 76 -125q41 -23 90 -23q127 0 246.5 123t119.5 260q0 41 -12 80q-33 0 -57 6q-61 10 -80 31q-111 -31 -236 -131q-147 -117 -147 -221z" />
<glyph unicode=":" horiz-adv-x="677" d="M164 205q0 57 79 144t152 87q82 0 195 -74q121 -82 121 -157q0 -63 -92.5 -161.5t-153.5 -98.5q-102 0 -201.5 85t-99.5 175zM219 819q0 76 94 170q104 102 219 103q66 0 122.5 -82t56.5 -150q0 -109 -86 -198t-189 -89q-92 0 -160 91q-57 77 -57 155z" />
<glyph unicode=";" horiz-adv-x="722" d="M164 205q0 57 79 144t152 87q82 0 195 -74q121 -82 121 -157q0 -260 -54 -387q-43 -104 -112 -105q-47 0 -86 47t-39 103q0 53 45 82q-102 0 -201.5 85t-99.5 175zM219 819q0 76 94 170q104 102 219 103q66 0 122.5 -82t56.5 -150q0 -109 -86 -198t-189 -89 q-92 0 -160 91q-57 77 -57 155z" />
<glyph unicode="&#x3c;" horiz-adv-x="1497" d="M10 453q2 70 56 170l81 149q27 -12 60 -12q125 0 366 176q152 111 458 381t421 356q8 -8 60.5 -78.5t91.5 -111.5q-416 -301 -1160 -922q90 -152 430 -385q469 -324 594 -430q-43 -57 -122.5 -95t-153.5 -38q-55 0 -91 21.5t-97.5 98.5t-75.5 87q-178 141 -457 327z" />
<glyph unicode="=" horiz-adv-x="1247" d="M88 272q0 92 86 127q66 2 420 31q305 27 465 27q59 0 106 -4q43 -27 90 -142q-59 -59 -59 -90q-154 47 -309 47q-137 0 -391 -55q-244 -53 -379 -47q-29 43 -29 106zM207 842q0 80 84 121q502 -53 1016 -93q0 -8 14 -65t14 -90q-102 -43 -284 -107q-260 100 -463 101 q-150 0 -275 -54q-39 23 -69 76q-37 58 -37 111z" />
<glyph unicode="&#x3e;" horiz-adv-x="1323" d="M41 -252q0 66 31 137l41 80q119 -2 309 168q139 127 332 361l254 315q-47 61 -250 207q-240 172 -326 252q-162 147 -162 256q0 74 74 133q109 0 277 -166q295 -293 313 -305q201 -164 387 -158q96 -78 96 -203q0 -16 -2 -26q-274 -207 -594 -527q-371 -371 -471 -573 q-51 0 -274 -76q-35 57 -35 125z" />
<glyph unicode="?" horiz-adv-x="1478" d="M2 903q0 248 264 486q252 227 527 266q29 4 61 4q236 0 469 -143q262 -162 262 -377q0 -188 -309 -426l-463 -334q-2 -12 8 -53q12 -49 15 -80q-16 -16 -63.5 -24.5t-88.5 -4.5q-41 16 -90 113.5t-49 150.5q0 16 6 23q76 57 309 166q227 106 324 184q154 123 170 285 q-47 172 -174 260q-113 78 -271 78q-250 0 -460 -170q-223 -178 -224 -414q0 -55 15 -111q-137 -12 -232 54q-6 32 -6 67zM596 -92q25 0 81 43t91 43q59 0 117.5 -57.5t58.5 -104.5q0 -53 -92 -139t-147 -72z" />
<glyph unicode="@" horiz-adv-x="2543" d="M-18 430q0 262 153.5 534.5t407.5 460.5q272 203 581 246q279 -8 645 -125q401 -129 658 -311q299 -215 299 -444q0 -158 -146 -314q-104 -111 -303 -110q-88 0 -265 27.5t-251 27.5q-33 0 -57 -2q-111 -119 -281 -201q-176 -86 -331 -86q-315 0 -344 346 q-10 102 121.5 265t318.5 278q205 127 371 127q84 0 149 -33q61 -223 145 -393q29 -59 108 -95t171 -36q213 0 307 160q-23 315 -426 505q-207 98 -622 189q-53 10 -117 10q-205 0 -426 -102q-246 -115 -408 -314q-86 -109 -141 -262q-61 -170 -61 -329q0 -223 120 -369 q141 -172 433 -213q84 -10 182 -10q125 0 375 22q317 31 462 39q-33 -66 -143 -160q-102 -90 -137 -92q-250 -23 -404 -22q-852 0 -1083 493q-61 133 -61 293zM1042 406q39 -37 99 -37q94 0 229 94q90 63 141 121q-41 20 -67 94q-23 59 -43 119q-379 -47 -359 -391z" />
<glyph unicode="A" d="M-2 -129q0 104 37 162q348 553 590 1048q29 61 67.5 215t67.5 217q23 45 108 82q78 35 86 70l109 -59q72 -47 92 -90q10 -20 10 -70q0 -35 -7 -114t-7 -109q12 -385 12 -418q0 -231 -41 -385q98 -53 191 -66l100 -12q25 -11 25 -67v-17q-20 0 -106.5 -13.5t-157.5 -15.5 q-4 -41 -5 -75q0 -106 42 -195.5t42 -120.5q0 -74 -110 -217q-17 -2 -32 -1q-103 0 -142 71q-33 57 -33 198v50v49q0 162 -41 229q-76 8 -143 8q-250 0 -424 -135q-16 -170 -58 -244q-72 -129 -256 -137q-16 94 -16 162zM514 403q47 0 196.5 14.5t202.5 14.5q2 86 2 164 q0 332 -28 522q-281 -348 -373 -715z" />
<glyph unicode="B" horiz-adv-x="1572" d="M10 -100q0 41 10 69q156 395 220 631q29 111 106 506q2 16 2 37q0 43 -24 172q-25 121 -23 184q72 78 221 123q143 43 320 43q225 0 405 -72q203 -80 289 -227q-12 -141 -127 -290.5t-303 -268.5q49 -51 211 -98q190 -57 248 -88q119 -66 118 -181q0 -143 -166.5 -332.5 t-324.5 -248.5q-260 -94 -686 -131q-35 -2 -113 -37q-104 -45 -143 -60q-10 -2 -23 -2q-25 0 -93 15.5t-97 15.5v10q0 39 -12 111q-15 82 -15 119zM358 94q0 -47 18.5 -89t18.5 -54h236h5q67 0 236 51q186 57 291 119q129 78 201 305q-88 45 -246 78q-135 29 -209 28 q-270 0 -399 -86q-152 -104 -152 -352zM557 831q18 -1 35 -1q197 0 389 126q193 127 287 312q-164 133 -400 133q-109 0 -174 -41q-71 -148 -137 -529z" />
<glyph unicode="C" horiz-adv-x="1234" d="M20 197q0 233 80 487q72 225 148 309q35 37 78 158q47 129 69 160q63 92 193.5 192.5t253.5 153.5q18 8 47 8t94 -12q42 -7 66 -8q9 0 16 2q61 -53 149 -194q86 -137 87 -181q0 -62 -5 -118.5t-13.5 -119t-8.5 -65.5q-27 -203 -76 -342q-20 -2 -113 -23q-84 -16 -120 -16 q-1 16 -1 32q0 138 46 309q51 191 51 240q0 127 -156 203q-14 4 -33 4q-123 0 -299 -221q-164 -207 -245 -434q-63 -174 -64 -406q0 -342 174 -430q51 -27 131 -26q80 0 283 40t299 40q53 0 96 -9q-102 -106 -334 -202q-248 -100 -454 -101q-201 0 -295 105 q-144 160 -144 465z" />
<glyph unicode="D" horiz-adv-x="1351" d="M0 -172q119 160 219 631l160 811q-215 133 -215 223q0 72 137 111q121 33 317 32q190 0 373 -30.5t252 -77.5q182 -287 182 -582q0 -139 -53 -244q-125 -252 -491 -581q-350 -315 -674 -492q-94 31 -207 199zM367 240q-2 -14 -3 -29q0 -34 14 -72q19 -53 44 -76 q276 104 502 381q233 287 233 547q0 307 -352 426q-272 -71 -438 -1177z" />
<glyph unicode="E" horiz-adv-x="1742" d="M-82 -121q150 88 254 324q72 156 143 444q78 313 105 379q20 55 31 242q8 170 48 239.5t146 110.5q98 39 211 39q57 0 105 -12q92 -20 247 -21q33 0 99 2h98q283 0 381 -94q-117 -92 -416 -92h-98q-68 2 -98 2q-281 0 -388 -82q-55 -43 -112 -248q-74 -256 -94 -299 q98 -70 188 -70q61 0 170 35l256 84q61 43 215 113q39 -14 90 -67.5t64 -96.5q-27 -86 -152 -188q-51 23 -133 22q-162 0 -526 -113q-78 -8 -156 -18q-121 -27 -160 -131q-25 -68 -51 -188l-45 -195q33 -57 143 -57q70 0 320 57q113 10 299 49q82 41 256 111q0 -16 38 -97 t38 -133q0 -72 -62 -120q-145 0 -289 -3q-188 -2 -305 -18q-70 -8 -307 -88q-211 -70 -356 -74h-4q-71 0 -107 88q-51 129 -86 164z" />
<glyph unicode="F" horiz-adv-x="1544" d="M4 -344v20q0 130 68 430l116 496q12 57 119 432q74 258 74 426q0 72 -10 137q66 63 159 64q147 0 275 -137q8 -1 17 -1q68 0 222 25q190 31 289 31q205 0 322 -100q0 -68 -68 -162q-57 0 -237 14q-172 12 -273 12q-274 0 -409 -86q-160 -99 -160 -325q0 -26 2 -53 q131 -59 453 -88q264 -25 362 -121q-96 -12 -297 -15q-221 0 -319 -8q-176 -16 -295 -74q-43 -18 -84 -174q-37 -133 -51 -282q-2 -27 -3 -56q0 -104 54 -372q-84 -37 -242 -37q-43 0 -84 4z" />
<glyph unicode="G" horiz-adv-x="1353" d="M-4 223q0 283 113 547q57 131 157 307q127 217 242 344q106 121 338 238q28 2 54 2q452 0 452 -500q0 -217 -115 -633q-59 -8 -104 -8q-166 0 -166 107q0 57 84 250.5t84 291.5q0 123 -101 193q-30 3 -59 3q-301 0 -512 -349q-203 -338 -203 -735q0 -188 57 -301 q61 -121 179 -121q174 0 430 274q-49 31 -260 72q-201 37 -269 88q0 121 109 209q4 1 9 0q44 0 155 -47q135 -57 207 -64q262 -20 309 -33q186 -47 264 -200q-16 4 -35 4q-84 0 -250 -137q-262 -219 -317 -256q-205 -139 -387 -140q-242 0 -363 185q-102 155 -102 409z" />
<glyph unicode="H" horiz-adv-x="1675" d="M0 330q18 82 152 90q158 12 198 55q131 133 193 434l94 473q72 229 240 252q0 -18 36 -67l52 -68l-177 -491q-98 -287 -159 -512q68 -29 182 -29q123 0 213 35q102 43 117 125q14 0 62 -15.5t65 -15.5q82 166 151 473q29 123 103 518q95 72 172 72q15 0 28 -2 q23 -14 48.5 -60.5t25.5 -70.5l-242 -711q-139 -418 -223 -709q-10 -35 -11 -155.5t-20 -171.5q-29 -80 -108 -80q-66 0 -170 51q-23 23 -23 72q0 70 52 205l84 209q-29 59 -154 59q-53 0 -356 -51q-84 -238 -105 -545l-102 -27q-92 -23 -154 -22q-41 0 -71 10q0 5 -1 10 q0 76 54 250q66 213 71 246q-25 16 -59 16q-12 0 -40 -3t-40 -3q-115 0 -178 154z" />
<glyph unicode="I" horiz-adv-x="751" d="M8 -258q193 561 244 727q141 461 201 848q6 86 14 172q12 119 53 182q18 1 36 1q232 0 251 -154q-47 -217 -176 -594q-156 -446 -197 -594q-86 -307 -86 -528v-29q-68 -70 -225 -148q-27 0 -115 117z" />
<glyph unicode="J" horiz-adv-x="1445" d="M0 506q23 61 162 164q129 98 198 98q9 0 17 -2q16 -68 31.5 -245t40.5 -275q41 -158 129 -275q240 78 385 332q94 162 170 455q18 68 18 166q0 80 -15.5 241.5t-15.5 229.5q0 33 2 61l148 94q82 55 129 121q27 0 81 -28.5t68 -53.5l-186 -751q-115 -440 -232 -707 q-47 -111 -235 -291q-203 -193 -313 -193q-6 0 -11 1q-223 18 -307 176q-31 55 -94 340q-53 229 -170 342z" />
<glyph unicode="K" horiz-adv-x="1619" d="M72 33q68 147 81 204q8 32 7 94q0 48 -4 113q-2 32 -2 60q0 90 20 135q119 246 164 436q27 117 37 288t33 267q45 37 247 37q1 -21 1 -45q0 -216 -66 -682q135 23 330 164l333 262q193 150 318 182q166 -104 166 -192q0 -23 -15 -41q-25 -41 -61 -86l-66 -76q-23 2 -45 2 q-301 0 -815 -461q137 -311 176 -381q160 -289 344 -403q-90 -215 -186 -215q-78 0 -180 145q-18 27 -184 307q-115 197 -199 271q-70 0 -90 -56q-10 -98 -10 -219q0 -72 4 -198q6 -147 6 -209q-31 -70 -178 -70q-96 0 -160 39q-70 45 -70 124q0 66 64 204z" />
<glyph unicode="L" horiz-adv-x="1241" d="M4 -334q43 197 172 623q133 442 189 676q90 387 102 702q117 0 235 -72q0 -274 -137 -752t-137 -712q0 -88 12 -172q39 -12 99 -12q70 0 257 29.5t281 29.5q133 0 215 -45q2 -27 39 -86q-850 -210 -1280 -209q-24 -1 -47 0z" />
<glyph unicode="M" horiz-adv-x="1734" d="M8 -51q8 51 97.5 183t101.5 192q6 33 123 510q74 301 73 452q0 90 -22 154q2 2 80 102q53 63 108 103q35 0 97 -27q82 -37 86 -86q43 -309 116 -926l50 -53q238 217 401 451q186 266 190 434q4 33 66 100q70 76 80 100q133 -68 203 -67q-43 -276 -144 -801 q-94 -504 -125 -700q-2 -16 -2 -37q0 -45 17 -119l28 -123q-25 -66 -97.5 -115t-148.5 -49q-61 0 -102 37q-43 53 -43 137q0 31 10 49q119 227 176 418q37 127 66 316q33 215 59 321l-47 51l-415 -522q-12 -16 -33 -88t-49 -100q-39 -39 -131 -82q-115 -53 -150 -78 q-70 76 -84 207l-8 254q-6 164 -60 284q-49 -131 -227 -763q-4 -12 -4 -31q0 -23 9 -84.5t9 -95.5q0 -20 -2 -39q-41 -33 -124 -133q-119 66 -201 65q1 8 1 18q0 31 -14.5 81.5t-14.5 81.5q0 10 1 18z" />
<glyph unicode="N" horiz-adv-x="1839" d="M39 -203q0 119 98 365q115 281 127 352l88 356q63 262 64 416q0 98 -25 164q16 57 78 172q115 25 180 25q63 0 111 -15q6 -156 92 -413q47 -150 185.5 -503.5t195.5 -535.5q203 412 285 625q127 322 127 520q0 113 -39 195q47 51 148 101t161 50q14 0 24 -4 q31 -117 31 -203q0 -72 -20 -129q-125 -145 -291 -671q-145 -465 -217 -859l-160 -94q-139 -78 -233 -82q-18 66 -25 215q-6 141 -29 209q-154 459 -352 856l-168 -442q-113 -340 -113 -573q0 -86 15 -158h-8q-41 0 -119 -39l-129 -72q-82 53 -82 172z" />
<glyph unicode="O" horiz-adv-x="1181" d="M-14 184q0 385 319 971q133 242 359 512q20 -6 309 -41q225 -313 225 -731q0 -354 -164 -682q-166 -334 -450 -532q-33 0 -129.5 -25t-145.5 -25q-59 0 -96 29q-227 192 -227 524zM227 281q0 -217 105 -383l65 -23q49 -16 68 -16q262 152 405 415q129 240 129 510 q0 362 -211 557q-207 -139 -374 -434q-187 -325 -187 -626z" />
<glyph unicode="P" horiz-adv-x="1587" d="M6 -215q0 14 2 27q16 76 125 340q125 305 158 401l158 561q115 391 233 557q279 -55 532 -145q340 -123 484 -266q4 -25 4 -54q0 -158 -72 -266q-156 -233 -485 -442q-315 -197 -588 -248q-92 -18 -182 -150q-8 -10 -15.5 -177t-54.5 -240q-46 -74 -135 -74q-42 0 -94 16 q-70 64 -70 160zM508 504q31 0 76 -41q238 29 518 246q293 228 293 434v16q-72 57 -195 109q-147 63 -260 63q-141 0 -190 -104q-68 -141 -138 -365z" />
<glyph unicode="Q" horiz-adv-x="1218" d="M-2 403q0 326 164 656q170 342 432 510q35 8 82 8q71 0 170 -18q14 25 98 59q78 35 115 37q180 -238 180 -680q0 -258 -68 -453q-33 -90 -129 -233l-172 -258q-8 -12 -8 -33q0 -27 27 -128q23 -88 23 -141q0 -8 -1 -16q-31 -25 -106 -49l-135 -43q0 10 -15.5 61.5 t-15.5 84.5q-37 -3 -72 -3q-271 0 -420 168q-149 170 -149 471zM231 483q0 -180 80 -305q88 -137 260 -180q0 252 -104 725q6 4 88 70q53 41 81 41h5q72 -104 109 -306q49 -258 55 -274q125 152 192 367q61 197 62 401q0 190 -53 324q-53 14 -109 14q-264 0 -469 -291 q-197 -275 -197 -586z" />
<glyph unicode="R" horiz-adv-x="1443" d="M43 -113q0 162 70 355l198 520q123 340 123 491q0 78 -28 115l120 176q94 129 172 129q29 0 60 -18q25 -18 70.5 -73.5t78.5 -78.5q111 -12 223 -26q160 -20 256 -62q129 -57 160 -158q-4 -172 -160 -319q-113 -109 -354 -238l-391 -211q45 -70 90 -182q49 -121 94 -198 q80 -135 230 -312q10 -14 10 -45q0 -66 -33 -129q-27 -5 -56 -5q-66 0 -145 26q-66 82 -200 303q-123 201 -221 317q-59 -20 -82 -123q-10 -47 -23 -219q-10 -156 -35 -235q-43 -12 -77 -13q-150 0 -150 213zM555 694q225 49 444 197q252 170 252 338q0 20 -4 39l-266 8 q-156 0 -264 -19q-148 -221 -162 -563z" />
<glyph unicode="S" horiz-adv-x="1216" d="M25 606q0 186 168 430q152 219 371.5 400.5t381.5 220.5q31 8 72 8q104 0 151 -41q133 -119 134 -367q0 -143 -50 -395q-55 -279 -61 -352q-29 -27 -101 -49q-57 -18 -99 -18q-11 0 -21 1q-63 94 -64 189q0 20 4 33l121 268q61 145 62 246q0 129 -88 247 q-289 -117 -484 -276q-258 -207 -258 -422q0 -47 15 -96q45 -160 266 -225l387 -95q205 -74 219 -258q-51 -182 -322 -305q-252 -115 -540 -115q-102 0 -193 19q-27 51 -26 100q0 72 94 197q139 -111 307 -111q135 0 233.5 74t110.5 195l-260 43q-170 33 -279 94 q-143 82 -225 233q-26 57 -26 127z" />
<glyph unicode="T" horiz-adv-x="1517" d="M27 1419q0 63 41 176q137 -29 356 -34l375 -5h18q95 0 269 38q191 42 286 42q141 0 252 -67q-49 -233 -375 -234q-121 0 -233 33q-162 -414 -193 -502q-106 -319 -106 -532q0 -100 24 -182q4 -14 4 -33q0 -25 -10 -100.5t-10 -120.5q0 -84 29 -144q-74 -80 -260 -125 q-4 2 -95 123q14 231 142.5 767t140.5 767q-80 76 -221 76q-66 0 -178.5 -18.5t-151.5 -18.5q-104 0 -104 94z" />
<glyph unicode="U" horiz-adv-x="1212" d="M6 236q0 137 68 546q57 335 56 584q0 39 -1 76l242 100q0 -10 45 -59t45 -80q0 -72 -41 -203l-66 -213q-117 -408 -116 -631q0 -317 188 -450q244 160 434 487q188 322 189 568q0 20 8 83.5t8 102.5q0 35 -6 63q-2 18 -41 105q-37 76 -37 125q0 76 90 137 q39 27 104.5 57.5t73.5 34.5q49 -135 49 -315q0 -479 -303 -1094l-104 -215q-82 -158 -172 -254q-119 -131 -258 -162q-25 -4 -60 -4q-111 0 -198 39q-197 250 -197 572z" />
<glyph unicode="V" horiz-adv-x="1374" d="M0 1194q45 39 78 123q31 78 31 137q35 16 86 16q27 0 89 -6t97 -6q33 -143 33 -383v-84v-86q0 -414 102 -715q432 539 602 977q20 53 28.5 202t31.5 214q100 78 190 78q12 0 23 -2q125 -150 125 -283q0 -39 -13 -73q-223 -266 -487 -713t-395 -776q-16 -45 -91 -95 q-94 -66 -100 -71q-4 4 -14 4q-12 0 -64 -10q-31 -7 -48 -8q-7 0 -11 1q-55 41 -94 146l-21 876q-31 463 -178 537z" />
<glyph unicode="W" horiz-adv-x="2402" d="M0 1482q0 21 45 83q61 82 74 108q38 -40 172 -40q23 0 49 1q10 -59 10 -131q0 -119 -40 -386t-40 -400q0 -238 95 -398l352 547q190 319 190 529q0 31 -4 59q70 47 189 82q100 29 169 29h17q39 -154 84 -475q45 -334 82 -492q63 -268 174 -453q213 172 362 459 q109 211 199 520l119 441q61 0 160 -33q88 -29 96 -43q18 -76 18 -135t-20 -90q-291 -442 -484 -844l-223 -486q-98 -188 -268 -309q-131 166 -223 451q-31 100 -137 522q-80 317 -160 485q-406 -639 -623 -1235q-199 -115 -360 -114v89q0 194 -6 513q-10 434 -11 625 q0 8 -28.5 182t-28.5 339z" />
<glyph unicode="X" horiz-adv-x="1439" d="M10 -131q49 63 210 223t233 250q117 145 143 260q9 36 9 78q0 96 -46 225q-18 51 -139 318q-80 182 -80 264q0 148 233 148q15 0 31 -1q4 -238 182 -731l236 283q170 219 170 387q0 31 -4 59q6 0 52 3t79 3q223 0 223 -127q0 -39 -20 -90q-145 -125 -310 -334l-309 -399 q-4 -20 -4 -43q0 -135 188 -420q199 -305 222 -436q-47 -2 -140.5 -33.5t-136.5 -31.5q-74 0 -125 65q-19 30 -18 99v14q1 29 1 52q0 46 -5 64q-51 160 -58 177q-43 115 -104 196q-12 -41 -154 -186q-133 -135 -133 -217q0 -70 76 -125q-158 -131 -436 -240q-33 49 -52 123 q-15 56 -15 98q0 13 1 25z" />
<glyph unicode="Y" horiz-adv-x="1253" d="M2 -92q164 63 317 330l209 411q-18 92 -221 328q-287 332 -299 348q8 125 19 154q23 61 116 127q86 -25 201 -189l197 -293q117 -156 217 -170q84 104 190.5 318.5t163.5 394.5h213q18 -33 18 -80q0 -102 -90 -276q-53 -106 -195.5 -333.5t-193.5 -330.5 q-20 -37 -129.5 -139t-142.5 -162l-100 -192q-72 -141 -134 -222q55 -55 93 -55q-16 -109 -125 -158l-250 -96q-74 119 -74 285z" />
<glyph unicode="Z" horiz-adv-x="1615" d="M0 -205q33 29 73 120t66 114q299 236 523 485q150 166 325 416q199 279 275 370q-40 -5 -113 -4q-55 0 -129 2q-61 2 -111 3q-83 0 -135 -7q-131 -18 -207 -88q-20 -4 -39 -4q-66 0 -137 72q-84 84 -106 94q10 10 94 125q68 92 108 115q328 -106 525 -107q274 0 610 168 q49 -16 80 -84q29 -59 29 -125q0 -39 -11 -63q-45 -104 -213 -256q-225 -203 -262 -246l-397 -430q-248 -283 -313 -473q106 -29 210 -29q133 0 308 55q203 63 266 72q0 -221 -70 -436q-164 100 -442 100q-311 0 -569 -112q-115 30 -238 153z" />
<glyph unicode="[" horiz-adv-x="1347" d="M-6 -158q0 45 16 76q199 369 277 655q41 141 104 547q4 31 4 70q0 49 -13 156.5t-13 160.5q0 66 14 113q37 10 78 10q82 0 203 -37q150 -45 161 -47q53 -10 244 -20q160 -10 254 -37q16 -20 121 -205q-76 -80 -172 -80q-76 0 -221.5 66.5t-208.5 66.5q-61 0 -107 -41 q-195 -399 -358 -1249q111 -123 338 -123q96 0 315 33q211 29 311 27q-104 -135 -354 -201q-156 -43 -495 -80q-348 -37 -488 -72q8 14 8 43q0 23 -9 80t-9 88z" />
<glyph unicode="\" horiz-adv-x="1112" d="M10 1497q0 84 31 139q4 0 48 7.5t75 7.5q86 0 110 -54q39 -86 117 -337q72 -229 127 -334l279 -523q150 -256 374 -503q-8 -47 -53 -136l-76 -141q-25 25 -67 25q-43 0 -68 -25q-127 403 -405 936q-45 86 -242 418q-162 272 -240 446q-10 29 -10 74z" />
<glyph unicode="]" horiz-adv-x="1263" d="M27 -252q0 23 5 70t5 69q35 4 80 4q47 0 160.5 -9t173.5 -9q164 0 262 59q166 98 213 400q23 150 22 551q0 14 5 78.5t5 105.5q0 174 -75 225q-109 25 -279 25q-37 0 -192 -4q-119 -2 -193 0q-88 106 -76 213q14 27 68.5 71.5t101.5 61.5q18 6 72 -12q90 -31 107 -35 q63 -14 145 -15q92 0 256 25q207 31 268 37q63 -39 101 -100q0 -262 -60.5 -716t-60.5 -607q0 -256 102 -361q-147 -123 -391 -176q-156 -33 -426 -45t-346 -29q-53 39 -53 123z" />
<glyph unicode="^" horiz-adv-x="1171" d="M90 1890q221 190 363 348l137 150q41 37 137 45q39 -25 107 -135q82 -135 124 -187q23 -27 115 -96q86 -66 115 -106q68 -94 67 -166q-51 -59 -108 -60q-84 0 -254 183q-184 199 -279 229q-100 -45 -256 -215q-133 -145 -208 -145q-18 0 -37 4q0 4 -15 65q-12 53 -8 86z " />
<glyph unicode="_" horiz-adv-x="1468" d="M14 -324q0 68 66 150q63 76 104 76q39 12 455 12q764 0 770 -74q0 -57 -53 -133q-57 -82 -117 -82q-135 37 -414 37q-367 0 -585 -49l-82 -8q-103 -1 -144 71z" />
<glyph unicode="`" horiz-adv-x="866" d="M199 2265q10 -2 73 2q51 6 78 -14q82 -61 272.5 -219t305.5 -244q-18 -35 -66 -90q-291 98 -483 235q-248 176 -180 330z" />
<glyph unicode="a" d="M-2 -129q0 104 37 162q348 553 590 1048q29 61 67.5 215t67.5 217q23 45 108 82q78 35 86 70l109 -59q72 -47 92 -90q10 -20 10 -70q0 -35 -7 -114t-7 -109q12 -385 12 -418q0 -231 -41 -385q98 -53 191 -66l100 -12q25 -11 25 -67v-17q-20 0 -106.5 -13.5t-157.5 -15.5 q-4 -41 -5 -75q0 -106 42 -195.5t42 -120.5q0 -74 -110 -217q-17 -2 -32 -1q-103 0 -142 71q-33 57 -33 198v50v49q0 162 -41 229q-76 8 -143 8q-250 0 -424 -135q-16 -170 -58 -244q-72 -129 -256 -137q-16 94 -16 162zM514 403q47 0 196.5 14.5t202.5 14.5q2 86 2 164 q0 332 -28 522q-281 -348 -373 -715z" />
<glyph unicode="b" horiz-adv-x="1572" d="M10 -100q0 41 10 69q156 395 220 631q29 111 106 506q2 16 2 37q0 43 -24 172q-25 121 -23 184q72 78 221 123q143 43 320 43q225 0 405 -72q203 -80 289 -227q-12 -141 -127 -290.5t-303 -268.5q49 -51 211 -98q190 -57 248 -88q119 -66 118 -181q0 -143 -166.5 -332.5 t-324.5 -248.5q-260 -94 -686 -131q-35 -2 -113 -37q-104 -45 -143 -60q-10 -2 -23 -2q-25 0 -93 15.5t-97 15.5v10q0 39 -12 111q-15 82 -15 119zM358 94q0 -47 18.5 -89t18.5 -54h236h5q67 0 236 51q186 57 291 119q129 78 201 305q-88 45 -246 78q-135 29 -209 28 q-270 0 -399 -86q-152 -104 -152 -352zM557 831q18 -1 35 -1q197 0 389 126q193 127 287 312q-164 133 -400 133q-109 0 -174 -41q-71 -148 -137 -529z" />
<glyph unicode="c" horiz-adv-x="1234" d="M20 197q0 233 80 487q72 225 148 309q35 37 78 158q47 129 69 160q63 92 193.5 192.5t253.5 153.5q18 8 47 8t94 -12q42 -7 66 -8q9 0 16 2q61 -53 149 -194q86 -137 87 -181q0 -62 -5 -118.5t-13.5 -119t-8.5 -65.5q-27 -203 -76 -342q-20 -2 -113 -23q-84 -16 -120 -16 q-1 16 -1 32q0 138 46 309q51 191 51 240q0 127 -156 203q-14 4 -33 4q-123 0 -299 -221q-164 -207 -245 -434q-63 -174 -64 -406q0 -342 174 -430q51 -27 131 -26q80 0 283 40t299 40q53 0 96 -9q-102 -106 -334 -202q-248 -100 -454 -101q-201 0 -295 105 q-144 160 -144 465z" />
<glyph unicode="d" horiz-adv-x="1351" d="M0 -172q119 160 219 631l160 811q-215 133 -215 223q0 72 137 111q121 33 317 32q190 0 373 -30.5t252 -77.5q182 -287 182 -582q0 -139 -53 -244q-125 -252 -491 -581q-350 -315 -674 -492q-94 31 -207 199zM367 240q-2 -14 -3 -29q0 -34 14 -72q19 -53 44 -76 q276 104 502 381q233 287 233 547q0 307 -352 426q-272 -71 -438 -1177z" />
<glyph unicode="e" horiz-adv-x="1742" d="M-82 -121q150 88 254 324q72 156 143 444q78 313 105 379q20 55 31 242q8 170 48 239.5t146 110.5q98 39 211 39q57 0 105 -12q92 -20 247 -21q33 0 99 2h98q283 0 381 -94q-117 -92 -416 -92h-98q-68 2 -98 2q-281 0 -388 -82q-55 -43 -112 -248q-74 -256 -94 -299 q98 -70 188 -70q61 0 170 35l256 84q61 43 215 113q39 -14 90 -67.5t64 -96.5q-27 -86 -152 -188q-51 23 -133 22q-162 0 -526 -113q-78 -8 -156 -18q-121 -27 -160 -131q-25 -68 -51 -188l-45 -195q33 -57 143 -57q70 0 320 57q113 10 299 49q82 41 256 111q0 -16 38 -97 t38 -133q0 -72 -62 -120q-145 0 -289 -3q-188 -2 -305 -18q-70 -8 -307 -88q-211 -70 -356 -74h-4q-71 0 -107 88q-51 129 -86 164z" />
<glyph unicode="f" horiz-adv-x="1544" d="M4 -344v20q0 130 68 430l116 496q12 57 119 432q74 258 74 426q0 72 -10 137q66 63 159 64q147 0 275 -137q8 -1 17 -1q68 0 222 25q190 31 289 31q205 0 322 -100q0 -68 -68 -162q-57 0 -237 14q-172 12 -273 12q-274 0 -409 -86q-160 -99 -160 -325q0 -26 2 -53 q131 -59 453 -88q264 -25 362 -121q-96 -12 -297 -15q-221 0 -319 -8q-176 -16 -295 -74q-43 -18 -84 -174q-37 -133 -51 -282q-2 -27 -3 -56q0 -104 54 -372q-84 -37 -242 -37q-43 0 -84 4z" />
<glyph unicode="g" horiz-adv-x="1353" d="M-4 223q0 283 113 547q57 131 157 307q127 217 242 344q106 121 338 238q28 2 54 2q452 0 452 -500q0 -217 -115 -633q-59 -8 -104 -8q-166 0 -166 107q0 57 84 250.5t84 291.5q0 123 -101 193q-30 3 -59 3q-301 0 -512 -349q-203 -338 -203 -735q0 -188 57 -301 q61 -121 179 -121q174 0 430 274q-49 31 -260 72q-201 37 -269 88q0 121 109 209q4 1 9 0q44 0 155 -47q135 -57 207 -64q262 -20 309 -33q186 -47 264 -200q-16 4 -35 4q-84 0 -250 -137q-262 -219 -317 -256q-205 -139 -387 -140q-242 0 -363 185q-102 155 -102 409z" />
<glyph unicode="h" horiz-adv-x="1675" d="M0 330q18 82 152 90q158 12 198 55q131 133 193 434l94 473q72 229 240 252q0 -18 36 -67l52 -68l-177 -491q-98 -287 -159 -512q68 -29 182 -29q123 0 213 35q102 43 117 125q14 0 62 -15.5t65 -15.5q82 166 151 473q29 123 103 518q95 72 172 72q15 0 28 -2 q23 -14 48.5 -60.5t25.5 -70.5l-242 -711q-139 -418 -223 -709q-10 -35 -11 -155.5t-20 -171.5q-29 -80 -108 -80q-66 0 -170 51q-23 23 -23 72q0 70 52 205l84 209q-29 59 -154 59q-53 0 -356 -51q-84 -238 -105 -545l-102 -27q-92 -23 -154 -22q-41 0 -71 10q0 5 -1 10 q0 76 54 250q66 213 71 246q-25 16 -59 16q-12 0 -40 -3t-40 -3q-115 0 -178 154z" />
<glyph unicode="i" horiz-adv-x="751" d="M8 -258q193 561 244 727q141 461 201 848q6 86 14 172q12 119 53 182q18 1 36 1q232 0 251 -154q-47 -217 -176 -594q-156 -446 -197 -594q-86 -307 -86 -528v-29q-68 -70 -225 -148q-27 0 -115 117z" />
<glyph unicode="j" horiz-adv-x="1445" d="M0 506q23 61 162 164q129 98 198 98q9 0 17 -2q16 -68 31.5 -245t40.5 -275q41 -158 129 -275q240 78 385 332q94 162 170 455q18 68 18 166q0 80 -15.5 241.5t-15.5 229.5q0 33 2 61l148 94q82 55 129 121q27 0 81 -28.5t68 -53.5l-186 -751q-115 -440 -232 -707 q-47 -111 -235 -291q-203 -193 -313 -193q-6 0 -11 1q-223 18 -307 176q-31 55 -94 340q-53 229 -170 342z" />
<glyph unicode="k" horiz-adv-x="1619" d="M72 33q68 147 81 204q8 32 7 94q0 48 -4 113q-2 32 -2 60q0 90 20 135q119 246 164 436q27 117 37 288t33 267q45 37 247 37q1 -21 1 -45q0 -216 -66 -682q135 23 330 164l333 262q193 150 318 182q166 -104 166 -192q0 -23 -15 -41q-25 -41 -61 -86l-66 -76q-23 2 -45 2 q-301 0 -815 -461q137 -311 176 -381q160 -289 344 -403q-90 -215 -186 -215q-78 0 -180 145q-18 27 -184 307q-115 197 -199 271q-70 0 -90 -56q-10 -98 -10 -219q0 -72 4 -198q6 -147 6 -209q-31 -70 -178 -70q-96 0 -160 39q-70 45 -70 124q0 66 64 204z" />
<glyph unicode="l" horiz-adv-x="1241" d="M4 -334q43 197 172 623q133 442 189 676q90 387 102 702q117 0 235 -72q0 -274 -137 -752t-137 -712q0 -88 12 -172q39 -12 99 -12q70 0 257 29.5t281 29.5q133 0 215 -45q2 -27 39 -86q-850 -210 -1280 -209q-24 -1 -47 0z" />
<glyph unicode="m" horiz-adv-x="1734" d="M8 -51q8 51 97.5 183t101.5 192q6 33 123 510q74 301 73 452q0 90 -22 154q2 2 80 102q53 63 108 103q35 0 97 -27q82 -37 86 -86q43 -309 116 -926l50 -53q238 217 401 451q186 266 190 434q4 33 66 100q70 76 80 100q133 -68 203 -67q-43 -276 -144 -801 q-94 -504 -125 -700q-2 -16 -2 -37q0 -45 17 -119l28 -123q-25 -66 -97.5 -115t-148.5 -49q-61 0 -102 37q-43 53 -43 137q0 31 10 49q119 227 176 418q37 127 66 316q33 215 59 321l-47 51l-415 -522q-12 -16 -33 -88t-49 -100q-39 -39 -131 -82q-115 -53 -150 -78 q-70 76 -84 207l-8 254q-6 164 -60 284q-49 -131 -227 -763q-4 -12 -4 -31q0 -23 9 -84.5t9 -95.5q0 -20 -2 -39q-41 -33 -124 -133q-119 66 -201 65q1 8 1 18q0 31 -14.5 81.5t-14.5 81.5q0 10 1 18z" />
<glyph unicode="n" horiz-adv-x="1839" d="M39 -203q0 119 98 365q115 281 127 352l88 356q63 262 64 416q0 98 -25 164q16 57 78 172q115 25 180 25q63 0 111 -15q6 -156 92 -413q47 -150 185.5 -503.5t195.5 -535.5q203 412 285 625q127 322 127 520q0 113 -39 195q47 51 148 101t161 50q14 0 24 -4 q31 -117 31 -203q0 -72 -20 -129q-125 -145 -291 -671q-145 -465 -217 -859l-160 -94q-139 -78 -233 -82q-18 66 -25 215q-6 141 -29 209q-154 459 -352 856l-168 -442q-113 -340 -113 -573q0 -86 15 -158h-8q-41 0 -119 -39l-129 -72q-82 53 -82 172z" />
<glyph unicode="o" horiz-adv-x="1181" d="M-14 184q0 385 319 971q133 242 359 512q20 -6 309 -41q225 -313 225 -731q0 -354 -164 -682q-166 -334 -450 -532q-33 0 -129.5 -25t-145.5 -25q-59 0 -96 29q-227 192 -227 524zM227 281q0 -217 105 -383l65 -23q49 -16 68 -16q262 152 405 415q129 240 129 510 q0 362 -211 557q-207 -139 -374 -434q-187 -325 -187 -626z" />
<glyph unicode="p" horiz-adv-x="1587" d="M6 -215q0 14 2 27q16 76 125 340q125 305 158 401l158 561q115 391 233 557q279 -55 532 -145q340 -123 484 -266q4 -25 4 -54q0 -158 -72 -266q-156 -233 -485 -442q-315 -197 -588 -248q-92 -18 -182 -150q-8 -10 -15.5 -177t-54.5 -240q-46 -74 -135 -74q-42 0 -94 16 q-70 64 -70 160zM508 504q31 0 76 -41q238 29 518 246q293 228 293 434v16q-72 57 -195 109q-147 63 -260 63q-141 0 -190 -104q-68 -141 -138 -365z" />
<glyph unicode="q" horiz-adv-x="1218" d="M-2 403q0 326 164 656q170 342 432 510q35 8 82 8q71 0 170 -18q14 25 98 59q78 35 115 37q180 -238 180 -680q0 -258 -68 -453q-33 -90 -129 -233l-172 -258q-8 -12 -8 -33q0 -27 27 -128q23 -88 23 -141q0 -8 -1 -16q-31 -25 -106 -49l-135 -43q0 10 -15.5 61.5 t-15.5 84.5q-37 -3 -72 -3q-271 0 -420 168q-149 170 -149 471zM231 483q0 -180 80 -305q88 -137 260 -180q0 252 -104 725q6 4 88 70q53 41 81 41h5q72 -104 109 -306q49 -258 55 -274q125 152 192 367q61 197 62 401q0 190 -53 324q-53 14 -109 14q-264 0 -469 -291 q-197 -275 -197 -586z" />
<glyph unicode="r" horiz-adv-x="1443" d="M43 -113q0 162 70 355l198 520q123 340 123 491q0 78 -28 115l120 176q94 129 172 129q29 0 60 -18q25 -18 70.5 -73.5t78.5 -78.5q111 -12 223 -26q160 -20 256 -62q129 -57 160 -158q-4 -172 -160 -319q-113 -109 -354 -238l-391 -211q45 -70 90 -182q49 -121 94 -198 q80 -135 230 -312q10 -14 10 -45q0 -66 -33 -129q-27 -5 -56 -5q-66 0 -145 26q-66 82 -200 303q-123 201 -221 317q-59 -20 -82 -123q-10 -47 -23 -219q-10 -156 -35 -235q-43 -12 -77 -13q-150 0 -150 213zM555 694q225 49 444 197q252 170 252 338q0 20 -4 39l-266 8 q-156 0 -264 -19q-148 -221 -162 -563z" />
<glyph unicode="s" horiz-adv-x="1216" d="M25 606q0 186 168 430q152 219 371.5 400.5t381.5 220.5q31 8 72 8q104 0 151 -41q133 -119 134 -367q0 -143 -50 -395q-55 -279 -61 -352q-29 -27 -101 -49q-57 -18 -99 -18q-11 0 -21 1q-63 94 -64 189q0 20 4 33l121 268q61 145 62 246q0 129 -88 247 q-289 -117 -484 -276q-258 -207 -258 -422q0 -47 15 -96q45 -160 266 -225l387 -95q205 -74 219 -258q-51 -182 -322 -305q-252 -115 -540 -115q-102 0 -193 19q-27 51 -26 100q0 72 94 197q139 -111 307 -111q135 0 233.5 74t110.5 195l-260 43q-170 33 -279 94 q-143 82 -225 233q-26 57 -26 127z" />
<glyph unicode="t" horiz-adv-x="1517" d="M27 1419q0 63 41 176q137 -29 356 -34l375 -5h18q95 0 269 38q191 42 286 42q141 0 252 -67q-49 -233 -375 -234q-121 0 -233 33q-162 -414 -193 -502q-106 -319 -106 -532q0 -100 24 -182q4 -14 4 -33q0 -25 -10 -100.5t-10 -120.5q0 -84 29 -144q-74 -80 -260 -125 q-4 2 -95 123q14 231 142.5 767t140.5 767q-80 76 -221 76q-66 0 -178.5 -18.5t-151.5 -18.5q-104 0 -104 94z" />
<glyph unicode="u" horiz-adv-x="1212" d="M6 236q0 137 68 546q57 335 56 584q0 39 -1 76l242 100q0 -10 45 -59t45 -80q0 -72 -41 -203l-66 -213q-117 -408 -116 -631q0 -317 188 -450q244 160 434 487q188 322 189 568q0 20 8 83.5t8 102.5q0 35 -6 63q-2 18 -41 105q-37 76 -37 125q0 74 90 135 q39 29 105.5 59.5t72.5 34.5q49 -135 49 -315q0 -479 -303 -1094l-104 -215q-82 -158 -172 -254q-119 -131 -258 -162q-25 -4 -60 -4q-111 0 -198 39q-197 250 -197 572z" />
<glyph unicode="v" horiz-adv-x="1374" d="M0 1194q45 39 78 123q31 78 31 137q35 16 86 16q27 0 89 -6t97 -6q33 -143 33 -383v-84v-86q0 -414 102 -715q432 539 602 977q20 53 28.5 202t31.5 214q100 78 190 78q12 0 23 -2q125 -150 125 -283q0 -39 -13 -73q-223 -266 -487 -713t-395 -776q-16 -45 -91 -95 q-94 -66 -100 -71q-4 4 -14 4q-12 0 -64 -10q-31 -7 -48 -8q-7 0 -11 1q-55 41 -94 146l-21 876q-31 463 -178 537z" />
<glyph unicode="w" horiz-adv-x="2402" d="M0 1482q0 21 45 83q61 82 74 108q38 -40 172 -40q23 0 49 1q10 -59 10 -131q0 -119 -40 -386t-40 -400q0 -238 95 -398l352 547q190 319 190 529q0 31 -4 59q70 47 189 82q100 29 169 29h17q39 -154 84 -475q45 -334 82 -492q63 -268 174 -453q213 172 362 459 q109 211 199 520l119 441q61 0 160 -33q88 -29 96 -43q18 -76 18 -135t-20 -90q-291 -442 -484 -844l-223 -486q-98 -188 -268 -309q-131 166 -223 451q-31 100 -137 522q-80 317 -160 485q-406 -639 -623 -1235q-199 -115 -360 -114v89q0 194 -6 513q-10 434 -11 625 q0 8 -28.5 182t-28.5 339z" />
<glyph unicode="x" horiz-adv-x="1439" d="M10 -131q49 63 210 223t233 250q117 145 143 260q9 36 9 78q0 96 -46 225q-18 51 -139 318q-80 182 -80 264q0 148 233 148q15 0 31 -1q4 -238 182 -731l236 283q170 219 170 387q0 31 -4 59q6 0 52 3t79 3q223 0 223 -127q0 -39 -20 -90q-145 -125 -310 -334l-309 -399 q-4 -20 -4 -43q0 -135 188 -420q199 -305 222 -436q-47 -2 -140.5 -33.5t-136.5 -31.5q-74 0 -125 65q-19 30 -18 99v14q1 29 1 52q0 46 -5 64q-51 160 -58 177q-43 115 -104 196q-12 -41 -154 -186q-133 -135 -133 -217q0 -70 76 -125q-158 -131 -436 -240q-33 49 -52 123 q-15 56 -15 98q0 13 1 25z" />
<glyph unicode="y" horiz-adv-x="1253" d="M2 -92q164 63 317 330l209 411q-18 92 -221 328q-287 332 -299 348q8 125 19 154q23 61 116 127q86 -25 201 -189l197 -293q117 -156 217 -170q84 104 190.5 318.5t163.5 394.5h213q18 -33 18 -80q0 -102 -90 -276q-53 -104 -195.5 -332.5t-193.5 -331.5 q-20 -37 -129.5 -139t-142.5 -162l-100 -192q-72 -141 -134 -222q55 -55 93 -55q-16 -109 -125 -158l-250 -96q-74 119 -74 285z" />
<glyph unicode="z" horiz-adv-x="1615" d="M0 -205q33 29 73 120t66 114q299 236 523 485q150 166 325 416q199 279 275 370q-40 -5 -113 -4q-55 0 -129 2q-61 2 -111 3q-83 0 -135 -7q-131 -18 -207 -88q-20 -4 -39 -4q-66 0 -137 72q-84 84 -106 94q10 10 94 125q68 92 108 115q328 -106 525 -107q274 0 610 168 q49 -16 80 -84q29 -59 29 -125q0 -39 -11 -63q-45 -104 -213 -256q-225 -203 -262 -246l-397 -430q-248 -283 -313 -473q106 -29 210 -29q133 0 308 55q203 63 266 72q0 -221 -70 -436q-164 100 -442 100q-311 0 -569 -112q-115 30 -238 153z" />
<glyph unicode="{" horiz-adv-x="1028" d="M18 573q27 111 119 129l156 5q137 113 123 174q-23 100 -56 198q-8 23 -8 47q0 150 196.5 342.5t340.5 192.5q23 0 41 -6q51 -18 108 -84q63 -74 64 -139q0 -61 -62 -99q-143 45 -225 45q-213 0 -229 -235q59 -180 59 -234q0 -162 -190 -309q115 -80 114 -207 q0 -68 -42 -205t-42 -198q0 -100 74 -166q45 0 191.5 8t214.5 8q-39 -86 -177.5 -142t-285.5 -56q-291 0 -291 198q0 76 39 226q47 182 53 219q-39 68 -119 96q-104 39 -114 47q-52 39 -52 145z" />
<glyph unicode="|" horiz-adv-x="456" d="M94 -315q72 815 72 1146q0 258 -23 490q0 16 -18 119q-16 84 -16 137q0 59 16 104q74 23 139 23q137 0 174 -102q8 -227 -30 -668q-43 -475 -43 -668q0 -276 53 -469q-51 -84 -185 -196q-26 -8 -139 84z" />
<glyph unicode="}" horiz-adv-x="970" d="M20 -57q35 -98 191 -174t311 -76q145 0 213 74q37 41 37 145q0 70 -20 207q-23 150 -25 196q45 63 127 84q109 27 119 35q55 33 67 139q-16 113 -104 142q-78 8 -156 18q-109 111 -108 168q0 10 4 21q33 96 76 190q14 29 14 68q0 156 -179 361.5t-315 205.5q-14 0 -24 -2 q-59 -14 -123 -78q-74 -72 -74 -139q0 -53 51 -92q119 25 185 24q258 0 248 -262q-29 -59 -56 -121q-31 -74 -30 -135q0 -145 159 -297q-137 -76 -137 -231q0 -55 22.5 -171t22.5 -167q0 -125 -94 -191q-43 4 -188.5 28t-213.5 30z" />
<glyph unicode="~" horiz-adv-x="1325" d="M219 1745q45 113 62 225q12 90 30 113q27 37 135 78q39 14 84 14q92 0 310.5 -95t333.5 -95q98 0 180 49l65 -68q-106 -190 -387 -190q-252 0 -418 149q-18 -12 -116 -147q-78 -109 -148 -109q-61 0 -131 76z" />
<glyph unicode="&#xa1;" horiz-adv-x="706" d="M0 -174q0 37 90 516q102 555 135 788q10 0 51 17.5t86 17.5q55 0 130 -72.5t75 -131.5q0 -41 -28 -99l-43 -84q-209 -524 -209 -788q0 -92 20 -164q-20 -47 -88.5 -116.5t-112.5 -88.5q-53 59 -83 129q-23 51 -23 76zM315 1434q0 86 62 165q57 70 96 70q119 0 205 -67 q78 -63 78 -138q0 -63 -82 -131q-88 -74 -187 -73q-57 0 -114.5 57.5t-57.5 116.5z" />
<glyph unicode="&#xa8;" horiz-adv-x="1085" d="M16 2034q0 66 84 125q80 53 148 53q109 0 198 -85t89 -188q0 -94 -91 -161q-78 -57 -155 -58q-76 0 -170 97q-103 104 -103 217zM672 1898q0 82 73 193q82 121 158 121q63 0 161.5 -92t98.5 -154q0 -100 -85 -200.5t-175 -100.5q-57 0 -141 78q-90 81 -90 155z" />
<glyph unicode="&#xaa;" d="M-2 -129q0 104 37 162q348 553 590 1048q29 61 67.5 215t67.5 217q23 45 108 82q78 35 86 70l109 -59q72 -47 92 -90q10 -20 10 -70q0 -35 -7 -114t-7 -109q12 -385 12 -418q0 -231 -41 -385q98 -53 191 -66l100 -12q25 -11 25 -67v-17q-20 0 -106.5 -13.5t-157.5 -15.5 q-4 -41 -5 -75q0 -106 42 -195.5t42 -120.5q0 -74 -110 -217q-17 -2 -32 -1q-103 0 -142 71q-33 57 -33 198v50v49q0 162 -41 229q-76 8 -143 8q-250 0 -424 -135q-16 -170 -58 -244q-72 -129 -256 -137q-16 94 -16 162zM514 403q47 0 196.5 14.5t202.5 14.5q2 86 2 164 q0 332 -28 522q-281 -348 -373 -715z" />
<glyph unicode="&#xab;" horiz-adv-x="1181" d="M61 549q0 33 27 84l41 74q14 -6 31 -7q84 0 295 179l327 278q2 -4 29 -39t47 -55q-209 -152 -582 -461q45 -76 216 -192q236 -162 296 -215q-49 -68 -137 -68q-27 0 -45 11.5t-49 49t-37 43.5q-90 72 -229 164zM471 549q0 33 27 84l41 74q14 -6 30 -7q84 0 295 179 l328 278q2 -4 28.5 -39t47.5 -55q-209 -152 -582 -461q45 -76 215 -192q236 -162 297 -215q-49 -68 -137 -68q-27 0 -45.5 11.5t-49 49t-36.5 43.5q-90 72 -230 164z" />
<glyph unicode="&#xad;" horiz-adv-x="1163" d="M143 610q0 68 68 150q63 76 102 76q84 0 235.5 -44t221.5 -44q61 0 113 22q23 10 78 52t86 50q16 6 43 7q150 0 155 -101q0 -57 -51 -133q-57 -82 -117 -82q-129 37 -286 37q-190 0 -420 -53l-82 -8q-105 -1 -146 71z" />
<glyph unicode="&#xb2;" horiz-adv-x="1236" d="M10 -59q334 186 629 534q358 424 389 819q-59 104 -143 105q-84 0 -251 -136.5t-231 -136.5q-102 0 -141 244l373 205q219 106 377 106q78 0 147 -24q166 -57 166 -301q0 -80 -16 -160q-49 -215 -281 -567q-240 -362 -541 -664q76 -61 269 -69q229 -10 284 -31 q131 -45 125 -205q-84 0 -346 8q-225 6 -362 6q-193 0 -348 -10q-43 37 -74 121t-25 156z" />
<glyph unicode="&#xb3;" horiz-adv-x="1554" d="M12 -303q-4 76 46.5 147.5t125.5 96.5q106 -63 267 -64q217 0 432 111q231 119 360 315q-23 135 -137 191q-90 45 -258 45q-72 0 -220.5 -10.5t-215.5 -10.5q-41 0 -76 2q-10 84 -10 121q0 129 82 190q246 27 487 177q203 129 360 317q-78 90 -229 90q-238 0 -612 -207 q-47 20 -96.5 97t-43.5 127q96 94 205 131q74 25 197 30q141 8 196 21q289 61 371 61q70 0 131 -16q76 -20 139.5 -105.5t63.5 -162.5q0 -137 -207 -304l-379 -262q31 -51 170 -98q182 -57 238 -90q125 -74 141 -205q-98 -338 -514 -565q-377 -209 -758 -209q-150 0 -256 39 z" />
<glyph unicode="&#xb4;" horiz-adv-x="866" d="M199 1790q20 -35 65 -90q291 98 484 235q250 176 180 330q-10 -2 -72 2q-53 6 -78 -14q-84 -61 -274 -219t-305 -244z" />
<glyph unicode="&#xb9;" horiz-adv-x="1189" d="M35 907q0 47 10 74l348 119q217 82 381 192q117 78 148 185q10 57 18 112q61 47 145 47q8 0 86 -4q57 -2 105 2q-37 -246 -160 -647q-158 -512 -190 -649q-90 -362 -76 -635q-45 -27 -152.5 -51.5t-181.5 -24.5q8 223 141 619q170 502 246 915q-287 -223 -391 -289 q-262 -164 -440 -159q-37 83 -37 194z" />
<glyph unicode="&#xba;" horiz-adv-x="1163" d="M336 864q0 203 156.5 443.5t285.5 248.5q49 4 168 -75q129 -82 213 -185q100 -123 86 -219q-16 -115 -182 -280q-170 -172 -285 -172q-14 0 -28 4q-76 -14 -140 -15q-274 0 -274 250zM541 954q0 -88 65 -151q14 -12 43 -12q78 0 189 61q121 63 166 145q55 96 -31 177 q-20 -2 -39 -3q-139 0 -178 111q-86 -51 -148 -139q-67 -97 -67 -189z" />
<glyph unicode="&#xbb;" horiz-adv-x="1001" d="M-25 195q0 35 37 108q82 -2 238 170l209 252q-12 16 -209 164q-160 121 -160 192q0 39 37 68q55 0 139 -84q147 -145 156 -152q100 -82 194 -79q29 -23 40.5 -61t5.5 -52q-135 -104 -295 -264q-186 -186 -238 -287q-25 0 -135 -37q-19 29 -19 62zM385 195q0 35 37 108 q82 -2 237 170l209 252q-12 16 -209 164q-160 121 -159 192q0 39 37 68q55 0 139 -84q147 -145 155 -152q100 -82 195 -79q29 -23 40 -61t5 -52q-135 -104 -295 -264q-186 -186 -237 -287q-25 0 -136 -37q-18 29 -18 62z" />
<glyph unicode="&#xbf;" horiz-adv-x="1478" d="M2 139q0 188 309 426l463 334q2 12 -8 53q-12 51 -14 80q16 16 63 25.5t88 3.5q41 -16 90 -113.5t49 -148.5q0 -18 -6 -25q-76 -57 -306 -164.5t-327 -185.5q-154 -123 -170 -285q47 -172 175 -258q113 -80 270 -80q250 0 461 170q223 178 223 414q0 55 -14 111 q137 12 231 -54q6 -33 6 -67q0 -246 -264 -486q-252 -227 -526 -266q-29 -4 -62 -4q-236 0 -469 145q-262 162 -262 375zM645 1446q0 53 91 139t147 72q41 -102 108 -287q-25 0 -81 -43t-91 -43q-59 0 -116.5 57.5t-57.5 104.5z" />
<glyph unicode="&#xc0;" d="M-2 -129q0 104 37 162q348 553 590 1048q29 61 67.5 215t67.5 217q23 45 108 82q78 35 86 70l109 -59q72 -47 92 -90q10 -20 10 -70q0 -35 -7 -114t-7 -109q12 -385 12 -418q0 -231 -41 -385q98 -53 191 -66l100 -12q25 -11 25 -67v-17q-20 0 -106.5 -13.5t-157.5 -15.5 q-4 -41 -5 -75q0 -106 42 -195.5t42 -120.5q0 -74 -110 -217q-17 -2 -32 -1q-103 0 -142 71q-33 57 -33 198v50v49q0 162 -41 229q-76 8 -143 8q-250 0 -424 -135q-16 -170 -58 -244q-72 -129 -256 -137q-16 94 -16 162zM514 403q47 0 196.5 14.5t202.5 14.5q2 86 2 164 q0 332 -28 522q-281 -348 -373 -715zM383 2265q10 -2 73 2q51 6 78 -14q82 -61 272.5 -219t305.5 -244q-18 -35 -66 -90q-291 98 -483 235q-248 176 -180 330z" />
<glyph unicode="&#xc1;" d="M-2 -129q0 104 37 162q348 553 590 1048q29 61 67.5 215t67.5 217q23 45 108 82q78 35 86 70l109 -59q72 -47 92 -90q10 -20 10 -70q0 -35 -7 -114t-7 -109q12 -385 12 -418q0 -231 -41 -385q98 -53 191 -66l100 -12q25 -11 25 -67v-17q-20 0 -106.5 -13.5t-157.5 -15.5 q-4 -41 -5 -75q0 -106 42 -195.5t42 -120.5q0 -74 -110 -217q-17 -2 -32 -1q-103 0 -142 71q-33 57 -33 198v50v49q0 162 -41 229q-76 8 -143 8q-250 0 -424 -135q-16 -170 -58 -244q-72 -129 -256 -137q-16 94 -16 162zM514 403q47 0 196.5 14.5t202.5 14.5q2 86 2 164 q0 332 -28 522q-281 -348 -373 -715zM199 1790q20 -35 65 -90q291 98 484 235q250 176 180 330q-10 -2 -72 2q-53 6 -78 -14q-84 -61 -274 -219t-305 -244z" />
<glyph unicode="&#xc2;" d="M-2 -129q0 104 37 162q348 553 590 1048q29 61 67.5 215t67.5 217q23 45 108 82q78 35 86 70l109 -59q72 -47 92 -90q10 -20 10 -70q0 -35 -7 -114t-7 -109q12 -385 12 -418q0 -231 -41 -385q98 -53 191 -66l100 -12q25 -11 25 -67v-17q-20 0 -106.5 -13.5t-157.5 -15.5 q-4 -41 -5 -75q0 -106 42 -195.5t42 -120.5q0 -74 -110 -217q-17 -2 -32 -1q-103 0 -142 71q-33 57 -33 198v50v49q0 162 -41 229q-76 8 -143 8q-250 0 -424 -135q-16 -170 -58 -244q-72 -129 -256 -137q-16 94 -16 162zM514 403q47 0 196.5 14.5t202.5 14.5q2 86 2 164 q0 332 -28 522q-281 -348 -373 -715zM213 1890q221 190 363 348l137 150q41 37 137 45q39 -25 107 -135q82 -135 124 -187q23 -27 115 -96q86 -66 115 -106q68 -94 67 -166q-51 -59 -108 -60q-84 0 -254 183q-184 199 -279 229q-100 -45 -256 -215q-133 -145 -208 -145 q-18 0 -37 4q0 4 -15 65q-12 53 -8 86z" />
<glyph unicode="&#xc3;" horiz-adv-x="1325" d="M-2 -129q0 104 37 162q348 553 590 1048q29 61 67.5 215t67.5 217q23 45 108 82q78 35 86 70l109 -59q72 -47 92 -90q10 -20 10 -70q0 -35 -7 -114t-7 -109q12 -385 12 -418q0 -231 -41 -385q98 -53 191 -66l100 -12q25 -11 25 -67v-17q-20 0 -106.5 -13.5t-157.5 -15.5 q-4 -41 -5 -75q0 -106 42 -195.5t42 -120.5q0 -74 -110 -217q-17 -2 -32 -1q-103 0 -142 71q-33 57 -33 198v50v49q0 162 -41 229q-76 8 -143 8q-250 0 -424 -135q-16 -170 -58 -244q-72 -129 -256 -137q-16 94 -16 162zM514 403q47 0 196.5 14.5t202.5 14.5q2 86 2 164 q0 332 -28 522q-281 -348 -373 -715zM219 1745q45 113 62 225q12 90 30 113q27 37 135 78q39 14 84 14q92 0 310.5 -95t333.5 -95q98 0 180 49l65 -68q-106 -190 -387 -190q-252 0 -418 149q-18 -12 -116 -147q-78 -109 -148 -109q-61 0 -131 76z" />
<glyph unicode="&#xc4;" d="M-2 -129q0 104 37 162q348 553 590 1048q29 61 67.5 215t67.5 217q23 45 108 82q78 35 86 70l109 -59q72 -47 92 -90q10 -20 10 -70q0 -35 -7 -114t-7 -109q12 -385 12 -418q0 -231 -41 -385q98 -53 191 -66l100 -12q25 -11 25 -67v-17q-20 0 -106.5 -13.5t-157.5 -15.5 q-4 -41 -5 -75q0 -106 42 -195.5t42 -120.5q0 -74 -110 -217q-17 -2 -32 -1q-103 0 -142 71q-33 57 -33 198v50v49q0 162 -41 229q-76 8 -143 8q-250 0 -424 -135q-16 -170 -58 -244q-72 -129 -256 -137q-16 94 -16 162zM514 403q47 0 196.5 14.5t202.5 14.5q2 86 2 164 q0 332 -28 522q-281 -348 -373 -715zM159 2034q0 66 84 125q80 53 148 53q109 0 198 -85t89 -188q0 -94 -91 -161q-78 -57 -155 -58q-76 0 -170 97q-103 104 -103 217zM815 1898q0 82 73 193q82 121 158 121q63 0 161.5 -92t98.5 -154q0 -100 -85 -200.5t-175 -100.5 q-57 0 -141 78q-90 81 -90 155z" />
<glyph unicode="&#xc5;" d="M-2 -129q0 104 37 162q348 553 590 1048q29 61 67.5 215t67.5 217q23 45 108 82q78 35 86 70l109 -59q72 -47 92 -90q10 -20 10 -70q0 -35 -7 -114t-7 -109q12 -385 12 -418q0 -231 -41 -385q98 -53 191 -66l100 -12q29 -12 25 -84q-20 0 -106.5 -13.5t-157.5 -15.5 q-4 -41 -5 -75q0 -106 42 -195.5t42 -120.5q0 -74 -110 -217q-129 -12 -174 70q-33 57 -33 198v50v49q0 162 -41 229q-76 8 -143 8q-250 0 -424 -135q-16 -170 -58 -244q-72 -129 -256 -137q-16 94 -16 162zM336 2011q0 203 156.5 443.5t285.5 248.5q49 4 168 -75 q129 -82 213 -185q100 -123 86 -219q-16 -115 -182 -280q-170 -172 -285 -172q-14 0 -28 4q-76 -14 -140 -15q-274 0 -274 250zM514 403q47 0 196.5 14.5t202.5 14.5q8 451 -26 686q-281 -348 -373 -715zM541 2101q0 -88 65 -151q14 -12 43 -13q78 0 189 62q121 63 166 145 q55 96 -31 176q-20 -2 -39 -2q-139 0 -178 111q-86 -51 -148 -139q-67 -97 -67 -189z" />
<glyph unicode="&#xc6;" horiz-adv-x="2060" d="M4 -106q-2 170 238 532l446 633q240 356 240 510q47 51 135 65q72 4 145 11q39 -49 62 -70q43 -43 82 -47q266 -33 383 -19q199 20 186 21q141 0 246 -115q-8 -8 -38 -68.5t-63 -86.5q-350 39 -487 38q-311 0 -326 -122q-35 -293 -39 -496q27 -18 68 -18q45 0 168 36.5 t182 36.5q145 0 178 -182q-41 -74 -159 -74q-33 0 -110 7.5t-116 7.5q-129 0 -202 -66q-20 -102 -21 -176q0 -213 191 -213q61 0 222 29.5t245 29.5q182 0 276 -110q-84 -31 -281 -58q-211 -31 -292 -53q-92 -27 -697 -254q2 16 -22.5 108.5t-24.5 135.5q0 53 31 67 q78 0 125 86q43 78 43 183q0 125 -60 178q-98 6 -276 -35q-203 -49 -276 -53q-47 -41 -111 -154q-74 -131 -107 -170q-66 -80 -145 -80q-21 1 -39 5zM594 641q76 -35 158 -35q88 0 252 60v497z" />
<glyph unicode="&#xc7;" horiz-adv-x="1212" d="M20 197q0 233 80 487q72 225 148 309q35 37 78 158q47 129 69 160q63 92 193.5 192.5t253.5 153.5q18 8 47 8t94 -12q59 -10 82 -6q61 -53 149.5 -193.5t85.5 -183.5q-16 -209 -26 -301q-27 -203 -76 -342q-20 -2 -113 -23q-84 -16 -120 -16q-6 150 45 341t51 240 q0 127 -156 203q-14 4 -33 4q-123 0 -299 -221q-164 -207 -245 -434q-63 -174 -64 -406q0 -342 174 -430q51 -27 131 -26q80 0 283 40t299 40q53 0 96 -9q-150 -158 -489 -256q-12 -422 -127 -422q-33 0 -57.5 39t-24.5 88q0 70 53 103q-115 0 -121 145q-217 -6 -317 105 q-144 160 -144 465z" />
<glyph unicode="&#xc8;" horiz-adv-x="1742" d="M-82 -121q150 88 254 324q72 156 143 444q78 313 105 379q20 55 31 242q8 170 48 239.5t146 110.5q98 39 211 39q57 0 105 -12q92 -20 247 -21q33 0 99 2h98q283 0 381 -94q-117 -92 -416 -92h-98q-68 2 -98 2q-281 0 -388 -82q-55 -43 -112 -248q-74 -256 -94 -299 q98 -70 188 -70q61 0 170 35l256 84q61 43 215 113q39 -14 90 -67.5t64 -96.5q-27 -86 -152 -188q-51 23 -133 22q-162 0 -526 -113q-78 -8 -156 -18q-121 -27 -160 -131q-25 -68 -51 -188l-45 -195q33 -57 143 -57q70 0 320 57q113 10 299 49q82 41 256 111q0 -16 38 -97 t38 -133q0 -72 -62 -120q-145 0 -289 -3q-188 -2 -305 -18q-70 -8 -307 -88q-211 -70 -356 -74h-4q-71 0 -107 88q-51 129 -86 164zM588 2265q10 -2 73 2q51 6 78 -14q82 -61 272.5 -219t305.5 -244q-18 -35 -66 -90q-291 98 -483 235q-248 176 -180 330z" />
<glyph unicode="&#xc9;" horiz-adv-x="1742" d="M-82 -121q150 88 254 324q72 156 143 444q78 313 105 379q20 55 31 242q8 170 48 239.5t146 110.5q98 39 211 39q57 0 105 -12q92 -20 247 -21q33 0 99 2h98q283 0 381 -94q-117 -92 -416 -92h-98q-68 2 -98 2q-281 0 -388 -82q-55 -43 -112 -248q-74 -256 -94 -299 q98 -70 188 -70q61 0 170 35l256 84q61 43 215 113q39 -14 90 -67.5t64 -96.5q-27 -86 -152 -188q-51 23 -133 22q-162 0 -526 -113q-78 -8 -156 -18q-121 -27 -160 -131q-25 -68 -51 -188l-45 -195q33 -57 143 -57q70 0 320 57q113 10 299 49q82 41 256 111q0 -16 38 -97 t38 -133q0 -72 -62 -120q-145 0 -289 -3q-188 -2 -305 -18q-70 -8 -307 -88q-211 -70 -356 -74h-4q-71 0 -107 88q-51 129 -86 164zM650 1790q20 -35 65 -90q291 98 484 235q250 176 180 330q-10 -2 -72 2q-53 6 -78 -14q-84 -61 -274 -219t-305 -244z" />
<glyph unicode="&#xca;" horiz-adv-x="1742" d="M-82 -121q150 88 254 324q72 156 143 444q78 313 105 379q20 55 31 242q8 170 48 239.5t146 110.5q98 39 211 39q57 0 105 -12q92 -20 247 -21q33 0 99 2h98q283 0 381 -94q-117 -92 -416 -92h-98q-68 2 -98 2q-281 0 -388 -82q-55 -43 -112 -248q-74 -256 -94 -299 q98 -70 188 -70q61 0 170 35l256 84q61 43 215 113q39 -14 90 -67.5t64 -96.5q-27 -86 -152 -188q-51 23 -133 22q-162 0 -526 -113q-78 -8 -156 -18q-121 -27 -160 -131q-25 -68 -51 -188l-45 -195q33 -57 143 -57q70 0 320 57q113 10 299 49q82 41 256 111q0 -16 38 -97 t38 -133q0 -72 -62 -120q-145 0 -289 -3q-188 -2 -305 -18q-70 -8 -307 -88q-211 -70 -356 -74h-4q-71 0 -107 88q-51 129 -86 164zM622 1890q221 190 363 348l137 150q41 37 137 45q39 -25 107 -135q82 -135 124 -187q23 -27 115 -96q86 -66 115 -106q68 -94 67 -166 q-51 -59 -108 -60q-84 0 -254 183q-184 199 -279 229q-100 -45 -256 -215q-133 -145 -208 -145q-18 0 -37 4q0 4 -15 65q-12 53 -8 86z" />
<glyph unicode="&#xcb;" horiz-adv-x="1742" d="M-82 -121q150 88 254 324q72 156 143 444q78 313 105 379q20 55 31 242q8 170 48 239.5t146 110.5q98 39 211 39q57 0 105 -12q92 -20 247 -21q33 0 99 2h98q283 0 381 -94q-117 -92 -416 -92h-98q-68 2 -98 2q-281 0 -388 -82q-55 -43 -112 -248q-74 -256 -94 -299 q98 -70 188 -70q61 0 170 35l256 84q61 43 215 113q39 -14 90 -67.5t64 -96.5q-27 -86 -152 -188q-51 23 -133 22q-162 0 -526 -113q-78 -8 -156 -18q-121 -27 -160 -131q-25 -68 -51 -188l-45 -195q33 -57 143 -57q70 0 320 57q113 10 299 49q82 41 256 111q0 -16 38 -97 t38 -133q0 -72 -62 -120q-145 0 -289 -3q-188 -2 -305 -18q-70 -8 -307 -88q-211 -70 -356 -74h-4q-71 0 -107 88q-51 129 -86 164zM569 2034q0 66 84 125q80 53 148 53q109 0 198 -85t89 -188q0 -94 -91 -161q-78 -57 -155 -58q-76 0 -170 97q-103 104 -103 217zM1225 1898 q0 82 73 193q82 121 158 121q63 0 161.5 -92t98.5 -154q0 -100 -85 -200.5t-175 -100.5q-57 0 -141 78q-90 81 -90 155z" />
<glyph unicode="&#xcc;" horiz-adv-x="847" d="M8 -258q193 561 244 727q141 461 201 848q6 86 14 172q12 119 53 182q18 1 36 1q232 0 251 -154q-47 -217 -176 -594q-156 -446 -197 -594q-86 -307 -86 -528v-29q-68 -70 -225 -148q-27 0 -115 117zM179 2265q10 -2 73 2q51 6 78 -14q82 -61 272.5 -219t305.5 -244 q-18 -35 -66 -90q-291 98 -483 235q-248 176 -180 330z" />
<glyph unicode="&#xcd;" horiz-adv-x="866" d="M8 -258q193 561 244 727q141 461 201 848q6 86 14 172q12 119 53 182q18 1 36 1q232 0 251 -154q-47 -217 -176 -594q-156 -446 -197 -594q-86 -307 -86 -528v-29q-68 -70 -225 -148q-27 0 -115 117zM199 1790q20 -35 65 -90q291 98 484 235q250 176 180 330 q-10 -2 -72 2q-53 6 -78 -14q-84 -61 -274 -219t-305 -244z" />
<glyph unicode="&#xce;" horiz-adv-x="1171" d="M8 -258q193 561 244 727q141 461 201 848q6 86 14 172q12 119 53 182q18 1 36 1q232 0 251 -154q-47 -217 -176 -594q-156 -446 -197 -594q-86 -307 -86 -528v-29q-68 -70 -225 -148q-27 0 -115 117zM90 1890q221 190 363 348l137 150q41 37 137 45q39 -25 107 -135 q82 -135 124 -187q23 -27 115 -96q86 -66 115 -106q68 -94 67 -166q-51 -59 -108 -60q-84 0 -254 183q-184 199 -279 229q-100 -45 -256 -215q-133 -145 -208 -145q-18 0 -37 4q0 4 -15 65q-12 53 -8 86z" />
<glyph unicode="&#xcf;" horiz-adv-x="1161" d="M8 -258q193 561 244 727q141 461 201 848q6 86 14 172q12 119 53 182q18 1 36 1q232 0 251 -154q-47 -217 -176 -594q-156 -446 -197 -594q-86 -307 -86 -528v-29q-68 -70 -225 -148q-27 0 -115 117zM98 2034q0 66 84 125q80 53 148 53q109 0 198 -85t89 -188 q0 -94 -91 -161q-78 -57 -155 -58q-76 0 -170 97q-103 104 -103 217zM754 1898q0 82 73 193q82 121 158 121q63 0 161.5 -92t98.5 -154q0 -100 -85 -200.5t-175 -100.5q-57 0 -141 78q-90 81 -90 155z" />
<glyph unicode="&#xd0;" horiz-adv-x="1351" d="M0 -172q119 160 219 631l160 811q-215 133 -215 223q0 72 137 111q121 33 317 32q190 0 373 -30.5t252 -77.5q182 -287 182 -582q0 -139 -53 -244q-125 -252 -491 -581q-350 -315 -674 -492q-94 31 -207 199zM367 240q-8 -47 11 -100.5t44 -76.5q276 104 502 381 q233 287 233 547q0 307 -352 426q-272 -71 -438 -1177z" />
<glyph unicode="&#xd1;" horiz-adv-x="1839" d="M39 -203q0 119 98 365q115 281 127 352l88 356q63 262 64 416q0 98 -25 164q16 57 78 172q115 25 180 25q63 0 111 -15q6 -156 92 -413q47 -150 185.5 -503.5t195.5 -535.5q203 412 285 625q127 322 127 520q0 113 -39 195q47 51 148 101t161 50q14 0 24 -4 q31 -117 31 -203q0 -72 -20 -129q-125 -145 -291 -671q-145 -465 -217 -859l-160 -94q-139 -78 -233 -82q-18 66 -25 215q-6 141 -29 209q-154 459 -352 856l-168 -442q-113 -340 -113 -573q0 -86 15 -158h-8q-41 0 -119 -39l-129 -72q-82 53 -82 172zM649 1745 q45 113 62 225q12 90 30 113q27 37 135 78q39 14 84 14q92 0 310.5 -95t333.5 -95q98 0 180 49l65 -68q-106 -190 -387 -190q-252 0 -418 149q-18 -12 -116 -147q-78 -109 -148 -109q-61 0 -131 76z" />
<glyph unicode="&#xd2;" horiz-adv-x="1181" d="M-14 184q0 385 319 971q133 242 359 512q20 -6 309 -41q225 -313 225 -731q0 -354 -164 -682q-166 -334 -450 -532q-33 0 -129.5 -25t-145.5 -25q-59 0 -96 29q-227 192 -227 524zM227 281q0 -217 105 -383l65 -23q49 -16 68 -16q262 152 405 415q129 240 129 510 q0 362 -211 557q-207 -139 -374 -434q-187 -325 -187 -626zM383 2265q10 -2 73 2q51 6 78 -14q82 -61 272.5 -219t305.5 -244q-18 -35 -66 -90q-291 98 -483 235q-248 176 -180 330z" />
<glyph unicode="&#xd3;" horiz-adv-x="1181" d="M-14 184q0 385 319 971q133 242 359 512q20 -6 309 -41q225 -313 225 -731q0 -354 -164 -682q-166 -334 -450 -532q-33 0 -129.5 -25t-145.5 -25q-59 0 -96 29q-227 192 -227 524zM227 281q0 -217 105 -383l65 -23q49 -16 68 -16q262 152 405 415q129 240 129 510 q0 362 -211 557q-207 -139 -374 -434q-187 -325 -187 -626zM445 1790q20 -35 65 -90q291 98 484 235q250 176 180 330q-10 -2 -72 2q-53 6 -78 -14q-84 -61 -274 -219t-305 -244z" />
<glyph unicode="&#xd4;" horiz-adv-x="1361" d="M-14 184q0 385 319 971q133 242 359 512q20 -6 309 -41q225 -313 225 -731q0 -354 -164 -682q-166 -334 -450 -532q-33 0 -129.5 -25t-145.5 -25q-59 0 -96 29q-227 192 -227 524zM227 281q0 -217 105 -383l65 -23q49 -16 68 -16q262 152 405 415q129 240 129 510 q0 362 -211 557q-207 -139 -374 -434q-187 -325 -187 -626zM295 1890q221 190 363 348l137 150q41 37 137 45q39 -25 107 -135q82 -135 124 -187q23 -27 115 -96q86 -66 115 -106q68 -94 67 -166q-51 -59 -108 -60q-84 0 -254 183q-184 199 -279 229q-100 -45 -256 -215 q-133 -145 -208 -145q-18 0 -37 4q0 4 -15 65q-12 53 -8 86z" />
<glyph unicode="&#xd5;" horiz-adv-x="1325" d="M-14 184q0 385 319 971q133 242 359 512q20 -6 309 -41q225 -313 225 -731q0 -354 -164 -682q-166 -334 -450 -532q-33 0 -129.5 -25t-145.5 -25q-59 0 -96 29q-227 192 -227 524zM227 281q0 -217 105 -383l65 -23q49 -16 68 -16q262 152 405 415q129 240 129 510 q0 362 -211 557q-207 -139 -374 -434q-187 -325 -187 -626zM219 1745q45 113 62 225q12 90 30 113q27 37 135 78q39 14 84 14q92 0 310.5 -95t333.5 -95q98 0 180 49l65 -68q-106 -190 -387 -190q-252 0 -418 149q-18 -12 -116 -147q-78 -109 -148 -109q-61 0 -131 76z" />
<glyph unicode="&#xd6;" horiz-adv-x="1257" d="M-14 184q0 385 319 971q133 242 359 512q20 -6 309 -41q225 -313 225 -731q0 -354 -164 -682q-166 -334 -450 -532q-33 0 -129.5 -25t-145.5 -25q-59 0 -96 29q-227 192 -227 524zM227 281q0 -217 105 -383l65 -23q49 -16 68 -16q262 152 405 415q129 240 129 510 q0 362 -211 557q-207 -139 -374 -434q-187 -325 -187 -626zM200 2034q0 66 84 125q80 53 148 53q109 0 198 -85t89 -188q0 -94 -91 -161q-78 -57 -155 -58q-76 0 -170 97q-103 104 -103 217zM856 1898q0 82 73 193q82 121 158 121q63 0 161.5 -92t98.5 -154 q0 -100 -85 -200.5t-175 -100.5q-57 0 -141 78q-90 81 -90 155z" />
<glyph unicode="&#xd8;" horiz-adv-x="1495" d="M-12 -348q0 70 135 205q-12 27 -64 98q-45 59 -51 96q-8 49 -8 496q0 201 383 659q133 158 463 500q59 -59 168 -84q14 -68 49 -129q47 -88 102 -88q37 0 117 84t119 84q61 0 118.5 -35t82.5 -86l-183 -133q-129 -92 -144 -167t-9 -234q12 -250 12 -283q0 -111 -14 -191 q-45 -244 -322 -497q-283 -258 -520 -258q-23 0 -43 2l-121 -142q-74 -82 -119 -81q-57 0 -104 60.5t-47 123.5zM223 256q0 -55 13 -78l38 -39l369 529q268 381 371 503q-31 0 -85.5 21.5t-97.5 21.5q-135 0 -290 -225q-121 -174 -228 -438q-90 -227 -90 -295zM496 -57 q125 57 315 225q227 201 223 307v324q-210 -246 -538 -856z" />
<glyph unicode="&#xd9;" horiz-adv-x="1212" d="M6 236q0 137 68 546q57 335 56 584q0 39 -1 76l242 100q0 -10 45 -59t45 -80q0 -72 -41 -203l-66 -213q-117 -408 -116 -631q0 -317 188 -450q244 160 434 487q188 322 189 568q0 20 8 83.5t8 102.5q0 35 -6 63q-2 18 -41 105q-37 76 -37 125q0 76 90 137 q39 27 104.5 57.5t73.5 34.5q49 -135 49 -315q0 -479 -303 -1094l-104 -215q-82 -158 -172 -254q-119 -131 -258 -162q-25 -4 -60 -4q-111 0 -198 39q-197 250 -197 572zM383 2265q10 -2 73 2q51 6 78 -14q82 -61 272.5 -219t305.5 -244q-18 -35 -66 -90q-291 98 -483 235 q-248 176 -180 330z" />
<glyph unicode="&#xda;" horiz-adv-x="1212" d="M6 236q0 137 68 546q57 335 56 584q0 39 -1 76l242 100q0 -10 45 -59t45 -80q0 -72 -41 -203l-66 -213q-117 -408 -116 -631q0 -317 188 -450q244 160 434 487q188 322 189 568q0 20 8 83.5t8 102.5q0 35 -6 63q-2 18 -41 105q-37 76 -37 125q0 76 90 137 q39 27 104.5 57.5t73.5 34.5q49 -135 49 -315q0 -479 -303 -1094l-104 -215q-82 -158 -172 -254q-119 -131 -258 -162q-25 -4 -60 -4q-111 0 -198 39q-197 250 -197 572zM301 1790q20 -35 65 -90q291 98 484 235q250 176 180 330q-10 -2 -72 2q-53 6 -78 -14 q-84 -61 -274 -219t-305 -244z" />
<glyph unicode="&#xdb;" horiz-adv-x="1212" d="M6 236q0 137 68 546q57 335 56 584q0 39 -1 76l242 100q0 -10 45 -59t45 -80q0 -72 -41 -203l-66 -213q-117 -408 -116 -631q0 -317 188 -450q244 160 434 487q188 322 189 568q0 20 8 83.5t8 102.5q0 35 -6 63q-2 18 -41 105q-37 76 -37 125q0 76 90 137 q39 27 104.5 57.5t73.5 34.5q49 -135 49 -315q0 -479 -303 -1094l-104 -215q-82 -158 -172 -254q-119 -131 -258 -162q-25 -4 -60 -4q-111 0 -198 39q-197 250 -197 572zM131 1890q221 190 363 348l137 150q41 37 137 45q39 -25 107 -135q82 -135 124 -187q23 -27 115 -96 q86 -66 115 -106q68 -94 67 -166q-51 -59 -108 -60q-84 0 -254 183q-184 199 -279 229q-100 -45 -256 -215q-133 -145 -208 -145q-18 0 -37 4q0 4 -15 65q-12 53 -8 86z" />
<glyph unicode="&#xdc;" horiz-adv-x="1212" d="M6 236q0 137 68 546q57 335 56 584q0 39 -1 76l242 100q0 -10 45 -59t45 -80q0 -72 -41 -203l-66 -213q-117 -408 -116 -631q0 -317 188 -450q244 160 434 487q188 322 189 568q0 20 8 83.5t8 102.5q0 35 -6 63q-2 18 -41 105q-37 76 -37 125q0 76 90 137 q39 27 104.5 57.5t73.5 34.5q49 -135 49 -315q0 -479 -303 -1094l-104 -215q-82 -158 -172 -254q-119 -131 -258 -162q-25 -4 -60 -4q-111 0 -198 39q-197 250 -197 572zM139 2034q0 66 84 125q80 53 148 53q109 0 198 -85t89 -188q0 -94 -91 -161q-78 -57 -155 -58 q-76 0 -170 97q-103 104 -103 217zM795 1898q0 82 73 193q82 121 158 121q63 0 161.5 -92t98.5 -154q0 -100 -85 -200.5t-175 -100.5q-57 0 -141 78q-90 81 -90 155z" />
<glyph unicode="&#xdd;" horiz-adv-x="1253" d="M2 -92q164 63 317 330l209 411q-18 92 -221 328q-287 332 -299 348q8 125 19 154q23 61 116 127q86 -25 201 -189l197 -293q117 -156 217 -170q84 104 190.5 318.5t163.5 394.5h213q18 -33 18 -80q0 -102 -90 -276q-53 -106 -195.5 -333.5t-193.5 -330.5 q-20 -37 -129.5 -139t-142.5 -162l-100 -192q-72 -141 -134 -222q55 -55 93 -55q-16 -109 -125 -158l-250 -96q-74 119 -74 285zM363 1790q20 -35 65 -90q291 98 484 235q250 176 180 330q-10 -2 -72 2q-53 6 -78 -14q-84 -61 -274 -219t-305 -244z" />
<glyph unicode="&#xe0;" d="M-2 -129q0 104 37 162q348 553 590 1048q29 61 67.5 215t67.5 217q23 45 108 82q78 35 86 70l109 -59q72 -47 92 -90q10 -20 10 -70q0 -35 -7 -114t-7 -109q12 -385 12 -418q0 -231 -41 -385q98 -53 191 -66l100 -12q25 -11 25 -67v-17q-20 0 -106.5 -13.5t-157.5 -15.5 q-4 -41 -5 -75q0 -106 42 -195.5t42 -120.5q0 -74 -110 -217q-17 -2 -32 -1q-103 0 -142 71q-33 57 -33 198v50v49q0 162 -41 229q-76 8 -143 8q-250 0 -424 -135q-16 -170 -58 -244q-72 -129 -256 -137q-16 94 -16 162zM514 403q47 0 196.5 14.5t202.5 14.5q2 86 2 164 q0 332 -28 522q-281 -348 -373 -715zM383 2265q10 -2 73 2q51 6 78 -14q82 -61 272.5 -219t305.5 -244q-18 -35 -66 -90q-291 98 -483 235q-248 176 -180 330z" />
<glyph unicode="&#xe1;" d="M-2 -129q0 104 37 162q348 553 590 1048q29 61 67.5 215t67.5 217q23 45 108 82q78 35 86 70l109 -59q72 -47 92 -90q10 -20 10 -70q0 -35 -7 -114t-7 -109q12 -385 12 -418q0 -231 -41 -385q98 -53 191 -66l100 -12q25 -11 25 -67v-17q-20 0 -106.5 -13.5t-157.5 -15.5 q-4 -41 -5 -75q0 -106 42 -195.5t42 -120.5q0 -74 -110 -217q-17 -2 -32 -1q-103 0 -142 71q-33 57 -33 198v50v49q0 162 -41 229q-76 8 -143 8q-250 0 -424 -135q-16 -170 -58 -244q-72 -129 -256 -137q-16 94 -16 162zM514 403q47 0 196.5 14.5t202.5 14.5q2 86 2 164 q0 332 -28 522q-281 -348 -373 -715zM199 1790q20 -35 65 -90q291 98 484 235q250 176 180 330q-10 -2 -72 2q-53 6 -78 -14q-84 -61 -274 -219t-305 -244z" />
<glyph unicode="&#xe2;" d="M-2 -129q0 104 37 162q348 553 590 1048q29 61 67.5 215t67.5 217q23 45 108 82q78 35 86 70l109 -59q72 -47 92 -90q10 -20 10 -70q0 -35 -7 -114t-7 -109q12 -385 12 -418q0 -231 -41 -385q98 -53 191 -66l100 -12q25 -11 25 -67v-17q-20 0 -106.5 -13.5t-157.5 -15.5 q-4 -41 -5 -75q0 -106 42 -195.5t42 -120.5q0 -74 -110 -217q-17 -2 -32 -1q-103 0 -142 71q-33 57 -33 198v50v49q0 162 -41 229q-76 8 -143 8q-250 0 -424 -135q-16 -170 -58 -244q-72 -129 -256 -137q-16 94 -16 162zM514 403q47 0 196.5 14.5t202.5 14.5q2 86 2 164 q0 332 -28 522q-281 -348 -373 -715zM213 1890q221 190 363 348l137 150q41 37 137 45q39 -25 107 -135q82 -135 124 -187q23 -27 115 -96q86 -66 115 -106q68 -94 67 -166q-51 -59 -108 -60q-84 0 -254 183q-184 199 -279 229q-100 -45 -256 -215q-133 -145 -208 -145 q-18 0 -37 4q0 4 -15 65q-12 53 -8 86z" />
<glyph unicode="&#xe3;" horiz-adv-x="1325" d="M-2 -129q0 104 37 162q348 553 590 1048q29 61 67.5 215t67.5 217q23 45 108 82q78 35 86 70l109 -59q72 -47 92 -90q10 -20 10 -70q0 -35 -7 -114t-7 -109q12 -385 12 -418q0 -231 -41 -385q98 -53 191 -66l100 -12q25 -11 25 -67v-17q-20 0 -106.5 -13.5t-157.5 -15.5 q-4 -41 -5 -75q0 -106 42 -195.5t42 -120.5q0 -74 -110 -217q-17 -2 -32 -1q-103 0 -142 71q-33 57 -33 198v50v49q0 162 -41 229q-76 8 -143 8q-250 0 -424 -135q-16 -170 -58 -244q-72 -129 -256 -137q-16 94 -16 162zM514 403q47 0 196.5 14.5t202.5 14.5q2 86 2 164 q0 332 -28 522q-281 -348 -373 -715zM219 1745q45 113 62 225q12 90 30 113q27 37 135 78q39 14 84 14q92 0 310.5 -95t333.5 -95q98 0 180 49l65 -68q-106 -190 -387 -190q-252 0 -418 149q-18 -12 -116 -147q-78 -109 -148 -109q-61 0 -131 76z" />
<glyph unicode="&#xe4;" d="M-2 -129q0 104 37 162q348 553 590 1048q29 61 67.5 215t67.5 217q23 45 108 82q78 35 86 70l109 -59q72 -47 92 -90q10 -20 10 -70q0 -35 -7 -114t-7 -109q12 -385 12 -418q0 -231 -41 -385q98 -53 191 -66l100 -12q25 -11 25 -67v-17q-20 0 -106.5 -13.5t-157.5 -15.5 q-4 -41 -5 -75q0 -106 42 -195.5t42 -120.5q0 -74 -110 -217q-17 -2 -32 -1q-103 0 -142 71q-33 57 -33 198v50v49q0 162 -41 229q-76 8 -143 8q-250 0 -424 -135q-16 -170 -58 -244q-72 -129 -256 -137q-16 94 -16 162zM514 403q47 0 196.5 14.5t202.5 14.5q2 86 2 164 q0 332 -28 522q-281 -348 -373 -715zM159 2034q0 66 84 125q80 53 148 53q109 0 198 -85t89 -188q0 -94 -91 -161q-78 -57 -155 -58q-76 0 -170 97q-103 104 -103 217zM815 1898q0 82 73 193q82 121 158 121q63 0 161.5 -92t98.5 -154q0 -100 -85 -200.5t-175 -100.5 q-57 0 -141 78q-90 81 -90 155z" />
<glyph unicode="&#xe5;" d="M-2 -129q0 104 37 162q348 553 590 1048q29 61 67.5 215t67.5 217q23 45 108 82q78 35 86 70l109 -59q72 -47 92 -90q10 -20 10 -70q0 -35 -7 -114t-7 -109q12 -385 12 -418q0 -231 -41 -385q98 -53 191 -66l100 -12q29 -12 25 -84q-20 0 -106.5 -13.5t-157.5 -15.5 q-4 -41 -5 -75q0 -106 42 -195.5t42 -120.5q0 -74 -110 -217q-129 -12 -174 70q-33 57 -33 198v50v49q0 162 -41 229q-76 8 -143 8q-250 0 -424 -135q-16 -170 -58 -244q-72 -129 -256 -137q-16 94 -16 162zM336 2011q0 203 156.5 443.5t285.5 248.5q49 4 168 -75 q129 -82 213 -185q100 -123 86 -219q-16 -115 -182 -280q-170 -172 -285 -172q-14 0 -28 4q-76 -14 -140 -15q-274 0 -274 250zM514 403q47 0 196.5 14.5t202.5 14.5q8 451 -26 686q-281 -348 -373 -715zM541 2101q0 -88 65 -151q14 -12 43 -13q78 0 189 62q121 63 166 145 q55 96 -31 176q-20 -2 -39 -2q-139 0 -178 111q-86 -51 -148 -139q-67 -97 -67 -189z" />
<glyph unicode="&#xe6;" horiz-adv-x="2060" d="M4 -106q-2 170 238 532l446 633q240 356 240 510q47 51 135 65q72 4 145 11q39 -49 62 -70q43 -43 82 -47q266 -33 383 -19q199 20 186 21q141 0 246 -115q-8 -8 -38 -68.5t-63 -86.5q-350 39 -487 38q-311 0 -326 -122q-35 -293 -39 -496q27 -18 68 -18q45 0 168 36.5 t182 36.5q145 0 178 -182q-41 -74 -159 -74q-33 0 -110 7.5t-116 7.5q-129 0 -202 -66q-20 -102 -21 -176q0 -213 191 -213q61 0 222 29.5t245 29.5q182 0 276 -110q-84 -31 -281 -58q-211 -31 -292 -53q-92 -27 -697 -254q2 16 -22.5 108.5t-24.5 135.5q0 53 31 67 q78 0 125 86q43 78 43 183q0 125 -60 178q-98 6 -276 -35q-203 -49 -276 -53q-47 -41 -111 -154q-74 -131 -107 -170q-66 -80 -145 -80q-21 1 -39 5zM594 641q76 -35 158 -35q88 0 252 60v497z" />
<glyph unicode="&#xe7;" horiz-adv-x="1212" d="M20 197q0 233 80 487q72 225 148 309q35 37 78 158q47 129 69 160q63 92 193.5 192.5t253.5 153.5q18 8 47 8t94 -12q59 -10 82 -6q61 -53 149.5 -193.5t85.5 -183.5q-16 -209 -26 -301q-27 -203 -76 -342q-20 -2 -113 -23q-84 -16 -120 -16q-6 150 45 341t51 240 q0 127 -156 203q-14 4 -33 4q-123 0 -299 -221q-164 -207 -245 -434q-63 -174 -64 -406q0 -342 174 -430q51 -27 131 -26q80 0 283 40t299 40q53 0 96 -9q-150 -158 -489 -256q-12 -422 -127 -422q-33 0 -57.5 39t-24.5 88q0 70 53 103q-115 0 -121 145q-217 -6 -317 105 q-144 160 -144 465z" />
<glyph unicode="&#xe8;" horiz-adv-x="1742" d="M-82 -121q150 88 254 324q72 156 143 444q78 313 105 379q20 55 31 242q8 170 48 239.5t146 110.5q98 39 211 39q57 0 105 -12q92 -20 247 -21q33 0 99 2h98q283 0 381 -94q-117 -92 -416 -92h-98q-68 2 -98 2q-281 0 -388 -82q-55 -43 -112 -248q-74 -256 -94 -299 q98 -70 188 -70q61 0 170 35l256 84q61 43 215 113q39 -14 90 -67.5t64 -96.5q-27 -86 -152 -188q-51 23 -133 22q-162 0 -526 -113q-78 -8 -156 -18q-121 -27 -160 -131q-25 -68 -51 -188l-45 -195q33 -57 143 -57q70 0 320 57q113 10 299 49q82 41 256 111q0 -16 38 -97 t38 -133q0 -72 -62 -120q-145 0 -289 -3q-188 -2 -305 -18q-70 -8 -307 -88q-211 -70 -356 -74h-4q-71 0 -107 88q-51 129 -86 164zM588 2265q10 -2 73 2q51 6 78 -14q82 -61 272.5 -219t305.5 -244q-18 -35 -66 -90q-291 98 -483 235q-248 176 -180 330z" />
<glyph unicode="&#xe9;" horiz-adv-x="1742" d="M-82 -121q150 88 254 324q72 156 143 444q78 313 105 379q20 55 31 242q8 170 48 239.5t146 110.5q98 39 211 39q57 0 105 -12q92 -20 247 -21q33 0 99 2h98q283 0 381 -94q-117 -92 -416 -92h-98q-68 2 -98 2q-281 0 -388 -82q-55 -43 -112 -248q-74 -256 -94 -299 q98 -70 188 -70q61 0 170 35l256 84q61 43 215 113q39 -14 90 -67.5t64 -96.5q-27 -86 -152 -188q-51 23 -133 22q-162 0 -526 -113q-78 -8 -156 -18q-121 -27 -160 -131q-25 -68 -51 -188l-45 -195q33 -57 143 -57q70 0 320 57q113 10 299 49q82 41 256 111q0 -16 38 -97 t38 -133q0 -72 -62 -120q-145 0 -289 -3q-188 -2 -305 -18q-70 -8 -307 -88q-211 -70 -356 -74h-4q-71 0 -107 88q-51 129 -86 164zM650 1790q20 -35 65 -90q291 98 484 235q250 176 180 330q-10 -2 -72 2q-53 6 -78 -14q-84 -61 -274 -219t-305 -244z" />
<glyph unicode="&#xea;" horiz-adv-x="1742" d="M-82 -121q150 88 254 324q72 156 143 444q78 313 105 379q20 55 31 242q8 170 48 239.5t146 110.5q98 39 211 39q57 0 105 -12q92 -20 247 -21q33 0 99 2h98q283 0 381 -94q-117 -92 -416 -92h-98q-68 2 -98 2q-281 0 -388 -82q-55 -43 -112 -248q-74 -256 -94 -299 q98 -70 188 -70q61 0 170 35l256 84q61 43 215 113q39 -14 90 -67.5t64 -96.5q-27 -86 -152 -188q-51 23 -133 22q-162 0 -526 -113q-78 -8 -156 -18q-121 -27 -160 -131q-25 -68 -51 -188l-45 -195q33 -57 143 -57q70 0 320 57q113 10 299 49q82 41 256 111q0 -16 38 -97 t38 -133q0 -72 -62 -120q-145 0 -289 -3q-188 -2 -305 -18q-70 -8 -307 -88q-211 -70 -356 -74h-4q-71 0 -107 88q-51 129 -86 164zM622 1890q221 190 363 348l137 150q41 37 137 45q39 -25 107 -135q82 -135 124 -187q23 -27 115 -96q86 -66 115 -106q68 -94 67 -166 q-51 -59 -108 -60q-84 0 -254 183q-184 199 -279 229q-100 -45 -256 -215q-133 -145 -208 -145q-18 0 -37 4q0 4 -15 65q-12 53 -8 86z" />
<glyph unicode="&#xeb;" horiz-adv-x="1742" d="M-82 -121q150 88 254 324q72 156 143 444q78 313 105 379q20 55 31 242q8 170 48 239.5t146 110.5q98 39 211 39q57 0 105 -12q92 -20 247 -21q33 0 99 2h98q283 0 381 -94q-117 -92 -416 -92h-98q-68 2 -98 2q-281 0 -388 -82q-55 -43 -112 -248q-74 -256 -94 -299 q98 -70 188 -70q61 0 170 35l256 84q61 43 215 113q39 -14 90 -67.5t64 -96.5q-27 -86 -152 -188q-51 23 -133 22q-162 0 -526 -113q-78 -8 -156 -18q-121 -27 -160 -131q-25 -68 -51 -188l-45 -195q33 -57 143 -57q70 0 320 57q113 10 299 49q82 41 256 111q0 -16 38 -97 t38 -133q0 -72 -62 -120q-145 0 -289 -3q-188 -2 -305 -18q-70 -8 -307 -88q-211 -70 -356 -74h-4q-71 0 -107 88q-51 129 -86 164zM569 2034q0 66 84 125q80 53 148 53q109 0 198 -85t89 -188q0 -94 -91 -161q-78 -57 -155 -58q-76 0 -170 97q-103 104 -103 217zM1225 1898 q0 82 73 193q82 121 158 121q63 0 161.5 -92t98.5 -154q0 -100 -85 -200.5t-175 -100.5q-57 0 -141 78q-90 81 -90 155z" />
<glyph unicode="&#xec;" horiz-adv-x="847" d="M8 -258q193 561 244 727q141 461 201 848q6 86 14 172q12 119 53 182q18 1 36 1q232 0 251 -154q-47 -217 -176 -594q-156 -446 -197 -594q-86 -307 -86 -528v-29q-68 -70 -225 -148q-27 0 -115 117zM179 2265q10 -2 73 2q51 6 78 -14q82 -61 272.5 -219t305.5 -244 q-18 -35 -66 -90q-291 98 -483 235q-248 176 -180 330z" />
<glyph unicode="&#xed;" horiz-adv-x="866" d="M8 -258q193 561 244 727q141 461 201 848q6 86 14 172q12 119 53 182q18 1 36 1q232 0 251 -154q-47 -217 -176 -594q-156 -446 -197 -594q-86 -307 -86 -528v-29q-68 -70 -225 -148q-27 0 -115 117zM199 1790q20 -35 65 -90q291 98 484 235q250 176 180 330 q-10 -2 -72 2q-53 6 -78 -14q-84 -61 -274 -219t-305 -244z" />
<glyph unicode="&#xee;" horiz-adv-x="1171" d="M8 -258q193 561 244 727q141 461 201 848q6 86 14 172q12 119 53 182q18 1 36 1q232 0 251 -154q-47 -217 -176 -594q-156 -446 -197 -594q-86 -307 -86 -528v-29q-68 -70 -225 -148q-27 0 -115 117zM90 1890q221 190 363 348l137 150q41 37 137 45q39 -25 107 -135 q82 -135 124 -187q23 -27 115 -96q86 -66 115 -106q68 -94 67 -166q-51 -59 -108 -60q-84 0 -254 183q-184 199 -279 229q-100 -45 -256 -215q-133 -145 -208 -145q-18 0 -37 4q0 4 -15 65q-12 53 -8 86z" />
<glyph unicode="&#xef;" horiz-adv-x="1161" d="M8 -258q193 561 244 727q141 461 201 848q6 86 14 172q12 119 53 182q18 1 36 1q232 0 251 -154q-47 -217 -176 -594q-156 -446 -197 -594q-86 -307 -86 -528v-29q-68 -70 -225 -148q-27 0 -115 117zM98 2034q0 66 84 125q80 53 148 53q109 0 198 -85t89 -188 q0 -94 -91 -161q-78 -57 -155 -58q-76 0 -170 97q-103 104 -103 217zM754 1898q0 82 73 193q82 121 158 121q63 0 161.5 -92t98.5 -154q0 -100 -85 -200.5t-175 -100.5q-57 0 -141 78q-90 81 -90 155z" />
<glyph unicode="&#xf0;" horiz-adv-x="1351" d="M0 -172q119 160 219 631l160 811q-215 133 -215 223q0 72 137 111q121 33 317 32q190 0 373 -30.5t252 -77.5q182 -287 182 -582q0 -139 -53 -244q-125 -252 -491 -581q-350 -315 -674 -492q-94 31 -207 199zM367 240q-8 -47 11 -100.5t44 -76.5q276 104 502 381 q233 287 233 547q0 307 -352 426q-272 -71 -438 -1177z" />
<glyph unicode="&#xf1;" horiz-adv-x="1839" d="M39 -203q0 119 98 365q115 281 127 352l88 356q63 262 64 416q0 98 -25 164q16 57 78 172q115 25 180 25q63 0 111 -15q6 -156 92 -413q47 -150 185.5 -503.5t195.5 -535.5q203 412 285 625q127 322 127 520q0 113 -39 195q47 51 148 101t161 50q14 0 24 -4 q31 -117 31 -203q0 -72 -20 -129q-125 -145 -291 -671q-145 -465 -217 -859l-160 -94q-139 -78 -233 -82q-18 66 -25 215q-6 141 -29 209q-154 459 -352 856l-168 -442q-113 -340 -113 -573q0 -86 15 -158h-8q-41 0 -119 -39l-129 -72q-82 53 -82 172zM649 1745 q45 113 62 225q12 90 30 113q27 37 135 78q39 14 84 14q92 0 310.5 -95t333.5 -95q98 0 180 49l65 -68q-106 -190 -387 -190q-252 0 -418 149q-18 -12 -116 -147q-78 -109 -148 -109q-61 0 -131 76z" />
<glyph unicode="&#xf2;" horiz-adv-x="1181" d="M-14 184q0 385 319 971q133 242 359 512q20 -6 309 -41q225 -313 225 -731q0 -354 -164 -682q-166 -334 -450 -532q-33 0 -129.5 -25t-145.5 -25q-59 0 -96 29q-227 192 -227 524zM227 281q0 -217 105 -383l65 -23q49 -16 68 -16q262 152 405 415q129 240 129 510 q0 362 -211 557q-207 -139 -374 -434q-187 -325 -187 -626zM383 2265q10 -2 73 2q51 6 78 -14q82 -61 272.5 -219t305.5 -244q-18 -35 -66 -90q-291 98 -483 235q-248 176 -180 330z" />
<glyph unicode="&#xf3;" horiz-adv-x="1181" d="M-14 184q0 385 319 971q133 242 359 512q20 -6 309 -41q225 -313 225 -731q0 -354 -164 -682q-166 -334 -450 -532q-33 0 -129.5 -25t-145.5 -25q-59 0 -96 29q-227 192 -227 524zM227 281q0 -217 105 -383l65 -23q49 -16 68 -16q262 152 405 415q129 240 129 510 q0 362 -211 557q-207 -139 -374 -434q-187 -325 -187 -626zM445 1790q20 -35 65 -90q291 98 484 235q250 176 180 330q-10 -2 -72 2q-53 6 -78 -14q-84 -61 -274 -219t-305 -244z" />
<glyph unicode="&#xf4;" horiz-adv-x="1361" d="M-14 184q0 385 319 971q133 242 359 512q20 -6 309 -41q225 -313 225 -731q0 -354 -164 -682q-166 -334 -450 -532q-33 0 -129.5 -25t-145.5 -25q-59 0 -96 29q-227 192 -227 524zM227 281q0 -217 105 -383l65 -23q49 -16 68 -16q262 152 405 415q129 240 129 510 q0 362 -211 557q-207 -139 -374 -434q-187 -325 -187 -626zM295 1890q221 190 363 348l137 150q41 37 137 45q39 -25 107 -135q82 -135 124 -187q23 -27 115 -96q86 -66 115 -106q68 -94 67 -166q-51 -59 -108 -60q-84 0 -254 183q-184 199 -279 229q-100 -45 -256 -215 q-133 -145 -208 -145q-18 0 -37 4q0 4 -15 65q-12 53 -8 86z" />
<glyph unicode="&#xf5;" horiz-adv-x="1325" d="M-14 184q0 385 319 971q133 242 359 512q20 -6 309 -41q225 -313 225 -731q0 -354 -164 -682q-166 -334 -450 -532q-33 0 -129.5 -25t-145.5 -25q-59 0 -96 29q-227 192 -227 524zM227 281q0 -217 105 -383l65 -23q49 -16 68 -16q262 152 405 415q129 240 129 510 q0 362 -211 557q-207 -139 -374 -434q-187 -325 -187 -626zM219 1745q45 113 62 225q12 90 30 113q27 37 135 78q39 14 84 14q92 0 310.5 -95t333.5 -95q98 0 180 49l65 -68q-106 -190 -387 -190q-252 0 -418 149q-18 -12 -116 -147q-78 -109 -148 -109q-61 0 -131 76z" />
<glyph unicode="&#xf6;" horiz-adv-x="1257" d="M-14 184q0 385 319 971q133 242 359 512q20 -6 309 -41q225 -313 225 -731q0 -354 -164 -682q-166 -334 -450 -532q-33 0 -129.5 -25t-145.5 -25q-59 0 -96 29q-227 192 -227 524zM227 281q0 -217 105 -383l65 -23q49 -16 68 -16q262 152 405 415q129 240 129 510 q0 362 -211 557q-207 -139 -374 -434q-187 -325 -187 -626zM200 2034q0 66 84 125q80 53 148 53q109 0 198 -85t89 -188q0 -94 -91 -161q-78 -57 -155 -58q-76 0 -170 97q-103 104 -103 217zM856 1898q0 82 73 193q82 121 158 121q63 0 161.5 -92t98.5 -154 q0 -100 -85 -200.5t-175 -100.5q-57 0 -141 78q-90 81 -90 155z" />
<glyph unicode="&#xf7;" horiz-adv-x="919" />
<glyph unicode="&#xf8;" horiz-adv-x="1495" d="M-12 -348q0 70 135 205q-12 27 -64 98q-45 59 -51 96q-8 49 -8 496q0 201 383 659q133 158 463 500q59 -59 168 -84q14 -68 49 -129q47 -88 102 -88q37 0 117 84t119 84q61 0 118.5 -35t82.5 -86l-183 -133q-129 -92 -144 -167t-9 -234q12 -250 12 -283q0 -111 -14 -191 q-45 -244 -322 -497q-283 -258 -520 -258q-23 0 -43 2l-121 -142q-74 -82 -119 -81q-57 0 -104 60.5t-47 123.5zM223 256q0 -55 13 -78l38 -39l369 529q268 381 371 503q-31 0 -85.5 21.5t-97.5 21.5q-135 0 -290 -225q-121 -174 -228 -438q-90 -227 -90 -295zM496 -57 q125 57 315 225q227 201 223 307v324q-210 -246 -538 -856z" />
<glyph unicode="&#xf9;" horiz-adv-x="1212" d="M6 236q0 137 68 546q57 335 56 584q0 39 -1 76l242 100q0 -10 45 -59t45 -80q0 -72 -41 -203l-66 -213q-117 -408 -116 -631q0 -317 188 -450q244 160 434 487q188 322 189 568q0 20 8 83.5t8 102.5q0 35 -6 63q-2 18 -41 105q-37 76 -37 125q0 76 90 137 q39 27 104.5 57.5t73.5 34.5q49 -135 49 -315q0 -479 -303 -1094l-104 -215q-82 -158 -172 -254q-119 -131 -258 -162q-25 -4 -60 -4q-111 0 -198 39q-197 250 -197 572zM383 2265q10 -2 73 2q51 6 78 -14q82 -61 272.5 -219t305.5 -244q-18 -35 -66 -90q-291 98 -483 235 q-248 176 -180 330z" />
<glyph unicode="&#xfa;" horiz-adv-x="1212" d="M6 236q0 137 68 546q57 335 56 584q0 39 -1 76l242 100q0 -10 45 -59t45 -80q0 -72 -41 -203l-66 -213q-117 -408 -116 -631q0 -317 188 -450q244 160 434 487q188 322 189 568q0 20 8 83.5t8 102.5q0 35 -6 63q-2 18 -41 105q-37 76 -37 125q0 76 90 137 q39 27 104.5 57.5t73.5 34.5q49 -135 49 -315q0 -479 -303 -1094l-104 -215q-82 -158 -172 -254q-119 -131 -258 -162q-25 -4 -60 -4q-111 0 -198 39q-197 250 -197 572zM301 1790q20 -35 65 -90q291 98 484 235q250 176 180 330q-10 -2 -72 2q-53 6 -78 -14 q-84 -61 -274 -219t-305 -244z" />
<glyph unicode="&#xfb;" horiz-adv-x="1212" d="M6 236q0 137 68 546q57 335 56 584q0 39 -1 76l242 100q0 -10 45 -59t45 -80q0 -72 -41 -203l-66 -213q-117 -408 -116 -631q0 -317 188 -450q244 160 434 487q188 322 189 568q0 20 8 83.5t8 102.5q0 35 -6 63q-2 18 -41 105q-37 76 -37 125q0 76 90 137 q39 27 104.5 57.5t73.5 34.5q49 -135 49 -315q0 -479 -303 -1094l-104 -215q-82 -158 -172 -254q-119 -131 -258 -162q-25 -4 -60 -4q-111 0 -198 39q-197 250 -197 572zM131 1890q221 190 363 348l137 150q41 37 137 45q39 -25 107 -135q82 -135 124 -187q23 -27 115 -96 q86 -66 115 -106q68 -94 67 -166q-51 -59 -108 -60q-84 0 -254 183q-184 199 -279 229q-100 -45 -256 -215q-133 -145 -208 -145q-18 0 -37 4q0 4 -15 65q-12 53 -8 86z" />
<glyph unicode="&#xfc;" horiz-adv-x="1212" d="M6 236q0 137 68 546q57 335 56 584q0 39 -1 76l242 100q0 -10 45 -59t45 -80q0 -72 -41 -203l-66 -213q-117 -408 -116 -631q0 -317 188 -450q244 160 434 487q188 322 189 568q0 20 8 83.5t8 102.5q0 35 -6 63q-2 18 -41 105q-37 76 -37 125q0 76 90 137 q39 27 104.5 57.5t73.5 34.5q49 -135 49 -315q0 -479 -303 -1094l-104 -215q-82 -158 -172 -254q-119 -131 -258 -162q-25 -4 -60 -4q-111 0 -198 39q-197 250 -197 572zM139 2034q0 66 84 125q80 53 148 53q109 0 198 -85t89 -188q0 -94 -91 -161q-78 -57 -155 -58 q-76 0 -170 97q-103 104 -103 217zM795 1898q0 82 73 193q82 121 158 121q63 0 161.5 -92t98.5 -154q0 -100 -85 -200.5t-175 -100.5q-57 0 -141 78q-90 81 -90 155z" />
<glyph unicode="&#xfd;" horiz-adv-x="1253" d="M2 -92q164 63 317 330l209 411q-18 92 -221 328q-287 332 -299 348q8 125 19 154q23 61 116 127q86 -25 201 -189l197 -293q117 -156 217 -170q84 104 190.5 318.5t163.5 394.5h213q18 -33 18 -80q0 -102 -90 -276q-53 -106 -195.5 -333.5t-193.5 -330.5 q-20 -37 -129.5 -139t-142.5 -162l-100 -192q-72 -141 -134 -222q55 -55 93 -55q-16 -109 -125 -158l-250 -96q-74 119 -74 285zM363 1790q20 -35 65 -90q291 98 484 235q250 176 180 330q-10 -2 -72 2q-53 6 -78 -14q-84 -61 -274 -219t-305 -244z" />
<glyph unicode="&#xff;" horiz-adv-x="1253" d="M774 2159q0 66 84 125q80 53 148 53q109 0 198 -85t89 -188q0 -94 -91 -161q-78 -57 -155 -58q-76 0 -170 97q-103 104 -103 217zM1430 2023q0 82 73 193q82 121 158 121q63 0 161.5 -92t98.5 -154q0 -100 -85 -200.5t-175 -100.5q-57 0 -141 78q-90 81 -90 155zM2 -92 q164 63 317 330l209 411q-18 92 -221 328q-287 332 -299 348q8 125 19 154q23 61 116 127q86 -25 201 -189l197 -293q117 -156 217 -170q84 104 190.5 318.5t163.5 394.5h213q18 -33 18 -80q0 -102 -90 -276q-53 -104 -195.5 -332.5t-193.5 -331.5q-20 -37 -129.5 -139 t-142.5 -162l-100 -192q-72 -141 -134 -222q55 -55 93 -55q-16 -109 -125 -158l-250 -96q-74 119 -74 285z" />
<glyph unicode="&#x152;" horiz-adv-x="2924" d="M1100 -121q150 88 254 324q72 156 143 444q78 313 105 379q20 55 31 242q8 170 48 239.5t146 110.5q98 39 211 39q57 0 105 -12q92 -20 247 -21q33 0 99 2h98q283 0 381 -94q-117 -92 -416 -92h-98q-68 2 -98 2q-281 0 -388 -82q-55 -43 -112 -248q-74 -256 -94 -299 q98 -70 188 -70q61 0 170 35l256 84q61 43 215 113q39 -14 90 -67.5t64 -96.5q-27 -86 -152 -188q-51 23 -133 22q-162 0 -526 -113q-78 -8 -156 -18q-121 -27 -160 -131q-25 -68 -51 -188l-45 -195q33 -57 143 -57q70 0 320 57q113 10 299 49q82 41 256 111q0 -16 38 -97 t38 -133q0 -72 -62 -120q-145 0 -289 -3q-188 -2 -305 -18q-70 -8 -307 -88q-211 -70 -356 -74h-4q-71 0 -107 88q-51 129 -86 164zM-14 184q0 385 319 971q133 242 359 512q20 -6 309 -41q225 -313 225 -731q0 -354 -164 -682q-166 -334 -450 -532q-33 0 -129.5 -25 t-145.5 -25q-59 0 -96 29q-227 192 -227 524zM227 281q0 -217 105 -383l65 -23q49 -16 68 -16q262 152 405 415q129 240 129 510q0 362 -211 557q-207 -139 -374 -434q-187 -325 -187 -626z" />
<glyph unicode="&#x153;" horiz-adv-x="2924" d="M1100 -121q150 88 254 324q72 156 143 444q78 313 105 379q20 55 31 242q8 170 48 239.5t146 110.5q98 39 211 39q57 0 105 -12q92 -20 247 -21q33 0 99 2h98q283 0 381 -94q-117 -92 -416 -92h-98q-68 2 -98 2q-281 0 -388 -82q-55 -43 -112 -248q-74 -256 -94 -299 q98 -70 188 -70q61 0 170 35l256 84q61 43 215 113q39 -14 90 -67.5t64 -96.5q-27 -86 -152 -188q-51 23 -133 22q-162 0 -526 -113q-78 -8 -156 -18q-121 -27 -160 -131q-25 -68 -51 -188l-45 -195q33 -57 143 -57q70 0 320 57q113 10 299 49q82 41 256 111q0 -16 38 -97 t38 -133q0 -72 -62 -120q-145 0 -289 -3q-188 -2 -305 -18q-70 -8 -307 -88q-211 -70 -356 -74h-4q-71 0 -107 88q-51 129 -86 164zM-14 184q0 385 319 971q133 242 359 512q20 -6 309 -41q225 -313 225 -731q0 -354 -164 -682q-166 -334 -450 -532q-33 0 -129.5 -25 t-145.5 -25q-59 0 -96 29q-227 192 -227 524zM227 281q0 -217 105 -383l65 -23q49 -16 68 -16q262 152 405 415q129 240 129 510q0 362 -211 557q-207 -139 -374 -434q-187 -325 -187 -626z" />
<glyph unicode="&#x178;" horiz-adv-x="1253" d="M774 2159q0 66 84 125q80 53 148 53q109 0 198 -85t89 -188q0 -94 -91 -161q-78 -57 -155 -58q-76 0 -170 97q-103 104 -103 217zM1430 2023q0 82 73 193q82 121 158 121q63 0 161.5 -92t98.5 -154q0 -100 -85 -200.5t-175 -100.5q-57 0 -141 78q-90 81 -90 155zM2 -92 q164 63 317 330l209 411q-18 92 -221 328q-287 332 -299 348q8 125 19 154q23 61 116 127q86 -25 201 -189l197 -293q117 -156 217 -170q84 104 190.5 318.5t163.5 394.5h213q18 -33 18 -80q0 -102 -90 -276q-53 -106 -195.5 -333.5t-193.5 -330.5q-20 -37 -129.5 -139 t-142.5 -162l-100 -192q-72 -141 -134 -222q55 -55 93 -55q-16 -109 -125 -158l-250 -96q-74 119 -74 285z" />
<glyph unicode="&#x2c6;" horiz-adv-x="1171" d="M90 1890q221 190 363 348l137 150q41 37 137 45q39 -25 107 -135q82 -135 124 -187q23 -27 115 -96q86 -66 115 -106q68 -94 67 -166q-51 -59 -108 -60q-84 0 -254 183q-184 199 -279 229q-100 -45 -256 -215q-133 -145 -208 -145q-18 0 -37 4q0 4 -15 65q-12 53 -8 86z " />
<glyph unicode="&#x2dc;" horiz-adv-x="1024" d="M-512 199q45 113 62 225q12 90 30 113q27 37 135 78q39 14 84 14q92 0 310.5 -95t333.5 -95q98 0 180 49l65 -68q-106 -190 -387 -190q-252 0 -418 149q-18 -12 -116 -147q-78 -109 -148 -109q-61 0 -131 76z" />
<glyph unicode="&#x2000;" horiz-adv-x="1351" />
<glyph unicode="&#x2001;" horiz-adv-x="2703" />
<glyph unicode="&#x2002;" horiz-adv-x="1351" />
<glyph unicode="&#x2003;" horiz-adv-x="2703" />
<glyph unicode="&#x2004;" horiz-adv-x="901" />
<glyph unicode="&#x2005;" horiz-adv-x="675" />
<glyph unicode="&#x2006;" horiz-adv-x="450" />
<glyph unicode="&#x2007;" horiz-adv-x="450" />
<glyph unicode="&#x2008;" horiz-adv-x="337" />
<glyph unicode="&#x2009;" horiz-adv-x="540" />
<glyph unicode="&#x200a;" horiz-adv-x="149" />
<glyph unicode="&#x2010;" horiz-adv-x="1163" d="M143 610q0 68 68 150q63 76 102 76q84 0 235.5 -44t221.5 -44q61 0 113 22q23 10 78 52t86 50q16 6 43 7q150 0 155 -101q0 -57 -51 -133q-57 -82 -117 -82q-129 37 -286 37q-190 0 -420 -53l-82 -8q-105 -1 -146 71z" />
<glyph unicode="&#x2011;" horiz-adv-x="1163" d="M143 610q0 68 68 150q63 76 102 76q84 0 235.5 -44t221.5 -44q61 0 113 22q23 10 78 52t86 50q16 6 43 7q150 0 155 -101q0 -57 -51 -133q-57 -82 -117 -82q-129 37 -286 37q-190 0 -420 -53l-82 -8q-105 -1 -146 71z" />
<glyph unicode="&#x2012;" horiz-adv-x="1163" d="M143 610q0 68 68 150q63 76 102 76q84 0 235.5 -44t221.5 -44q61 0 113 22q23 10 78 52t86 50q16 6 43 7q150 0 155 -101q0 -57 -51 -133q-57 -82 -117 -82q-129 37 -286 37q-190 0 -420 -53l-82 -8q-105 -1 -146 71z" />
<glyph unicode="&#x2013;" horiz-adv-x="1024" d="M205 512v205h614v-205h-614z" />
<glyph unicode="&#x2014;" horiz-adv-x="2048" d="M205 512v205h1638v-205h-1638z" />
<glyph unicode="&#x2018;" horiz-adv-x="329" d="M94 1159q0 166 47 279q53 127 146 127q33 0 65 -15l2 -778q-43 -41 -67 -41q-10 0 -11 10q-86 6 -137 136q-45 118 -45 282z" />
<glyph unicode="&#x2019;" horiz-adv-x="329" d="M94 1159q0 166 47 279q53 127 146 127q33 0 65 -15l2 -778q-43 -41 -67 -41q-10 0 -11 10q-86 6 -137 136q-45 118 -45 282z" />
<glyph unicode="&#x201a;" horiz-adv-x="440" d="M94 53q0 166 47 279q53 127 146 127q33 0 65 -15l2 -778q-43 -41 -67 -41q-10 0 -11 10q-86 6 -137 136q-45 118 -45 282z" />
<glyph unicode="&#x201c;" horiz-adv-x="796" d="M94 1159q0 166 47 279q53 127 146 127q33 0 65 -15l2 -778q-43 -41 -67 -41q-10 0 -11 10q-86 6 -137 136q-45 118 -45 282zM569 1016q0 281 90 473q43 10 183 10q12 -41 12 -104q0 -131 -45 -308.5t-104 -291.5q-25 -4 -68 22q-49 31 -57 68q-11 55 -11 131z" />
<glyph unicode="&#x201d;" horiz-adv-x="796" d="M94 1159q0 166 47 279q53 127 146 127q33 0 65 -15l2 -778q-43 -41 -67 -41q-10 0 -11 10q-86 6 -137 136q-45 118 -45 282zM569 1016q0 281 90 473q43 10 183 10q12 -41 12 -104q0 -131 -45 -308.5t-104 -291.5q-25 -4 -68 22q-49 31 -57 68q-11 55 -11 131z" />
<glyph unicode="&#x201e;" horiz-adv-x="854" d="M94 53q0 166 47 279q53 127 146 127q33 0 65 -15l2 -778q-43 -41 -67 -41q-10 0 -11 10q-86 6 -137 136q-45 118 -45 282zM569 -90q0 281 90 473q43 10 183 10q12 -41 12 -104q0 -131 -45 -308.5t-104 -291.5q-25 -4 -68 22q-49 31 -57 68q-11 55 -11 131z" />
<glyph unicode="&#x2026;" horiz-adv-x="2224" d="M1612 -127q0 57 80 144t153 87q82 0 193 -73q121 -82 121 -158q0 -63 -92 -161.5t-154 -98.5q-100 0 -200.5 85t-100.5 175zM870 -127q0 57 80 144t153 87q82 0 193 -73q121 -82 121 -158q0 -63 -92 -161.5t-154 -98.5q-100 0 -200.5 85t-100.5 175zM129 -127 q0 57 80 144t153 87q82 0 193 -73q121 -82 121 -158q0 -63 -92 -161.5t-154 -98.5q-100 0 -200.5 85t-100.5 175z" />
<glyph unicode="&#x202f;" horiz-adv-x="540" />
<glyph unicode="&#x2039;" horiz-adv-x="1497" d="M10 453q2 70 56 170l81 149q27 -12 60 -12q125 0 366 176q152 111 458 381t421 356q8 -8 60.5 -78.5t91.5 -111.5q-416 -301 -1160 -922q90 -152 430 -385q469 -324 594 -430q-43 -57 -122.5 -95t-153.5 -38q-55 0 -91 21.5t-97.5 98.5t-75.5 87q-178 141 -457 327z" />
<glyph unicode="&#x203a;" horiz-adv-x="1323" d="M41 -252q0 66 31 137l41 80q119 -2 309 168q139 127 332 361l254 315q-47 61 -250 207q-240 172 -326 252q-162 147 -162 256q0 74 74 133q109 0 277 -166q295 -293 313 -305q201 -164 387 -158q96 -78 96 -203q0 -16 -2 -26q-274 -207 -594 -527q-371 -371 -471 -573 q-51 0 -274 -76q-35 57 -35 125z" />
<glyph unicode="&#x205f;" horiz-adv-x="675" />
<glyph unicode="&#x2122;" horiz-adv-x="3252" d="M1526 -51q8 51 97.5 183t101.5 192q6 33 123 510q74 301 73 452q0 90 -22 154q2 2 80 102q53 63 108 103q35 0 97 -27q82 -37 86 -86q43 -309 116 -926l50 -53q238 217 401 451q186 266 190 434q4 33 66 100q70 76 80 100q133 -68 203 -67q-43 -276 -144 -801 q-94 -504 -125 -700q-2 -16 -2 -37q0 -45 17 -119l28 -123q-25 -66 -97.5 -115t-148.5 -49q-61 0 -102 37q-43 53 -43 137q0 31 10 49q119 227 176 418q37 127 66 316q33 215 59 321l-47 51l-415 -522q-12 -16 -33 -88t-49 -100q-39 -39 -131 -82q-115 -53 -150 -78 q-70 76 -84 207l-8 254q-6 164 -60 284q-49 -131 -227 -763q-4 -12 -4 -31q0 -23 9 -84.5t9 -95.5q0 -20 -2 -39q-41 -33 -124 -133q-119 66 -201 65q1 8 1 18q0 31 -14.5 81.5t-14.5 81.5q0 10 1 18zM27 1419q0 63 41 176q137 -29 356 -34l375 -5h18q95 0 269 38 q191 42 286 42q141 0 252 -67q-49 -233 -375 -234q-121 0 -233 33q-162 -414 -193 -502q-106 -319 -106 -532q0 -100 24 -182q4 -14 4 -33q0 -25 -10 -100.5t-10 -120.5q0 -84 29 -144q-74 -80 -260 -125q-4 2 -95 123q14 231 142.5 767t140.5 767q-80 76 -221 76 q-66 0 -178.5 -18.5t-151.5 -18.5q-104 0 -104 94z" />
<glyph unicode="&#xe000;" horiz-adv-x="1640" d="M0 1640h1640v-1640h-1640v1640z" />
<glyph unicode="&#xfb01;" horiz-adv-x="2295" d="M1552 -258q193 561 244 727q141 461 201 848q6 86 14 172q12 119 53 182q18 1 36 1q232 0 251 -154q-47 -217 -176 -594q-156 -446 -197 -594q-86 -307 -86 -528v-29q-68 -70 -225 -148q-27 0 -115 117zM4 -344v20q0 130 68 430l116 496q12 57 119 432q74 258 74 426 q0 72 -10 137q66 63 159 64q147 0 275 -137q8 -1 17 -1q68 0 222 25q190 31 289 31q205 0 322 -100q0 -68 -68 -162q-57 0 -237 14q-172 12 -273 12q-274 0 -409 -86q-160 -99 -160 -325q0 -26 2 -53q131 -59 453 -88q264 -25 362 -121q-96 -12 -297 -15q-221 0 -319 -8 q-176 -16 -295 -74q-43 -18 -84 -174q-37 -133 -51 -282q-2 -27 -3 -56q0 -104 54 -372q-84 -37 -242 -37q-43 0 -84 4z" />
<glyph unicode="&#xfb02;" horiz-adv-x="2785" d="M1548 -334q43 197 172 623q133 442 189 676q90 387 102 702q117 0 235 -72q0 -274 -137 -752t-137 -712q0 -88 12 -172q39 -12 99 -12q70 0 257 29.5t281 29.5q133 0 215 -45q2 -27 39 -86q-850 -210 -1280 -209q-24 -1 -47 0zM4 -344v20q0 130 68 430l116 496 q12 57 119 432q74 258 74 426q0 72 -10 137q66 63 159 64q147 0 275 -137q8 -1 17 -1q68 0 222 25q190 31 289 31q205 0 322 -100q0 -68 -68 -162q-57 0 -237 14q-172 12 -273 12q-274 0 -409 -86q-160 -99 -160 -325q0 -26 2 -53q131 -59 453 -88q264 -25 362 -121 q-96 -12 -297 -15q-221 0 -319 -8q-176 -16 -295 -74q-43 -18 -84 -174q-37 -133 -51 -282q-2 -27 -3 -56q0 -104 54 -372q-84 -37 -242 -37q-43 0 -84 4z" />
<glyph unicode="&#xfb03;" horiz-adv-x="3840" d="M3096 -258q193 561 244 727q141 461 201 848q6 86 14 172q12 119 53 182q18 1 36 1q232 0 251 -154q-47 -217 -176 -594q-156 -446 -197 -594q-86 -307 -86 -528v-29q-68 -70 -225 -148q-27 0 -115 117zM1548 -344v20q0 130 68 430l116 496q12 57 119 432q74 258 74 426 q0 72 -10 137q66 63 159 64q147 0 275 -137q8 -1 17 -1q68 0 222 25q190 31 289 31q205 0 322 -100q0 -68 -68 -162q-57 0 -237 14q-172 12 -273 12q-274 0 -409 -86q-160 -99 -160 -325q0 -26 2 -53q131 -59 453 -88q264 -25 362 -121q-96 -12 -297 -15q-221 0 -319 -8 q-176 -16 -295 -74q-43 -18 -84 -174q-37 -133 -51 -282q-2 -27 -3 -56q0 -104 54 -372q-84 -37 -242 -37q-43 0 -84 4zM4 -344v20q0 130 68 430l116 496q12 57 119 432q74 258 74 426q0 72 -10 137q66 63 159 64q147 0 275 -137q8 -1 17 -1q68 0 222 25q190 31 289 31 q205 0 322 -100q0 -68 -68 -162q-57 0 -237 14q-172 12 -273 12q-274 0 -409 -86q-160 -99 -160 -325q0 -26 2 -53q131 -59 453 -88q264 -25 362 -121q-96 -12 -297 -15q-221 0 -319 -8q-176 -16 -295 -74q-43 -18 -84 -174q-37 -133 -51 -282q-2 -27 -3 -56q0 -104 54 -372 q-84 -37 -242 -37q-43 0 -84 4z" />
<glyph unicode="&#xfb04;" horiz-adv-x="4329" d="M3092 -334q43 197 172 623q133 442 189 676q90 387 102 702q117 0 235 -72q0 -274 -137 -752t-137 -712q0 -88 12 -172q39 -12 99 -12q70 0 257 29.5t281 29.5q133 0 215 -45q2 -27 39 -86q-850 -210 -1280 -209q-24 -1 -47 0zM1548 -344v20q0 130 68 430l116 496 q12 57 119 432q74 258 74 426q0 72 -10 137q66 63 159 64q147 0 275 -137q8 -1 17 -1q68 0 222 25q190 31 289 31q205 0 322 -100q0 -68 -68 -162q-57 0 -237 14q-172 12 -273 12q-274 0 -409 -86q-160 -99 -160 -325q0 -26 2 -53q131 -59 453 -88q264 -25 362 -121 q-96 -12 -297 -15q-221 0 -319 -8q-176 -16 -295 -74q-43 -18 -84 -174q-37 -133 -51 -282q-2 -27 -3 -56q0 -104 54 -372q-84 -37 -242 -37q-43 0 -84 4zM4 -344v20q0 130 68 430l116 496q12 57 119 432q74 258 74 426q0 72 -10 137q66 63 159 64q147 0 275 -137 q8 -1 17 -1q68 0 222 25q190 31 289 31q205 0 322 -100q0 -68 -68 -162q-57 0 -237 14q-172 12 -273 12q-274 0 -409 -86q-160 -99 -160 -325q0 -26 2 -53q131 -59 453 -88q264 -25 362 -121q-96 -12 -297 -15q-221 0 -319 -8q-176 -16 -295 -74q-43 -18 -84 -174 q-37 -133 -51 -282q-2 -27 -3 -56q0 -104 54 -372q-84 -37 -242 -37q-43 0 -84 4z" />
</font>
</defs>
</svg>
